G04 #@! TF.GenerationSoftware,KiCad,Pcbnew,(5.1.9)-1*
G04 #@! TF.CreationDate,2021-06-03T21:06:58+02:00*
G04 #@! TF.ProjectId,HABakuk_v1.0,48414261-6b75-46b5-9f76-312e302e6b69,1.0*
G04 #@! TF.SameCoordinates,Original*
G04 #@! TF.FileFunction,Legend,Top*
G04 #@! TF.FilePolarity,Positive*
%FSLAX46Y46*%
G04 Gerber Fmt 4.6, Leading zero omitted, Abs format (unit mm)*
G04 Created by KiCad (PCBNEW (5.1.9)-1) date 2021-06-03 21:06:58*
%MOMM*%
%LPD*%
G01*
G04 APERTURE LIST*
%ADD10C,0.150000*%
%ADD11C,0.350000*%
%ADD12C,0.120000*%
%ADD13C,0.200000*%
%ADD14R,1.300000X1.600000*%
%ADD15R,2.000000X1.950000*%
%ADD16R,0.850000X0.650000*%
%ADD17R,0.650000X0.950000*%
%ADD18R,1.700000X1.700000*%
%ADD19O,1.700000X1.700000*%
%ADD20R,1.500000X1.000000*%
%ADD21C,2.100000*%
%ADD22R,0.650000X1.060000*%
%ADD23R,0.825000X0.500000*%
%ADD24R,0.430000X0.700000*%
%ADD25R,0.300000X1.400000*%
%ADD26R,0.550000X1.600000*%
%ADD27R,1.600000X0.550000*%
%ADD28R,0.800000X0.900000*%
%ADD29R,0.800000X2.700000*%
%ADD30R,1.000000X1.500000*%
G04 APERTURE END LIST*
D10*
X140104761Y-106005000D02*
X140152380Y-106100238D01*
X140152380Y-106290714D01*
X140104761Y-106385952D01*
X140057142Y-106433571D01*
X139961904Y-106481190D01*
X139676190Y-106481190D01*
X139580952Y-106433571D01*
X139533333Y-106385952D01*
X139485714Y-106290714D01*
X139485714Y-106100238D01*
X139533333Y-106005000D01*
X139485714Y-105147857D02*
X140152380Y-105147857D01*
X139485714Y-105576428D02*
X140009523Y-105576428D01*
X140104761Y-105528809D01*
X140152380Y-105433571D01*
X140152380Y-105290714D01*
X140104761Y-105195476D01*
X140057142Y-105147857D01*
X139485714Y-104814523D02*
X139485714Y-104433571D01*
X139152380Y-104671666D02*
X140009523Y-104671666D01*
X140104761Y-104624047D01*
X140152380Y-104528809D01*
X140152380Y-104433571D01*
X140152380Y-103338333D02*
X139152380Y-103338333D01*
X140152380Y-102909761D02*
X139628571Y-102909761D01*
X139533333Y-102957380D01*
X139485714Y-103052619D01*
X139485714Y-103195476D01*
X139533333Y-103290714D01*
X139580952Y-103338333D01*
X140104761Y-102052619D02*
X140152380Y-102147857D01*
X140152380Y-102338333D01*
X140104761Y-102433571D01*
X140009523Y-102481190D01*
X139628571Y-102481190D01*
X139533333Y-102433571D01*
X139485714Y-102338333D01*
X139485714Y-102147857D01*
X139533333Y-102052619D01*
X139628571Y-102005000D01*
X139723809Y-102005000D01*
X139819047Y-102481190D01*
X140152380Y-101576428D02*
X139485714Y-101576428D01*
X139676190Y-101576428D02*
X139580952Y-101528809D01*
X139533333Y-101481190D01*
X139485714Y-101385952D01*
X139485714Y-101290714D01*
X140104761Y-100576428D02*
X140152380Y-100671666D01*
X140152380Y-100862142D01*
X140104761Y-100957380D01*
X140009523Y-101005000D01*
X139628571Y-101005000D01*
X139533333Y-100957380D01*
X139485714Y-100862142D01*
X139485714Y-100671666D01*
X139533333Y-100576428D01*
X139628571Y-100528809D01*
X139723809Y-100528809D01*
X139819047Y-101005000D01*
D11*
X138430000Y-99060000D02*
X138430000Y-107315000D01*
D10*
X143771904Y-97290000D02*
X143676666Y-97242380D01*
X143533809Y-97242380D01*
X143390952Y-97290000D01*
X143295714Y-97385238D01*
X143248095Y-97480476D01*
X143200476Y-97670952D01*
X143200476Y-97813809D01*
X143248095Y-98004285D01*
X143295714Y-98099523D01*
X143390952Y-98194761D01*
X143533809Y-98242380D01*
X143629047Y-98242380D01*
X143771904Y-98194761D01*
X143819523Y-98147142D01*
X143819523Y-97813809D01*
X143629047Y-97813809D01*
X142089285Y-100782380D02*
X142089285Y-99782380D01*
X142422619Y-100496666D01*
X142755952Y-99782380D01*
X142755952Y-100782380D01*
X143375000Y-100782380D02*
X143279761Y-100734761D01*
X143232142Y-100687142D01*
X143184523Y-100591904D01*
X143184523Y-100306190D01*
X143232142Y-100210952D01*
X143279761Y-100163333D01*
X143375000Y-100115714D01*
X143517857Y-100115714D01*
X143613095Y-100163333D01*
X143660714Y-100210952D01*
X143708333Y-100306190D01*
X143708333Y-100591904D01*
X143660714Y-100687142D01*
X143613095Y-100734761D01*
X143517857Y-100782380D01*
X143375000Y-100782380D01*
X143129047Y-102941428D02*
X143890952Y-102941428D01*
X143510000Y-103322380D02*
X143510000Y-102560476D01*
X149288571Y-103322380D02*
X149288571Y-102322380D01*
X149621904Y-103036666D01*
X149955238Y-102322380D01*
X149955238Y-103322380D01*
X150431428Y-103322380D02*
X150431428Y-102655714D01*
X150431428Y-102322380D02*
X150383809Y-102370000D01*
X150431428Y-102417619D01*
X150479047Y-102370000D01*
X150431428Y-102322380D01*
X150431428Y-102417619D01*
X150169523Y-100687142D02*
X150121904Y-100734761D01*
X149979047Y-100782380D01*
X149883809Y-100782380D01*
X149740952Y-100734761D01*
X149645714Y-100639523D01*
X149598095Y-100544285D01*
X149550476Y-100353809D01*
X149550476Y-100210952D01*
X149598095Y-100020476D01*
X149645714Y-99925238D01*
X149740952Y-99830000D01*
X149883809Y-99782380D01*
X149979047Y-99782380D01*
X150121904Y-99830000D01*
X150169523Y-99877619D01*
X149598095Y-98242380D02*
X149598095Y-97242380D01*
X149836190Y-97242380D01*
X149979047Y-97290000D01*
X150074285Y-97385238D01*
X150121904Y-97480476D01*
X150169523Y-97670952D01*
X150169523Y-97813809D01*
X150121904Y-98004285D01*
X150074285Y-98099523D01*
X149979047Y-98194761D01*
X149836190Y-98242380D01*
X149598095Y-98242380D01*
X141978095Y-109672380D02*
X141978095Y-108672380D01*
X142216190Y-108672380D01*
X142359047Y-108720000D01*
X142454285Y-108815238D01*
X142501904Y-108910476D01*
X142549523Y-109100952D01*
X142549523Y-109243809D01*
X142501904Y-109434285D01*
X142454285Y-109529523D01*
X142359047Y-109624761D01*
X142216190Y-109672380D01*
X141978095Y-109672380D01*
X142549523Y-107037142D02*
X142501904Y-107084761D01*
X142359047Y-107132380D01*
X142263809Y-107132380D01*
X142120952Y-107084761D01*
X142025714Y-106989523D01*
X141978095Y-106894285D01*
X141930476Y-106703809D01*
X141930476Y-106560952D01*
X141978095Y-106370476D01*
X142025714Y-106275238D01*
X142120952Y-106180000D01*
X142263809Y-106132380D01*
X142359047Y-106132380D01*
X142501904Y-106180000D01*
X142549523Y-106227619D01*
X149598095Y-112212380D02*
X149598095Y-111212380D01*
X149836190Y-111212380D01*
X149979047Y-111260000D01*
X150074285Y-111355238D01*
X150121904Y-111450476D01*
X150169523Y-111640952D01*
X150169523Y-111783809D01*
X150121904Y-111974285D01*
X150074285Y-112069523D01*
X149979047Y-112164761D01*
X149836190Y-112212380D01*
X149598095Y-112212380D01*
X149574285Y-108672380D02*
X150145714Y-108672380D01*
X149860000Y-109672380D02*
X149860000Y-108672380D01*
X150169523Y-107132380D02*
X149836190Y-106656190D01*
X149598095Y-107132380D02*
X149598095Y-106132380D01*
X149979047Y-106132380D01*
X150074285Y-106180000D01*
X150121904Y-106227619D01*
X150169523Y-106322857D01*
X150169523Y-106465714D01*
X150121904Y-106560952D01*
X150074285Y-106608571D01*
X149979047Y-106656190D01*
X149598095Y-106656190D01*
X129159285Y-84590000D02*
X129064047Y-84542380D01*
X128921190Y-84542380D01*
X128778333Y-84590000D01*
X128683095Y-84685238D01*
X128635476Y-84780476D01*
X128587857Y-84970952D01*
X128587857Y-85113809D01*
X128635476Y-85304285D01*
X128683095Y-85399523D01*
X128778333Y-85494761D01*
X128921190Y-85542380D01*
X129016428Y-85542380D01*
X129159285Y-85494761D01*
X129206904Y-85447142D01*
X129206904Y-85113809D01*
X129016428Y-85113809D01*
X129635476Y-85542380D02*
X129635476Y-84542380D01*
X130016428Y-84542380D01*
X130111666Y-84590000D01*
X130159285Y-84637619D01*
X130206904Y-84732857D01*
X130206904Y-84875714D01*
X130159285Y-84970952D01*
X130111666Y-85018571D01*
X130016428Y-85066190D01*
X129635476Y-85066190D01*
X130587857Y-85494761D02*
X130730714Y-85542380D01*
X130968809Y-85542380D01*
X131064047Y-85494761D01*
X131111666Y-85447142D01*
X131159285Y-85351904D01*
X131159285Y-85256666D01*
X131111666Y-85161428D01*
X131064047Y-85113809D01*
X130968809Y-85066190D01*
X130778333Y-85018571D01*
X130683095Y-84970952D01*
X130635476Y-84923333D01*
X130587857Y-84828095D01*
X130587857Y-84732857D01*
X130635476Y-84637619D01*
X130683095Y-84590000D01*
X130778333Y-84542380D01*
X131016428Y-84542380D01*
X131159285Y-84590000D01*
X132778333Y-85542380D02*
X132778333Y-85018571D01*
X132730714Y-84923333D01*
X132635476Y-84875714D01*
X132445000Y-84875714D01*
X132349761Y-84923333D01*
X132778333Y-85494761D02*
X132683095Y-85542380D01*
X132445000Y-85542380D01*
X132349761Y-85494761D01*
X132302142Y-85399523D01*
X132302142Y-85304285D01*
X132349761Y-85209047D01*
X132445000Y-85161428D01*
X132683095Y-85161428D01*
X132778333Y-85113809D01*
X133254523Y-84875714D02*
X133254523Y-85542380D01*
X133254523Y-84970952D02*
X133302142Y-84923333D01*
X133397380Y-84875714D01*
X133540238Y-84875714D01*
X133635476Y-84923333D01*
X133683095Y-85018571D01*
X133683095Y-85542380D01*
X134016428Y-84875714D02*
X134397380Y-84875714D01*
X134159285Y-84542380D02*
X134159285Y-85399523D01*
X134206904Y-85494761D01*
X134302142Y-85542380D01*
X134397380Y-85542380D01*
X123317142Y-85256666D02*
X123793333Y-85256666D01*
X123221904Y-85542380D02*
X123555238Y-84542380D01*
X123888571Y-85542380D01*
X124221904Y-85542380D02*
X124221904Y-84542380D01*
X124793333Y-85542380D01*
X124793333Y-84542380D01*
X125126666Y-84542380D02*
X125698095Y-84542380D01*
X125412380Y-85542380D02*
X125412380Y-84542380D01*
X133604047Y-121356428D02*
X134365952Y-121356428D01*
X133985000Y-121737380D02*
X133985000Y-120975476D01*
X128524047Y-121356428D02*
X129285952Y-121356428D01*
X130825952Y-121642142D02*
X130778333Y-121689761D01*
X130635476Y-121737380D01*
X130540238Y-121737380D01*
X130397380Y-121689761D01*
X130302142Y-121594523D01*
X130254523Y-121499285D01*
X130206904Y-121308809D01*
X130206904Y-121165952D01*
X130254523Y-120975476D01*
X130302142Y-120880238D01*
X130397380Y-120785000D01*
X130540238Y-120737380D01*
X130635476Y-120737380D01*
X130778333Y-120785000D01*
X130825952Y-120832619D01*
X131206904Y-121451666D02*
X131683095Y-121451666D01*
X131111666Y-121737380D02*
X131445000Y-120737380D01*
X131778333Y-121737380D01*
X132111666Y-121737380D02*
X132111666Y-120737380D01*
X132492619Y-120737380D01*
X132587857Y-120785000D01*
X132635476Y-120832619D01*
X132683095Y-120927857D01*
X132683095Y-121070714D01*
X132635476Y-121165952D01*
X132587857Y-121213571D01*
X132492619Y-121261190D01*
X132111666Y-121261190D01*
X123317142Y-121451666D02*
X123793333Y-121451666D01*
X123221904Y-121737380D02*
X123555238Y-120737380D01*
X123888571Y-121737380D01*
X124221904Y-121737380D02*
X124221904Y-120737380D01*
X124793333Y-121737380D01*
X124793333Y-120737380D01*
X125126666Y-120737380D02*
X125698095Y-120737380D01*
X125412380Y-121737380D02*
X125412380Y-120737380D01*
X119634047Y-121356428D02*
X120395952Y-121356428D01*
X120015000Y-121737380D02*
X120015000Y-120975476D01*
X114554047Y-121356428D02*
X115315952Y-121356428D01*
X116260714Y-121689761D02*
X116403571Y-121737380D01*
X116641666Y-121737380D01*
X116736904Y-121689761D01*
X116784523Y-121642142D01*
X116832142Y-121546904D01*
X116832142Y-121451666D01*
X116784523Y-121356428D01*
X116736904Y-121308809D01*
X116641666Y-121261190D01*
X116451190Y-121213571D01*
X116355952Y-121165952D01*
X116308333Y-121118333D01*
X116260714Y-121023095D01*
X116260714Y-120927857D01*
X116308333Y-120832619D01*
X116355952Y-120785000D01*
X116451190Y-120737380D01*
X116689285Y-120737380D01*
X116832142Y-120785000D01*
X117451190Y-120737380D02*
X117641666Y-120737380D01*
X117736904Y-120785000D01*
X117832142Y-120880238D01*
X117879761Y-121070714D01*
X117879761Y-121404047D01*
X117832142Y-121594523D01*
X117736904Y-121689761D01*
X117641666Y-121737380D01*
X117451190Y-121737380D01*
X117355952Y-121689761D01*
X117260714Y-121594523D01*
X117213095Y-121404047D01*
X117213095Y-121070714D01*
X117260714Y-120880238D01*
X117355952Y-120785000D01*
X117451190Y-120737380D01*
X118784523Y-121737380D02*
X118308333Y-121737380D01*
X118308333Y-120737380D01*
D12*
X135581000Y-101202000D02*
X135581000Y-95902000D01*
X131881000Y-101202000D02*
X135581000Y-101202000D01*
D13*
X129994000Y-116202000D02*
G75*
G03*
X129994000Y-116202000I-37000J0D01*
G01*
X126033000Y-117155000D02*
X126709000Y-117155000D01*
X126033000Y-117155000D02*
X126033000Y-116753000D01*
X126033000Y-115255000D02*
X126033000Y-115657000D01*
X126033000Y-115255000D02*
X126709000Y-115255000D01*
D12*
X128210000Y-120710000D02*
X130870000Y-120710000D01*
X128210000Y-120650000D02*
X128210000Y-120710000D01*
X130870000Y-120650000D02*
X130870000Y-120710000D01*
X128210000Y-120650000D02*
X130870000Y-120650000D01*
X128210000Y-119380000D02*
X128210000Y-118050000D01*
X128210000Y-118050000D02*
X129540000Y-118050000D01*
X132020000Y-120710000D02*
X134680000Y-120710000D01*
X132020000Y-120650000D02*
X132020000Y-120710000D01*
X134680000Y-120650000D02*
X134680000Y-120710000D01*
X132020000Y-120650000D02*
X134680000Y-120650000D01*
X132020000Y-119380000D02*
X132020000Y-118050000D01*
X132020000Y-118050000D02*
X133350000Y-118050000D01*
X114240000Y-120710000D02*
X116900000Y-120710000D01*
X114240000Y-120650000D02*
X114240000Y-120710000D01*
X116900000Y-120650000D02*
X116900000Y-120710000D01*
X114240000Y-120650000D02*
X116900000Y-120650000D01*
X114240000Y-119380000D02*
X114240000Y-118050000D01*
X114240000Y-118050000D02*
X115570000Y-118050000D01*
X118050000Y-120710000D02*
X120710000Y-120710000D01*
X118050000Y-120650000D02*
X118050000Y-120710000D01*
X120710000Y-120650000D02*
X120710000Y-120710000D01*
X118050000Y-120650000D02*
X120710000Y-120650000D01*
X118050000Y-119380000D02*
X118050000Y-118050000D01*
X118050000Y-118050000D02*
X119380000Y-118050000D01*
X123130000Y-120710000D02*
X125790000Y-120710000D01*
X123130000Y-120650000D02*
X123130000Y-120710000D01*
X125790000Y-120650000D02*
X125790000Y-120710000D01*
X123130000Y-120650000D02*
X125790000Y-120650000D01*
X123130000Y-119380000D02*
X123130000Y-118050000D01*
X123130000Y-118050000D02*
X124460000Y-118050000D01*
X123130000Y-85665000D02*
X123130000Y-88325000D01*
X123190000Y-85665000D02*
X123130000Y-85665000D01*
X123190000Y-88325000D02*
X123130000Y-88325000D01*
X123190000Y-85665000D02*
X123190000Y-88325000D01*
X124460000Y-85665000D02*
X125790000Y-85665000D01*
X125790000Y-85665000D02*
X125790000Y-86995000D01*
X134045000Y-88325000D02*
X134045000Y-85665000D01*
X131445000Y-88325000D02*
X134045000Y-88325000D01*
X131445000Y-85665000D02*
X134045000Y-85665000D01*
X131445000Y-88325000D02*
X131445000Y-85665000D01*
X130175000Y-88325000D02*
X128845000Y-88325000D01*
X128845000Y-88325000D02*
X128845000Y-86995000D01*
X146625000Y-113090000D02*
X149285000Y-113090000D01*
X146625000Y-107950000D02*
X146625000Y-113090000D01*
X149285000Y-107950000D02*
X149285000Y-113090000D01*
X146625000Y-107950000D02*
X149285000Y-107950000D01*
X146625000Y-106680000D02*
X146625000Y-105350000D01*
X146625000Y-105350000D02*
X147955000Y-105350000D01*
X142815000Y-110550000D02*
X145475000Y-110550000D01*
X142815000Y-107950000D02*
X142815000Y-110550000D01*
X145475000Y-107950000D02*
X145475000Y-110550000D01*
X142815000Y-107950000D02*
X145475000Y-107950000D01*
X142815000Y-106680000D02*
X142815000Y-105350000D01*
X142815000Y-105350000D02*
X144145000Y-105350000D01*
X118634000Y-110112000D02*
X118634000Y-107312000D01*
X118634000Y-107312000D02*
X120634000Y-107312000D01*
X120634000Y-107312000D02*
X120634000Y-110112000D01*
X120634000Y-110112000D02*
X118634000Y-110112000D01*
X113706000Y-108320000D02*
X113706000Y-110120000D01*
X116926000Y-110120000D02*
X116926000Y-107670000D01*
X115690000Y-103735000D02*
X118090000Y-103735000D01*
X118090000Y-103735000D02*
X118090000Y-103135000D01*
X117990000Y-100735000D02*
X115690000Y-100735000D01*
D10*
X115800000Y-98195000D02*
X116025000Y-98195000D01*
X115800000Y-94845000D02*
X116100000Y-94845000D01*
X119150000Y-94845000D02*
X118850000Y-94845000D01*
X119150000Y-98195000D02*
X118850000Y-98195000D01*
X115800000Y-98195000D02*
X115800000Y-94845000D01*
X119150000Y-98195000D02*
X119150000Y-94845000D01*
X116025000Y-98195000D02*
X116025000Y-99420000D01*
X129355000Y-105225000D02*
X129355000Y-105000000D01*
X122105000Y-105225000D02*
X122105000Y-104900000D01*
X122105000Y-97975000D02*
X122105000Y-98300000D01*
X129355000Y-97975000D02*
X129355000Y-98300000D01*
X129355000Y-105225000D02*
X129030000Y-105225000D01*
X129355000Y-97975000D02*
X129030000Y-97975000D01*
X122105000Y-97975000D02*
X122430000Y-97975000D01*
X122105000Y-105225000D02*
X122430000Y-105225000D01*
X129355000Y-105000000D02*
X130780000Y-105000000D01*
D12*
X127000000Y-112735000D02*
X129200000Y-112735000D01*
X127000000Y-112735000D02*
X124800000Y-112735000D01*
X127000000Y-109515000D02*
X129200000Y-109515000D01*
X127000000Y-109515000D02*
X123400000Y-109515000D01*
X128507258Y-94502500D02*
X128032742Y-94502500D01*
X128507258Y-93457500D02*
X128032742Y-93457500D01*
X124222742Y-107427500D02*
X124697258Y-107427500D01*
X124222742Y-108472500D02*
X124697258Y-108472500D01*
X128507258Y-108980500D02*
X128032742Y-108980500D01*
X128507258Y-107935500D02*
X128032742Y-107935500D01*
X134349258Y-105932500D02*
X133874742Y-105932500D01*
X134349258Y-104887500D02*
X133874742Y-104887500D01*
X124222742Y-93457500D02*
X124697258Y-93457500D01*
X124222742Y-94502500D02*
X124697258Y-94502500D01*
X132602500Y-115332742D02*
X132602500Y-115807258D01*
X131557500Y-115332742D02*
X131557500Y-115807258D01*
X129556742Y-113777500D02*
X130031258Y-113777500D01*
X129556742Y-114822500D02*
X130031258Y-114822500D01*
X126602258Y-114822500D02*
X126127742Y-114822500D01*
X126602258Y-113777500D02*
X126127742Y-113777500D01*
X135142500Y-112157742D02*
X135142500Y-112632258D01*
X134097500Y-112157742D02*
X134097500Y-112632258D01*
X135142500Y-108982742D02*
X135142500Y-109457258D01*
X134097500Y-108982742D02*
X134097500Y-109457258D01*
X133237500Y-107712742D02*
X133237500Y-108187258D01*
X132192500Y-107712742D02*
X132192500Y-108187258D01*
X131120000Y-90045000D02*
X130190000Y-90045000D01*
X127960000Y-90045000D02*
X128890000Y-90045000D01*
X127960000Y-90045000D02*
X127960000Y-92205000D01*
X131120000Y-90045000D02*
X131120000Y-91505000D01*
X126040000Y-90045000D02*
X125110000Y-90045000D01*
X122880000Y-90045000D02*
X123810000Y-90045000D01*
X122880000Y-90045000D02*
X122880000Y-92205000D01*
X126040000Y-90045000D02*
X126040000Y-91505000D01*
X120487221Y-87755000D02*
X120812779Y-87755000D01*
X120487221Y-88775000D02*
X120812779Y-88775000D01*
X114810000Y-94452221D02*
X114810000Y-94777779D01*
X113790000Y-94452221D02*
X113790000Y-94777779D01*
X118272779Y-92204000D02*
X117947221Y-92204000D01*
X118272779Y-91184000D02*
X117947221Y-91184000D01*
X119150000Y-110795000D02*
X122150000Y-110795000D01*
X119150000Y-113995000D02*
X122150000Y-113995000D01*
X121430000Y-84725000D02*
X121430000Y-86725000D01*
X117330000Y-84725000D02*
X121430000Y-84725000D01*
X117330000Y-86725000D02*
X117330000Y-84725000D01*
X121430000Y-86725000D02*
X117330000Y-86725000D01*
X144085000Y-104200000D02*
X149285000Y-104200000D01*
X144085000Y-99060000D02*
X144085000Y-104200000D01*
X149285000Y-96460000D02*
X149285000Y-104200000D01*
X144085000Y-99060000D02*
X146685000Y-99060000D01*
X146685000Y-99060000D02*
X146685000Y-96460000D01*
X146685000Y-96460000D02*
X149285000Y-96460000D01*
X144085000Y-97790000D02*
X144085000Y-96460000D01*
X144085000Y-96460000D02*
X145415000Y-96460000D01*
X145909420Y-94105000D02*
X146190580Y-94105000D01*
X145909420Y-95125000D02*
X146190580Y-95125000D01*
X116980580Y-88775000D02*
X116699420Y-88775000D01*
X116980580Y-87755000D02*
X116699420Y-87755000D01*
X118250580Y-90426000D02*
X117969420Y-90426000D01*
X118250580Y-89406000D02*
X117969420Y-89406000D01*
X113790000Y-88278580D02*
X113790000Y-87997420D01*
X114810000Y-88278580D02*
X114810000Y-87997420D01*
X116080000Y-91299420D02*
X116080000Y-91580580D01*
X115060000Y-91299420D02*
X115060000Y-91580580D01*
X114810000Y-98284420D02*
X114810000Y-98565580D01*
X113790000Y-98284420D02*
X113790000Y-98565580D01*
X144004420Y-111885000D02*
X144285580Y-111885000D01*
X144004420Y-112905000D02*
X144285580Y-112905000D01*
X133209420Y-89660000D02*
X133490580Y-89660000D01*
X133209420Y-90680000D02*
X133490580Y-90680000D01*
X133590420Y-94232000D02*
X133871580Y-94232000D01*
X133590420Y-95252000D02*
X133871580Y-95252000D01*
X133490580Y-103380000D02*
X133209420Y-103380000D01*
X133490580Y-102360000D02*
X133209420Y-102360000D01*
X119636000Y-102475420D02*
X119636000Y-102756580D01*
X118616000Y-102475420D02*
X118616000Y-102756580D01*
X121160000Y-93839420D02*
X121160000Y-94120580D01*
X120140000Y-93839420D02*
X120140000Y-94120580D01*
X116699420Y-104900000D02*
X116980580Y-104900000D01*
X116699420Y-105920000D02*
X116980580Y-105920000D01*
X124560000Y-115054748D02*
X124560000Y-115577252D01*
X123090000Y-115054748D02*
X123090000Y-115577252D01*
X134495000Y-115429420D02*
X134495000Y-115710580D01*
X133475000Y-115429420D02*
X133475000Y-115710580D01*
X133225000Y-111619420D02*
X133225000Y-111900580D01*
X132205000Y-111619420D02*
X132205000Y-111900580D01*
X122430000Y-108444420D02*
X122430000Y-108725580D01*
X121410000Y-108444420D02*
X121410000Y-108725580D01*
X116345580Y-117350000D02*
X116064420Y-117350000D01*
X116345580Y-116330000D02*
X116064420Y-116330000D01*
X116345580Y-113540000D02*
X116064420Y-113540000D01*
X116345580Y-112520000D02*
X116064420Y-112520000D01*
X116345580Y-115445000D02*
X116064420Y-115445000D01*
X116345580Y-114425000D02*
X116064420Y-114425000D01*
D10*
X130907190Y-99028190D02*
X131383380Y-99028190D01*
X130383380Y-99361523D02*
X130907190Y-99028190D01*
X130383380Y-98694857D01*
X131383380Y-97837714D02*
X131383380Y-98409142D01*
X131383380Y-98123428D02*
X130383380Y-98123428D01*
X130526238Y-98218666D01*
X130621476Y-98313904D01*
X130669095Y-98409142D01*
X118800666Y-105624380D02*
X118800666Y-106338666D01*
X118753047Y-106481523D01*
X118657809Y-106576761D01*
X118514952Y-106624380D01*
X118419714Y-106624380D01*
X119276857Y-106624380D02*
X119276857Y-105624380D01*
X119657809Y-105624380D01*
X119753047Y-105672000D01*
X119800666Y-105719619D01*
X119848285Y-105814857D01*
X119848285Y-105957714D01*
X119800666Y-106052952D01*
X119753047Y-106100571D01*
X119657809Y-106148190D01*
X119276857Y-106148190D01*
X120229238Y-105719619D02*
X120276857Y-105672000D01*
X120372095Y-105624380D01*
X120610190Y-105624380D01*
X120705428Y-105672000D01*
X120753047Y-105719619D01*
X120800666Y-105814857D01*
X120800666Y-105910095D01*
X120753047Y-106052952D01*
X120181619Y-106624380D01*
X120800666Y-106624380D01*
X113466666Y-85177380D02*
X113466666Y-85891666D01*
X113419047Y-86034523D01*
X113323809Y-86129761D01*
X113180952Y-86177380D01*
X113085714Y-86177380D01*
X113942857Y-86177380D02*
X113942857Y-85177380D01*
X114323809Y-85177380D01*
X114419047Y-85225000D01*
X114466666Y-85272619D01*
X114514285Y-85367857D01*
X114514285Y-85510714D01*
X114466666Y-85605952D01*
X114419047Y-85653571D01*
X114323809Y-85701190D01*
X113942857Y-85701190D01*
X115466666Y-86177380D02*
X114895238Y-86177380D01*
X115180952Y-86177380D02*
X115180952Y-85177380D01*
X115085714Y-85320238D01*
X114990476Y-85415476D01*
X114895238Y-85463095D01*
X122265714Y-86177380D02*
X121694285Y-86177380D01*
X121980000Y-86177380D02*
X121980000Y-85177380D01*
X121884761Y-85320238D01*
X121789523Y-85415476D01*
X121694285Y-85463095D01*
X116446666Y-85177380D02*
X117065714Y-85177380D01*
X116732380Y-85558333D01*
X116875238Y-85558333D01*
X116970476Y-85605952D01*
X117018095Y-85653571D01*
X117065714Y-85748809D01*
X117065714Y-85986904D01*
X117018095Y-86082142D01*
X116970476Y-86129761D01*
X116875238Y-86177380D01*
X116589523Y-86177380D01*
X116494285Y-86129761D01*
X116446666Y-86082142D01*
%LPC*%
D14*
X132731000Y-100202000D03*
X132731000Y-96902000D03*
X134731000Y-96902000D03*
X134731000Y-100202000D03*
D15*
X127923000Y-116205000D03*
D16*
X125843000Y-116205000D03*
D17*
X129248000Y-116205000D03*
D18*
X129540000Y-119380000D03*
X133350000Y-119380000D03*
X115570000Y-119380000D03*
X119380000Y-119380000D03*
X124460000Y-119380000D03*
X124460000Y-86995000D03*
D19*
X132715000Y-86995000D03*
D18*
X130175000Y-86995000D03*
D19*
X147955000Y-111760000D03*
X147955000Y-109220000D03*
D18*
X147955000Y-106680000D03*
D19*
X144145000Y-109220000D03*
D18*
X144145000Y-106680000D03*
D20*
X119634000Y-108062000D03*
X119634000Y-109362000D03*
D21*
X124460000Y-123825000D03*
X124460000Y-82550000D03*
D22*
X116266000Y-110320000D03*
X114366000Y-110320000D03*
X114366000Y-108120000D03*
X115316000Y-108120000D03*
X116266000Y-108120000D03*
D23*
X116102500Y-103385000D03*
D24*
X115905000Y-102235000D03*
D23*
X116102500Y-101085000D03*
X117577500Y-101085000D03*
D24*
X117775000Y-102235000D03*
D23*
X117577500Y-103385000D03*
D25*
X116475000Y-94320000D03*
X116975000Y-94320000D03*
X117475000Y-94320000D03*
X117975000Y-94320000D03*
X118475000Y-94320000D03*
X118475000Y-98720000D03*
X117975000Y-98720000D03*
X117475000Y-98720000D03*
X116975000Y-98720000D03*
X116475000Y-98720000D03*
D26*
X128530000Y-105850000D03*
X127730000Y-105850000D03*
X126930000Y-105850000D03*
X126130000Y-105850000D03*
X125330000Y-105850000D03*
X124530000Y-105850000D03*
X123730000Y-105850000D03*
X122930000Y-105850000D03*
D27*
X121480000Y-104400000D03*
X121480000Y-103600000D03*
X121480000Y-102800000D03*
X121480000Y-102000000D03*
X121480000Y-101200000D03*
X121480000Y-100400000D03*
X121480000Y-99600000D03*
X121480000Y-98800000D03*
D26*
X122930000Y-97350000D03*
X123730000Y-97350000D03*
X124530000Y-97350000D03*
X125330000Y-97350000D03*
X126130000Y-97350000D03*
X126930000Y-97350000D03*
X127730000Y-97350000D03*
X128530000Y-97350000D03*
D27*
X129980000Y-98800000D03*
X129980000Y-99600000D03*
X129980000Y-100400000D03*
X129980000Y-101200000D03*
X129980000Y-102000000D03*
X129980000Y-102800000D03*
X129980000Y-103600000D03*
X129980000Y-104400000D03*
G36*
G01*
X129125000Y-110250000D02*
X129125000Y-110050000D01*
G75*
G02*
X129225000Y-109950000I100000J0D01*
G01*
X130500000Y-109950000D01*
G75*
G02*
X130600000Y-110050000I0J-100000D01*
G01*
X130600000Y-110250000D01*
G75*
G02*
X130500000Y-110350000I-100000J0D01*
G01*
X129225000Y-110350000D01*
G75*
G02*
X129125000Y-110250000I0J100000D01*
G01*
G37*
G36*
G01*
X129125000Y-110900000D02*
X129125000Y-110700000D01*
G75*
G02*
X129225000Y-110600000I100000J0D01*
G01*
X130500000Y-110600000D01*
G75*
G02*
X130600000Y-110700000I0J-100000D01*
G01*
X130600000Y-110900000D01*
G75*
G02*
X130500000Y-111000000I-100000J0D01*
G01*
X129225000Y-111000000D01*
G75*
G02*
X129125000Y-110900000I0J100000D01*
G01*
G37*
G36*
G01*
X129125000Y-111550000D02*
X129125000Y-111350000D01*
G75*
G02*
X129225000Y-111250000I100000J0D01*
G01*
X130500000Y-111250000D01*
G75*
G02*
X130600000Y-111350000I0J-100000D01*
G01*
X130600000Y-111550000D01*
G75*
G02*
X130500000Y-111650000I-100000J0D01*
G01*
X129225000Y-111650000D01*
G75*
G02*
X129125000Y-111550000I0J100000D01*
G01*
G37*
G36*
G01*
X129125000Y-112200000D02*
X129125000Y-112000000D01*
G75*
G02*
X129225000Y-111900000I100000J0D01*
G01*
X130500000Y-111900000D01*
G75*
G02*
X130600000Y-112000000I0J-100000D01*
G01*
X130600000Y-112200000D01*
G75*
G02*
X130500000Y-112300000I-100000J0D01*
G01*
X129225000Y-112300000D01*
G75*
G02*
X129125000Y-112200000I0J100000D01*
G01*
G37*
G36*
G01*
X123400000Y-112200000D02*
X123400000Y-112000000D01*
G75*
G02*
X123500000Y-111900000I100000J0D01*
G01*
X124775000Y-111900000D01*
G75*
G02*
X124875000Y-112000000I0J-100000D01*
G01*
X124875000Y-112200000D01*
G75*
G02*
X124775000Y-112300000I-100000J0D01*
G01*
X123500000Y-112300000D01*
G75*
G02*
X123400000Y-112200000I0J100000D01*
G01*
G37*
G36*
G01*
X123400000Y-111550000D02*
X123400000Y-111350000D01*
G75*
G02*
X123500000Y-111250000I100000J0D01*
G01*
X124775000Y-111250000D01*
G75*
G02*
X124875000Y-111350000I0J-100000D01*
G01*
X124875000Y-111550000D01*
G75*
G02*
X124775000Y-111650000I-100000J0D01*
G01*
X123500000Y-111650000D01*
G75*
G02*
X123400000Y-111550000I0J100000D01*
G01*
G37*
G36*
G01*
X123400000Y-110900000D02*
X123400000Y-110700000D01*
G75*
G02*
X123500000Y-110600000I100000J0D01*
G01*
X124775000Y-110600000D01*
G75*
G02*
X124875000Y-110700000I0J-100000D01*
G01*
X124875000Y-110900000D01*
G75*
G02*
X124775000Y-111000000I-100000J0D01*
G01*
X123500000Y-111000000D01*
G75*
G02*
X123400000Y-110900000I0J100000D01*
G01*
G37*
G36*
G01*
X123400000Y-110250000D02*
X123400000Y-110050000D01*
G75*
G02*
X123500000Y-109950000I100000J0D01*
G01*
X124775000Y-109950000D01*
G75*
G02*
X124875000Y-110050000I0J-100000D01*
G01*
X124875000Y-110250000D01*
G75*
G02*
X124775000Y-110350000I-100000J0D01*
G01*
X123500000Y-110350000D01*
G75*
G02*
X123400000Y-110250000I0J100000D01*
G01*
G37*
G36*
G01*
X127845000Y-93705000D02*
X127845000Y-94255000D01*
G75*
G02*
X127645000Y-94455000I-200000J0D01*
G01*
X127245000Y-94455000D01*
G75*
G02*
X127045000Y-94255000I0J200000D01*
G01*
X127045000Y-93705000D01*
G75*
G02*
X127245000Y-93505000I200000J0D01*
G01*
X127645000Y-93505000D01*
G75*
G02*
X127845000Y-93705000I0J-200000D01*
G01*
G37*
G36*
G01*
X129495000Y-93705000D02*
X129495000Y-94255000D01*
G75*
G02*
X129295000Y-94455000I-200000J0D01*
G01*
X128895000Y-94455000D01*
G75*
G02*
X128695000Y-94255000I0J200000D01*
G01*
X128695000Y-93705000D01*
G75*
G02*
X128895000Y-93505000I200000J0D01*
G01*
X129295000Y-93505000D01*
G75*
G02*
X129495000Y-93705000I0J-200000D01*
G01*
G37*
G36*
G01*
X124885000Y-108225000D02*
X124885000Y-107675000D01*
G75*
G02*
X125085000Y-107475000I200000J0D01*
G01*
X125485000Y-107475000D01*
G75*
G02*
X125685000Y-107675000I0J-200000D01*
G01*
X125685000Y-108225000D01*
G75*
G02*
X125485000Y-108425000I-200000J0D01*
G01*
X125085000Y-108425000D01*
G75*
G02*
X124885000Y-108225000I0J200000D01*
G01*
G37*
G36*
G01*
X123235000Y-108225000D02*
X123235000Y-107675000D01*
G75*
G02*
X123435000Y-107475000I200000J0D01*
G01*
X123835000Y-107475000D01*
G75*
G02*
X124035000Y-107675000I0J-200000D01*
G01*
X124035000Y-108225000D01*
G75*
G02*
X123835000Y-108425000I-200000J0D01*
G01*
X123435000Y-108425000D01*
G75*
G02*
X123235000Y-108225000I0J200000D01*
G01*
G37*
G36*
G01*
X127845000Y-108183000D02*
X127845000Y-108733000D01*
G75*
G02*
X127645000Y-108933000I-200000J0D01*
G01*
X127245000Y-108933000D01*
G75*
G02*
X127045000Y-108733000I0J200000D01*
G01*
X127045000Y-108183000D01*
G75*
G02*
X127245000Y-107983000I200000J0D01*
G01*
X127645000Y-107983000D01*
G75*
G02*
X127845000Y-108183000I0J-200000D01*
G01*
G37*
G36*
G01*
X129495000Y-108183000D02*
X129495000Y-108733000D01*
G75*
G02*
X129295000Y-108933000I-200000J0D01*
G01*
X128895000Y-108933000D01*
G75*
G02*
X128695000Y-108733000I0J200000D01*
G01*
X128695000Y-108183000D01*
G75*
G02*
X128895000Y-107983000I200000J0D01*
G01*
X129295000Y-107983000D01*
G75*
G02*
X129495000Y-108183000I0J-200000D01*
G01*
G37*
G36*
G01*
X133687000Y-105135000D02*
X133687000Y-105685000D01*
G75*
G02*
X133487000Y-105885000I-200000J0D01*
G01*
X133087000Y-105885000D01*
G75*
G02*
X132887000Y-105685000I0J200000D01*
G01*
X132887000Y-105135000D01*
G75*
G02*
X133087000Y-104935000I200000J0D01*
G01*
X133487000Y-104935000D01*
G75*
G02*
X133687000Y-105135000I0J-200000D01*
G01*
G37*
G36*
G01*
X135337000Y-105135000D02*
X135337000Y-105685000D01*
G75*
G02*
X135137000Y-105885000I-200000J0D01*
G01*
X134737000Y-105885000D01*
G75*
G02*
X134537000Y-105685000I0J200000D01*
G01*
X134537000Y-105135000D01*
G75*
G02*
X134737000Y-104935000I200000J0D01*
G01*
X135137000Y-104935000D01*
G75*
G02*
X135337000Y-105135000I0J-200000D01*
G01*
G37*
G36*
G01*
X124885000Y-94255000D02*
X124885000Y-93705000D01*
G75*
G02*
X125085000Y-93505000I200000J0D01*
G01*
X125485000Y-93505000D01*
G75*
G02*
X125685000Y-93705000I0J-200000D01*
G01*
X125685000Y-94255000D01*
G75*
G02*
X125485000Y-94455000I-200000J0D01*
G01*
X125085000Y-94455000D01*
G75*
G02*
X124885000Y-94255000I0J200000D01*
G01*
G37*
G36*
G01*
X123235000Y-94255000D02*
X123235000Y-93705000D01*
G75*
G02*
X123435000Y-93505000I200000J0D01*
G01*
X123835000Y-93505000D01*
G75*
G02*
X124035000Y-93705000I0J-200000D01*
G01*
X124035000Y-94255000D01*
G75*
G02*
X123835000Y-94455000I-200000J0D01*
G01*
X123435000Y-94455000D01*
G75*
G02*
X123235000Y-94255000I0J200000D01*
G01*
G37*
G36*
G01*
X131805000Y-115995000D02*
X132355000Y-115995000D01*
G75*
G02*
X132555000Y-116195000I0J-200000D01*
G01*
X132555000Y-116595000D01*
G75*
G02*
X132355000Y-116795000I-200000J0D01*
G01*
X131805000Y-116795000D01*
G75*
G02*
X131605000Y-116595000I0J200000D01*
G01*
X131605000Y-116195000D01*
G75*
G02*
X131805000Y-115995000I200000J0D01*
G01*
G37*
G36*
G01*
X131805000Y-114345000D02*
X132355000Y-114345000D01*
G75*
G02*
X132555000Y-114545000I0J-200000D01*
G01*
X132555000Y-114945000D01*
G75*
G02*
X132355000Y-115145000I-200000J0D01*
G01*
X131805000Y-115145000D01*
G75*
G02*
X131605000Y-114945000I0J200000D01*
G01*
X131605000Y-114545000D01*
G75*
G02*
X131805000Y-114345000I200000J0D01*
G01*
G37*
G36*
G01*
X130219000Y-114575000D02*
X130219000Y-114025000D01*
G75*
G02*
X130419000Y-113825000I200000J0D01*
G01*
X130819000Y-113825000D01*
G75*
G02*
X131019000Y-114025000I0J-200000D01*
G01*
X131019000Y-114575000D01*
G75*
G02*
X130819000Y-114775000I-200000J0D01*
G01*
X130419000Y-114775000D01*
G75*
G02*
X130219000Y-114575000I0J200000D01*
G01*
G37*
G36*
G01*
X128569000Y-114575000D02*
X128569000Y-114025000D01*
G75*
G02*
X128769000Y-113825000I200000J0D01*
G01*
X129169000Y-113825000D01*
G75*
G02*
X129369000Y-114025000I0J-200000D01*
G01*
X129369000Y-114575000D01*
G75*
G02*
X129169000Y-114775000I-200000J0D01*
G01*
X128769000Y-114775000D01*
G75*
G02*
X128569000Y-114575000I0J200000D01*
G01*
G37*
G36*
G01*
X125940000Y-114025000D02*
X125940000Y-114575000D01*
G75*
G02*
X125740000Y-114775000I-200000J0D01*
G01*
X125340000Y-114775000D01*
G75*
G02*
X125140000Y-114575000I0J200000D01*
G01*
X125140000Y-114025000D01*
G75*
G02*
X125340000Y-113825000I200000J0D01*
G01*
X125740000Y-113825000D01*
G75*
G02*
X125940000Y-114025000I0J-200000D01*
G01*
G37*
G36*
G01*
X127590000Y-114025000D02*
X127590000Y-114575000D01*
G75*
G02*
X127390000Y-114775000I-200000J0D01*
G01*
X126990000Y-114775000D01*
G75*
G02*
X126790000Y-114575000I0J200000D01*
G01*
X126790000Y-114025000D01*
G75*
G02*
X126990000Y-113825000I200000J0D01*
G01*
X127390000Y-113825000D01*
G75*
G02*
X127590000Y-114025000I0J-200000D01*
G01*
G37*
G36*
G01*
X134345000Y-112820000D02*
X134895000Y-112820000D01*
G75*
G02*
X135095000Y-113020000I0J-200000D01*
G01*
X135095000Y-113420000D01*
G75*
G02*
X134895000Y-113620000I-200000J0D01*
G01*
X134345000Y-113620000D01*
G75*
G02*
X134145000Y-113420000I0J200000D01*
G01*
X134145000Y-113020000D01*
G75*
G02*
X134345000Y-112820000I200000J0D01*
G01*
G37*
G36*
G01*
X134345000Y-111170000D02*
X134895000Y-111170000D01*
G75*
G02*
X135095000Y-111370000I0J-200000D01*
G01*
X135095000Y-111770000D01*
G75*
G02*
X134895000Y-111970000I-200000J0D01*
G01*
X134345000Y-111970000D01*
G75*
G02*
X134145000Y-111770000I0J200000D01*
G01*
X134145000Y-111370000D01*
G75*
G02*
X134345000Y-111170000I200000J0D01*
G01*
G37*
G36*
G01*
X134345000Y-109645000D02*
X134895000Y-109645000D01*
G75*
G02*
X135095000Y-109845000I0J-200000D01*
G01*
X135095000Y-110245000D01*
G75*
G02*
X134895000Y-110445000I-200000J0D01*
G01*
X134345000Y-110445000D01*
G75*
G02*
X134145000Y-110245000I0J200000D01*
G01*
X134145000Y-109845000D01*
G75*
G02*
X134345000Y-109645000I200000J0D01*
G01*
G37*
G36*
G01*
X134345000Y-107995000D02*
X134895000Y-107995000D01*
G75*
G02*
X135095000Y-108195000I0J-200000D01*
G01*
X135095000Y-108595000D01*
G75*
G02*
X134895000Y-108795000I-200000J0D01*
G01*
X134345000Y-108795000D01*
G75*
G02*
X134145000Y-108595000I0J200000D01*
G01*
X134145000Y-108195000D01*
G75*
G02*
X134345000Y-107995000I200000J0D01*
G01*
G37*
G36*
G01*
X132440000Y-108375000D02*
X132990000Y-108375000D01*
G75*
G02*
X133190000Y-108575000I0J-200000D01*
G01*
X133190000Y-108975000D01*
G75*
G02*
X132990000Y-109175000I-200000J0D01*
G01*
X132440000Y-109175000D01*
G75*
G02*
X132240000Y-108975000I0J200000D01*
G01*
X132240000Y-108575000D01*
G75*
G02*
X132440000Y-108375000I200000J0D01*
G01*
G37*
G36*
G01*
X132440000Y-106725000D02*
X132990000Y-106725000D01*
G75*
G02*
X133190000Y-106925000I0J-200000D01*
G01*
X133190000Y-107325000D01*
G75*
G02*
X132990000Y-107525000I-200000J0D01*
G01*
X132440000Y-107525000D01*
G75*
G02*
X132240000Y-107325000I0J200000D01*
G01*
X132240000Y-106925000D01*
G75*
G02*
X132440000Y-106725000I200000J0D01*
G01*
G37*
D28*
X129540000Y-89805000D03*
X130490000Y-91805000D03*
X128590000Y-91805000D03*
X124460000Y-89805000D03*
X125410000Y-91805000D03*
X123510000Y-91805000D03*
G36*
G01*
X121000000Y-88521250D02*
X121000000Y-88008750D01*
G75*
G02*
X121218750Y-87790000I218750J0D01*
G01*
X121656250Y-87790000D01*
G75*
G02*
X121875000Y-88008750I0J-218750D01*
G01*
X121875000Y-88521250D01*
G75*
G02*
X121656250Y-88740000I-218750J0D01*
G01*
X121218750Y-88740000D01*
G75*
G02*
X121000000Y-88521250I0J218750D01*
G01*
G37*
G36*
G01*
X119425000Y-88521250D02*
X119425000Y-88008750D01*
G75*
G02*
X119643750Y-87790000I218750J0D01*
G01*
X120081250Y-87790000D01*
G75*
G02*
X120300000Y-88008750I0J-218750D01*
G01*
X120300000Y-88521250D01*
G75*
G02*
X120081250Y-88740000I-218750J0D01*
G01*
X119643750Y-88740000D01*
G75*
G02*
X119425000Y-88521250I0J218750D01*
G01*
G37*
G36*
G01*
X114043750Y-94965000D02*
X114556250Y-94965000D01*
G75*
G02*
X114775000Y-95183750I0J-218750D01*
G01*
X114775000Y-95621250D01*
G75*
G02*
X114556250Y-95840000I-218750J0D01*
G01*
X114043750Y-95840000D01*
G75*
G02*
X113825000Y-95621250I0J218750D01*
G01*
X113825000Y-95183750D01*
G75*
G02*
X114043750Y-94965000I218750J0D01*
G01*
G37*
G36*
G01*
X114043750Y-93390000D02*
X114556250Y-93390000D01*
G75*
G02*
X114775000Y-93608750I0J-218750D01*
G01*
X114775000Y-94046250D01*
G75*
G02*
X114556250Y-94265000I-218750J0D01*
G01*
X114043750Y-94265000D01*
G75*
G02*
X113825000Y-94046250I0J218750D01*
G01*
X113825000Y-93608750D01*
G75*
G02*
X114043750Y-93390000I218750J0D01*
G01*
G37*
G36*
G01*
X117760000Y-91437750D02*
X117760000Y-91950250D01*
G75*
G02*
X117541250Y-92169000I-218750J0D01*
G01*
X117103750Y-92169000D01*
G75*
G02*
X116885000Y-91950250I0J218750D01*
G01*
X116885000Y-91437750D01*
G75*
G02*
X117103750Y-91219000I218750J0D01*
G01*
X117541250Y-91219000D01*
G75*
G02*
X117760000Y-91437750I0J-218750D01*
G01*
G37*
G36*
G01*
X119335000Y-91437750D02*
X119335000Y-91950250D01*
G75*
G02*
X119116250Y-92169000I-218750J0D01*
G01*
X118678750Y-92169000D01*
G75*
G02*
X118460000Y-91950250I0J218750D01*
G01*
X118460000Y-91437750D01*
G75*
G02*
X118678750Y-91219000I218750J0D01*
G01*
X119116250Y-91219000D01*
G75*
G02*
X119335000Y-91437750I0J-218750D01*
G01*
G37*
D29*
X121750000Y-112395000D03*
X119550000Y-112395000D03*
D30*
X119380000Y-85725000D03*
X118080000Y-85725000D03*
X120680000Y-85725000D03*
D19*
X147955000Y-102870000D03*
X145415000Y-102870000D03*
X147955000Y-100330000D03*
X145415000Y-100330000D03*
X147955000Y-97790000D03*
D18*
X145415000Y-97790000D03*
G36*
G01*
X146375000Y-94865000D02*
X146375000Y-94365000D01*
G75*
G02*
X146600000Y-94140000I225000J0D01*
G01*
X147050000Y-94140000D01*
G75*
G02*
X147275000Y-94365000I0J-225000D01*
G01*
X147275000Y-94865000D01*
G75*
G02*
X147050000Y-95090000I-225000J0D01*
G01*
X146600000Y-95090000D01*
G75*
G02*
X146375000Y-94865000I0J225000D01*
G01*
G37*
G36*
G01*
X144825000Y-94865000D02*
X144825000Y-94365000D01*
G75*
G02*
X145050000Y-94140000I225000J0D01*
G01*
X145500000Y-94140000D01*
G75*
G02*
X145725000Y-94365000I0J-225000D01*
G01*
X145725000Y-94865000D01*
G75*
G02*
X145500000Y-95090000I-225000J0D01*
G01*
X145050000Y-95090000D01*
G75*
G02*
X144825000Y-94865000I0J225000D01*
G01*
G37*
G36*
G01*
X116515000Y-88015000D02*
X116515000Y-88515000D01*
G75*
G02*
X116290000Y-88740000I-225000J0D01*
G01*
X115840000Y-88740000D01*
G75*
G02*
X115615000Y-88515000I0J225000D01*
G01*
X115615000Y-88015000D01*
G75*
G02*
X115840000Y-87790000I225000J0D01*
G01*
X116290000Y-87790000D01*
G75*
G02*
X116515000Y-88015000I0J-225000D01*
G01*
G37*
G36*
G01*
X118065000Y-88015000D02*
X118065000Y-88515000D01*
G75*
G02*
X117840000Y-88740000I-225000J0D01*
G01*
X117390000Y-88740000D01*
G75*
G02*
X117165000Y-88515000I0J225000D01*
G01*
X117165000Y-88015000D01*
G75*
G02*
X117390000Y-87790000I225000J0D01*
G01*
X117840000Y-87790000D01*
G75*
G02*
X118065000Y-88015000I0J-225000D01*
G01*
G37*
G36*
G01*
X117785000Y-89666000D02*
X117785000Y-90166000D01*
G75*
G02*
X117560000Y-90391000I-225000J0D01*
G01*
X117110000Y-90391000D01*
G75*
G02*
X116885000Y-90166000I0J225000D01*
G01*
X116885000Y-89666000D01*
G75*
G02*
X117110000Y-89441000I225000J0D01*
G01*
X117560000Y-89441000D01*
G75*
G02*
X117785000Y-89666000I0J-225000D01*
G01*
G37*
G36*
G01*
X119335000Y-89666000D02*
X119335000Y-90166000D01*
G75*
G02*
X119110000Y-90391000I-225000J0D01*
G01*
X118660000Y-90391000D01*
G75*
G02*
X118435000Y-90166000I0J225000D01*
G01*
X118435000Y-89666000D01*
G75*
G02*
X118660000Y-89441000I225000J0D01*
G01*
X119110000Y-89441000D01*
G75*
G02*
X119335000Y-89666000I0J-225000D01*
G01*
G37*
G36*
G01*
X114550000Y-87813000D02*
X114050000Y-87813000D01*
G75*
G02*
X113825000Y-87588000I0J225000D01*
G01*
X113825000Y-87138000D01*
G75*
G02*
X114050000Y-86913000I225000J0D01*
G01*
X114550000Y-86913000D01*
G75*
G02*
X114775000Y-87138000I0J-225000D01*
G01*
X114775000Y-87588000D01*
G75*
G02*
X114550000Y-87813000I-225000J0D01*
G01*
G37*
G36*
G01*
X114550000Y-89363000D02*
X114050000Y-89363000D01*
G75*
G02*
X113825000Y-89138000I0J225000D01*
G01*
X113825000Y-88688000D01*
G75*
G02*
X114050000Y-88463000I225000J0D01*
G01*
X114550000Y-88463000D01*
G75*
G02*
X114775000Y-88688000I0J-225000D01*
G01*
X114775000Y-89138000D01*
G75*
G02*
X114550000Y-89363000I-225000J0D01*
G01*
G37*
G36*
G01*
X115320000Y-91765000D02*
X115820000Y-91765000D01*
G75*
G02*
X116045000Y-91990000I0J-225000D01*
G01*
X116045000Y-92440000D01*
G75*
G02*
X115820000Y-92665000I-225000J0D01*
G01*
X115320000Y-92665000D01*
G75*
G02*
X115095000Y-92440000I0J225000D01*
G01*
X115095000Y-91990000D01*
G75*
G02*
X115320000Y-91765000I225000J0D01*
G01*
G37*
G36*
G01*
X115320000Y-90215000D02*
X115820000Y-90215000D01*
G75*
G02*
X116045000Y-90440000I0J-225000D01*
G01*
X116045000Y-90890000D01*
G75*
G02*
X115820000Y-91115000I-225000J0D01*
G01*
X115320000Y-91115000D01*
G75*
G02*
X115095000Y-90890000I0J225000D01*
G01*
X115095000Y-90440000D01*
G75*
G02*
X115320000Y-90215000I225000J0D01*
G01*
G37*
G36*
G01*
X114050000Y-98750000D02*
X114550000Y-98750000D01*
G75*
G02*
X114775000Y-98975000I0J-225000D01*
G01*
X114775000Y-99425000D01*
G75*
G02*
X114550000Y-99650000I-225000J0D01*
G01*
X114050000Y-99650000D01*
G75*
G02*
X113825000Y-99425000I0J225000D01*
G01*
X113825000Y-98975000D01*
G75*
G02*
X114050000Y-98750000I225000J0D01*
G01*
G37*
G36*
G01*
X114050000Y-97200000D02*
X114550000Y-97200000D01*
G75*
G02*
X114775000Y-97425000I0J-225000D01*
G01*
X114775000Y-97875000D01*
G75*
G02*
X114550000Y-98100000I-225000J0D01*
G01*
X114050000Y-98100000D01*
G75*
G02*
X113825000Y-97875000I0J225000D01*
G01*
X113825000Y-97425000D01*
G75*
G02*
X114050000Y-97200000I225000J0D01*
G01*
G37*
G36*
G01*
X144470000Y-112645000D02*
X144470000Y-112145000D01*
G75*
G02*
X144695000Y-111920000I225000J0D01*
G01*
X145145000Y-111920000D01*
G75*
G02*
X145370000Y-112145000I0J-225000D01*
G01*
X145370000Y-112645000D01*
G75*
G02*
X145145000Y-112870000I-225000J0D01*
G01*
X144695000Y-112870000D01*
G75*
G02*
X144470000Y-112645000I0J225000D01*
G01*
G37*
G36*
G01*
X142920000Y-112645000D02*
X142920000Y-112145000D01*
G75*
G02*
X143145000Y-111920000I225000J0D01*
G01*
X143595000Y-111920000D01*
G75*
G02*
X143820000Y-112145000I0J-225000D01*
G01*
X143820000Y-112645000D01*
G75*
G02*
X143595000Y-112870000I-225000J0D01*
G01*
X143145000Y-112870000D01*
G75*
G02*
X142920000Y-112645000I0J225000D01*
G01*
G37*
G36*
G01*
X133675000Y-90420000D02*
X133675000Y-89920000D01*
G75*
G02*
X133900000Y-89695000I225000J0D01*
G01*
X134350000Y-89695000D01*
G75*
G02*
X134575000Y-89920000I0J-225000D01*
G01*
X134575000Y-90420000D01*
G75*
G02*
X134350000Y-90645000I-225000J0D01*
G01*
X133900000Y-90645000D01*
G75*
G02*
X133675000Y-90420000I0J225000D01*
G01*
G37*
G36*
G01*
X132125000Y-90420000D02*
X132125000Y-89920000D01*
G75*
G02*
X132350000Y-89695000I225000J0D01*
G01*
X132800000Y-89695000D01*
G75*
G02*
X133025000Y-89920000I0J-225000D01*
G01*
X133025000Y-90420000D01*
G75*
G02*
X132800000Y-90645000I-225000J0D01*
G01*
X132350000Y-90645000D01*
G75*
G02*
X132125000Y-90420000I0J225000D01*
G01*
G37*
G36*
G01*
X134056000Y-94992000D02*
X134056000Y-94492000D01*
G75*
G02*
X134281000Y-94267000I225000J0D01*
G01*
X134731000Y-94267000D01*
G75*
G02*
X134956000Y-94492000I0J-225000D01*
G01*
X134956000Y-94992000D01*
G75*
G02*
X134731000Y-95217000I-225000J0D01*
G01*
X134281000Y-95217000D01*
G75*
G02*
X134056000Y-94992000I0J225000D01*
G01*
G37*
G36*
G01*
X132506000Y-94992000D02*
X132506000Y-94492000D01*
G75*
G02*
X132731000Y-94267000I225000J0D01*
G01*
X133181000Y-94267000D01*
G75*
G02*
X133406000Y-94492000I0J-225000D01*
G01*
X133406000Y-94992000D01*
G75*
G02*
X133181000Y-95217000I-225000J0D01*
G01*
X132731000Y-95217000D01*
G75*
G02*
X132506000Y-94992000I0J225000D01*
G01*
G37*
G36*
G01*
X133025000Y-102620000D02*
X133025000Y-103120000D01*
G75*
G02*
X132800000Y-103345000I-225000J0D01*
G01*
X132350000Y-103345000D01*
G75*
G02*
X132125000Y-103120000I0J225000D01*
G01*
X132125000Y-102620000D01*
G75*
G02*
X132350000Y-102395000I225000J0D01*
G01*
X132800000Y-102395000D01*
G75*
G02*
X133025000Y-102620000I0J-225000D01*
G01*
G37*
G36*
G01*
X134575000Y-102620000D02*
X134575000Y-103120000D01*
G75*
G02*
X134350000Y-103345000I-225000J0D01*
G01*
X133900000Y-103345000D01*
G75*
G02*
X133675000Y-103120000I0J225000D01*
G01*
X133675000Y-102620000D01*
G75*
G02*
X133900000Y-102395000I225000J0D01*
G01*
X134350000Y-102395000D01*
G75*
G02*
X134575000Y-102620000I0J-225000D01*
G01*
G37*
G36*
G01*
X118876000Y-102941000D02*
X119376000Y-102941000D01*
G75*
G02*
X119601000Y-103166000I0J-225000D01*
G01*
X119601000Y-103616000D01*
G75*
G02*
X119376000Y-103841000I-225000J0D01*
G01*
X118876000Y-103841000D01*
G75*
G02*
X118651000Y-103616000I0J225000D01*
G01*
X118651000Y-103166000D01*
G75*
G02*
X118876000Y-102941000I225000J0D01*
G01*
G37*
G36*
G01*
X118876000Y-101391000D02*
X119376000Y-101391000D01*
G75*
G02*
X119601000Y-101616000I0J-225000D01*
G01*
X119601000Y-102066000D01*
G75*
G02*
X119376000Y-102291000I-225000J0D01*
G01*
X118876000Y-102291000D01*
G75*
G02*
X118651000Y-102066000I0J225000D01*
G01*
X118651000Y-101616000D01*
G75*
G02*
X118876000Y-101391000I225000J0D01*
G01*
G37*
G36*
G01*
X120400000Y-94305000D02*
X120900000Y-94305000D01*
G75*
G02*
X121125000Y-94530000I0J-225000D01*
G01*
X121125000Y-94980000D01*
G75*
G02*
X120900000Y-95205000I-225000J0D01*
G01*
X120400000Y-95205000D01*
G75*
G02*
X120175000Y-94980000I0J225000D01*
G01*
X120175000Y-94530000D01*
G75*
G02*
X120400000Y-94305000I225000J0D01*
G01*
G37*
G36*
G01*
X120400000Y-92755000D02*
X120900000Y-92755000D01*
G75*
G02*
X121125000Y-92980000I0J-225000D01*
G01*
X121125000Y-93430000D01*
G75*
G02*
X120900000Y-93655000I-225000J0D01*
G01*
X120400000Y-93655000D01*
G75*
G02*
X120175000Y-93430000I0J225000D01*
G01*
X120175000Y-92980000D01*
G75*
G02*
X120400000Y-92755000I225000J0D01*
G01*
G37*
G36*
G01*
X117165000Y-105660000D02*
X117165000Y-105160000D01*
G75*
G02*
X117390000Y-104935000I225000J0D01*
G01*
X117840000Y-104935000D01*
G75*
G02*
X118065000Y-105160000I0J-225000D01*
G01*
X118065000Y-105660000D01*
G75*
G02*
X117840000Y-105885000I-225000J0D01*
G01*
X117390000Y-105885000D01*
G75*
G02*
X117165000Y-105660000I0J225000D01*
G01*
G37*
G36*
G01*
X115615000Y-105660000D02*
X115615000Y-105160000D01*
G75*
G02*
X115840000Y-104935000I225000J0D01*
G01*
X116290000Y-104935000D01*
G75*
G02*
X116515000Y-105160000I0J-225000D01*
G01*
X116515000Y-105660000D01*
G75*
G02*
X116290000Y-105885000I-225000J0D01*
G01*
X115840000Y-105885000D01*
G75*
G02*
X115615000Y-105660000I0J225000D01*
G01*
G37*
G36*
G01*
X123350000Y-115766000D02*
X124300000Y-115766000D01*
G75*
G02*
X124550000Y-116016000I0J-250000D01*
G01*
X124550000Y-116516000D01*
G75*
G02*
X124300000Y-116766000I-250000J0D01*
G01*
X123350000Y-116766000D01*
G75*
G02*
X123100000Y-116516000I0J250000D01*
G01*
X123100000Y-116016000D01*
G75*
G02*
X123350000Y-115766000I250000J0D01*
G01*
G37*
G36*
G01*
X123350000Y-113866000D02*
X124300000Y-113866000D01*
G75*
G02*
X124550000Y-114116000I0J-250000D01*
G01*
X124550000Y-114616000D01*
G75*
G02*
X124300000Y-114866000I-250000J0D01*
G01*
X123350000Y-114866000D01*
G75*
G02*
X123100000Y-114616000I0J250000D01*
G01*
X123100000Y-114116000D01*
G75*
G02*
X123350000Y-113866000I250000J0D01*
G01*
G37*
G36*
G01*
X133735000Y-115895000D02*
X134235000Y-115895000D01*
G75*
G02*
X134460000Y-116120000I0J-225000D01*
G01*
X134460000Y-116570000D01*
G75*
G02*
X134235000Y-116795000I-225000J0D01*
G01*
X133735000Y-116795000D01*
G75*
G02*
X133510000Y-116570000I0J225000D01*
G01*
X133510000Y-116120000D01*
G75*
G02*
X133735000Y-115895000I225000J0D01*
G01*
G37*
G36*
G01*
X133735000Y-114345000D02*
X134235000Y-114345000D01*
G75*
G02*
X134460000Y-114570000I0J-225000D01*
G01*
X134460000Y-115020000D01*
G75*
G02*
X134235000Y-115245000I-225000J0D01*
G01*
X133735000Y-115245000D01*
G75*
G02*
X133510000Y-115020000I0J225000D01*
G01*
X133510000Y-114570000D01*
G75*
G02*
X133735000Y-114345000I225000J0D01*
G01*
G37*
G36*
G01*
X132465000Y-112085000D02*
X132965000Y-112085000D01*
G75*
G02*
X133190000Y-112310000I0J-225000D01*
G01*
X133190000Y-112760000D01*
G75*
G02*
X132965000Y-112985000I-225000J0D01*
G01*
X132465000Y-112985000D01*
G75*
G02*
X132240000Y-112760000I0J225000D01*
G01*
X132240000Y-112310000D01*
G75*
G02*
X132465000Y-112085000I225000J0D01*
G01*
G37*
G36*
G01*
X132465000Y-110535000D02*
X132965000Y-110535000D01*
G75*
G02*
X133190000Y-110760000I0J-225000D01*
G01*
X133190000Y-111210000D01*
G75*
G02*
X132965000Y-111435000I-225000J0D01*
G01*
X132465000Y-111435000D01*
G75*
G02*
X132240000Y-111210000I0J225000D01*
G01*
X132240000Y-110760000D01*
G75*
G02*
X132465000Y-110535000I225000J0D01*
G01*
G37*
G36*
G01*
X121670000Y-108910000D02*
X122170000Y-108910000D01*
G75*
G02*
X122395000Y-109135000I0J-225000D01*
G01*
X122395000Y-109585000D01*
G75*
G02*
X122170000Y-109810000I-225000J0D01*
G01*
X121670000Y-109810000D01*
G75*
G02*
X121445000Y-109585000I0J225000D01*
G01*
X121445000Y-109135000D01*
G75*
G02*
X121670000Y-108910000I225000J0D01*
G01*
G37*
G36*
G01*
X121670000Y-107360000D02*
X122170000Y-107360000D01*
G75*
G02*
X122395000Y-107585000I0J-225000D01*
G01*
X122395000Y-108035000D01*
G75*
G02*
X122170000Y-108260000I-225000J0D01*
G01*
X121670000Y-108260000D01*
G75*
G02*
X121445000Y-108035000I0J225000D01*
G01*
X121445000Y-107585000D01*
G75*
G02*
X121670000Y-107360000I225000J0D01*
G01*
G37*
G36*
G01*
X115880000Y-116590000D02*
X115880000Y-117090000D01*
G75*
G02*
X115655000Y-117315000I-225000J0D01*
G01*
X115205000Y-117315000D01*
G75*
G02*
X114980000Y-117090000I0J225000D01*
G01*
X114980000Y-116590000D01*
G75*
G02*
X115205000Y-116365000I225000J0D01*
G01*
X115655000Y-116365000D01*
G75*
G02*
X115880000Y-116590000I0J-225000D01*
G01*
G37*
G36*
G01*
X117430000Y-116590000D02*
X117430000Y-117090000D01*
G75*
G02*
X117205000Y-117315000I-225000J0D01*
G01*
X116755000Y-117315000D01*
G75*
G02*
X116530000Y-117090000I0J225000D01*
G01*
X116530000Y-116590000D01*
G75*
G02*
X116755000Y-116365000I225000J0D01*
G01*
X117205000Y-116365000D01*
G75*
G02*
X117430000Y-116590000I0J-225000D01*
G01*
G37*
G36*
G01*
X115880000Y-112780000D02*
X115880000Y-113280000D01*
G75*
G02*
X115655000Y-113505000I-225000J0D01*
G01*
X115205000Y-113505000D01*
G75*
G02*
X114980000Y-113280000I0J225000D01*
G01*
X114980000Y-112780000D01*
G75*
G02*
X115205000Y-112555000I225000J0D01*
G01*
X115655000Y-112555000D01*
G75*
G02*
X115880000Y-112780000I0J-225000D01*
G01*
G37*
G36*
G01*
X117430000Y-112780000D02*
X117430000Y-113280000D01*
G75*
G02*
X117205000Y-113505000I-225000J0D01*
G01*
X116755000Y-113505000D01*
G75*
G02*
X116530000Y-113280000I0J225000D01*
G01*
X116530000Y-112780000D01*
G75*
G02*
X116755000Y-112555000I225000J0D01*
G01*
X117205000Y-112555000D01*
G75*
G02*
X117430000Y-112780000I0J-225000D01*
G01*
G37*
G36*
G01*
X115880000Y-114685000D02*
X115880000Y-115185000D01*
G75*
G02*
X115655000Y-115410000I-225000J0D01*
G01*
X115205000Y-115410000D01*
G75*
G02*
X114980000Y-115185000I0J225000D01*
G01*
X114980000Y-114685000D01*
G75*
G02*
X115205000Y-114460000I225000J0D01*
G01*
X115655000Y-114460000D01*
G75*
G02*
X115880000Y-114685000I0J-225000D01*
G01*
G37*
G36*
G01*
X117430000Y-114685000D02*
X117430000Y-115185000D01*
G75*
G02*
X117205000Y-115410000I-225000J0D01*
G01*
X116755000Y-115410000D01*
G75*
G02*
X116530000Y-115185000I0J225000D01*
G01*
X116530000Y-114685000D01*
G75*
G02*
X116755000Y-114460000I225000J0D01*
G01*
X117205000Y-114460000D01*
G75*
G02*
X117430000Y-114685000I0J-225000D01*
G01*
G37*
M02*
