%TF.GenerationSoftware,KiCad,Pcbnew,(5.1.9)-1*%
%TF.CreationDate,2021-06-03T20:59:13+02:00*%
%TF.ProjectId,HABakuk_v1.0,48414261-6b75-46b5-9f76-312e302e6b69,1.0*%
%TF.SameCoordinates,Original*%
%TF.FileFunction,Paste,Bot*%
%TF.FilePolarity,Positive*%
%FSLAX46Y46*%
G04 Gerber Fmt 4.6, Leading zero omitted, Abs format (unit mm)*
G04 Created by KiCad (PCBNEW (5.1.9)-1) date 2021-06-03 20:59:13*
%MOMM*%
%LPD*%
G01*
G04 APERTURE LIST*
G04 APERTURE END LIST*
%TO.C,U4*%
G36*
G01*
X129910000Y-99190000D02*
X129910000Y-98840000D01*
G75*
G02*
X130085000Y-98665000I175000J0D01*
G01*
X131535000Y-98665000D01*
G75*
G02*
X131710000Y-98840000I0J-175000D01*
G01*
X131710000Y-99190000D01*
G75*
G02*
X131535000Y-99365000I-175000J0D01*
G01*
X130085000Y-99365000D01*
G75*
G02*
X129910000Y-99190000I0J175000D01*
G01*
G37*
G36*
G01*
X129910000Y-98115000D02*
X129910000Y-97715000D01*
G75*
G02*
X130110000Y-97515000I200000J0D01*
G01*
X131510000Y-97515000D01*
G75*
G02*
X131710000Y-97715000I0J-200000D01*
G01*
X131710000Y-98115000D01*
G75*
G02*
X131510000Y-98315000I-200000J0D01*
G01*
X130110000Y-98315000D01*
G75*
G02*
X129910000Y-98115000I0J200000D01*
G01*
G37*
G36*
G01*
X129910000Y-97015000D02*
X129910000Y-96615000D01*
G75*
G02*
X130110000Y-96415000I200000J0D01*
G01*
X131510000Y-96415000D01*
G75*
G02*
X131710000Y-96615000I0J-200000D01*
G01*
X131710000Y-97015000D01*
G75*
G02*
X131510000Y-97215000I-200000J0D01*
G01*
X130110000Y-97215000D01*
G75*
G02*
X129910000Y-97015000I0J200000D01*
G01*
G37*
G36*
G01*
X129910000Y-95915000D02*
X129910000Y-95515000D01*
G75*
G02*
X130110000Y-95315000I200000J0D01*
G01*
X131510000Y-95315000D01*
G75*
G02*
X131710000Y-95515000I0J-200000D01*
G01*
X131710000Y-95915000D01*
G75*
G02*
X131510000Y-96115000I-200000J0D01*
G01*
X130110000Y-96115000D01*
G75*
G02*
X129910000Y-95915000I0J200000D01*
G01*
G37*
G36*
G01*
X129910000Y-94815000D02*
X129910000Y-94415000D01*
G75*
G02*
X130110000Y-94215000I200000J0D01*
G01*
X131510000Y-94215000D01*
G75*
G02*
X131710000Y-94415000I0J-200000D01*
G01*
X131710000Y-94815000D01*
G75*
G02*
X131510000Y-95015000I-200000J0D01*
G01*
X130110000Y-95015000D01*
G75*
G02*
X129910000Y-94815000I0J200000D01*
G01*
G37*
G36*
G01*
X129910000Y-93715000D02*
X129910000Y-93315000D01*
G75*
G02*
X130110000Y-93115000I200000J0D01*
G01*
X131510000Y-93115000D01*
G75*
G02*
X131710000Y-93315000I0J-200000D01*
G01*
X131710000Y-93715000D01*
G75*
G02*
X131510000Y-93915000I-200000J0D01*
G01*
X130110000Y-93915000D01*
G75*
G02*
X129910000Y-93715000I0J200000D01*
G01*
G37*
G36*
G01*
X129910000Y-92615000D02*
X129910000Y-92215000D01*
G75*
G02*
X130110000Y-92015000I200000J0D01*
G01*
X131510000Y-92015000D01*
G75*
G02*
X131710000Y-92215000I0J-200000D01*
G01*
X131710000Y-92615000D01*
G75*
G02*
X131510000Y-92815000I-200000J0D01*
G01*
X130110000Y-92815000D01*
G75*
G02*
X129910000Y-92615000I0J200000D01*
G01*
G37*
G36*
G01*
X129910000Y-91515000D02*
X129910000Y-91115000D01*
G75*
G02*
X130110000Y-90915000I200000J0D01*
G01*
X131510000Y-90915000D01*
G75*
G02*
X131710000Y-91115000I0J-200000D01*
G01*
X131710000Y-91515000D01*
G75*
G02*
X131510000Y-91715000I-200000J0D01*
G01*
X130110000Y-91715000D01*
G75*
G02*
X129910000Y-91515000I0J200000D01*
G01*
G37*
G36*
G01*
X129910000Y-90390000D02*
X129910000Y-90040000D01*
G75*
G02*
X130085000Y-89865000I175000J0D01*
G01*
X131535000Y-89865000D01*
G75*
G02*
X131710000Y-90040000I0J-175000D01*
G01*
X131710000Y-90390000D01*
G75*
G02*
X131535000Y-90565000I-175000J0D01*
G01*
X130085000Y-90565000D01*
G75*
G02*
X129910000Y-90390000I0J175000D01*
G01*
G37*
G36*
G01*
X120410000Y-90390000D02*
X120410000Y-90040000D01*
G75*
G02*
X120585000Y-89865000I175000J0D01*
G01*
X122035000Y-89865000D01*
G75*
G02*
X122210000Y-90040000I0J-175000D01*
G01*
X122210000Y-90390000D01*
G75*
G02*
X122035000Y-90565000I-175000J0D01*
G01*
X120585000Y-90565000D01*
G75*
G02*
X120410000Y-90390000I0J175000D01*
G01*
G37*
G36*
G01*
X120410000Y-91515000D02*
X120410000Y-91115000D01*
G75*
G02*
X120610000Y-90915000I200000J0D01*
G01*
X122010000Y-90915000D01*
G75*
G02*
X122210000Y-91115000I0J-200000D01*
G01*
X122210000Y-91515000D01*
G75*
G02*
X122010000Y-91715000I-200000J0D01*
G01*
X120610000Y-91715000D01*
G75*
G02*
X120410000Y-91515000I0J200000D01*
G01*
G37*
G36*
G01*
X120410000Y-92615000D02*
X120410000Y-92215000D01*
G75*
G02*
X120610000Y-92015000I200000J0D01*
G01*
X122010000Y-92015000D01*
G75*
G02*
X122210000Y-92215000I0J-200000D01*
G01*
X122210000Y-92615000D01*
G75*
G02*
X122010000Y-92815000I-200000J0D01*
G01*
X120610000Y-92815000D01*
G75*
G02*
X120410000Y-92615000I0J200000D01*
G01*
G37*
G36*
G01*
X120410000Y-93715000D02*
X120410000Y-93315000D01*
G75*
G02*
X120610000Y-93115000I200000J0D01*
G01*
X122010000Y-93115000D01*
G75*
G02*
X122210000Y-93315000I0J-200000D01*
G01*
X122210000Y-93715000D01*
G75*
G02*
X122010000Y-93915000I-200000J0D01*
G01*
X120610000Y-93915000D01*
G75*
G02*
X120410000Y-93715000I0J200000D01*
G01*
G37*
G36*
G01*
X120410000Y-94815000D02*
X120410000Y-94415000D01*
G75*
G02*
X120610000Y-94215000I200000J0D01*
G01*
X122010000Y-94215000D01*
G75*
G02*
X122210000Y-94415000I0J-200000D01*
G01*
X122210000Y-94815000D01*
G75*
G02*
X122010000Y-95015000I-200000J0D01*
G01*
X120610000Y-95015000D01*
G75*
G02*
X120410000Y-94815000I0J200000D01*
G01*
G37*
G36*
G01*
X120410000Y-95915000D02*
X120410000Y-95515000D01*
G75*
G02*
X120610000Y-95315000I200000J0D01*
G01*
X122010000Y-95315000D01*
G75*
G02*
X122210000Y-95515000I0J-200000D01*
G01*
X122210000Y-95915000D01*
G75*
G02*
X122010000Y-96115000I-200000J0D01*
G01*
X120610000Y-96115000D01*
G75*
G02*
X120410000Y-95915000I0J200000D01*
G01*
G37*
G36*
G01*
X120410000Y-97015000D02*
X120410000Y-96615000D01*
G75*
G02*
X120610000Y-96415000I200000J0D01*
G01*
X122010000Y-96415000D01*
G75*
G02*
X122210000Y-96615000I0J-200000D01*
G01*
X122210000Y-97015000D01*
G75*
G02*
X122010000Y-97215000I-200000J0D01*
G01*
X120610000Y-97215000D01*
G75*
G02*
X120410000Y-97015000I0J200000D01*
G01*
G37*
G36*
G01*
X120410000Y-98115000D02*
X120410000Y-97715000D01*
G75*
G02*
X120610000Y-97515000I200000J0D01*
G01*
X122010000Y-97515000D01*
G75*
G02*
X122210000Y-97715000I0J-200000D01*
G01*
X122210000Y-98115000D01*
G75*
G02*
X122010000Y-98315000I-200000J0D01*
G01*
X120610000Y-98315000D01*
G75*
G02*
X120410000Y-98115000I0J200000D01*
G01*
G37*
G36*
G01*
X120410000Y-99190000D02*
X120410000Y-98840000D01*
G75*
G02*
X120585000Y-98665000I175000J0D01*
G01*
X122035000Y-98665000D01*
G75*
G02*
X122210000Y-98840000I0J-175000D01*
G01*
X122210000Y-99190000D01*
G75*
G02*
X122035000Y-99365000I-175000J0D01*
G01*
X120585000Y-99365000D01*
G75*
G02*
X120410000Y-99190000I0J175000D01*
G01*
G37*
%TD*%
M02*
