%TF.GenerationSoftware,KiCad,Pcbnew,(5.1.9)-1*%
%TF.CreationDate,2021-06-03T20:59:13+02:00*%
%TF.ProjectId,HABakuk_v1.0,48414261-6b75-46b5-9f76-312e302e6b69,1.0*%
%TF.SameCoordinates,Original*%
%TF.FileFunction,Copper,L4,Bot*%
%TF.FilePolarity,Positive*%
%FSLAX46Y46*%
G04 Gerber Fmt 4.6, Leading zero omitted, Abs format (unit mm)*
G04 Created by KiCad (PCBNEW (5.1.9)-1) date 2021-06-03 20:59:13*
%MOMM*%
%LPD*%
G01*
G04 APERTURE LIST*
%TA.AperFunction,ComponentPad*%
%ADD10R,1.700000X1.700000*%
%TD*%
%TA.AperFunction,ComponentPad*%
%ADD11O,1.700000X1.700000*%
%TD*%
%TA.AperFunction,ViaPad*%
%ADD12C,0.800000*%
%TD*%
%TA.AperFunction,Conductor*%
%ADD13C,0.250000*%
%TD*%
G04 APERTURE END LIST*
D10*
%TO.P,J10,1*%
%TO.N,GND*%
X129540000Y-119380000D03*
%TD*%
%TO.P,J9,1*%
%TO.N,+3V3*%
X133350000Y-119380000D03*
%TD*%
%TO.P,J8,1*%
%TO.N,GND*%
X115570000Y-119380000D03*
%TD*%
%TO.P,J7,1*%
%TO.N,Net-(C1-Pad1)*%
X119380000Y-119380000D03*
%TD*%
%TO.P,J6,1*%
%TO.N,GND*%
X124460000Y-119380000D03*
%TD*%
%TO.P,J5,1*%
%TO.N,Net-(J5-Pad1)*%
X124460000Y-86995000D03*
%TD*%
D11*
%TO.P,J4,2*%
%TO.N,Net-(J4-Pad2)*%
X132715000Y-86995000D03*
D10*
%TO.P,J4,1*%
%TO.N,GND*%
X130175000Y-86995000D03*
%TD*%
D11*
%TO.P,J3,3*%
%TO.N,Net-(C15-Pad2)*%
X147955000Y-111760000D03*
%TO.P,J3,2*%
%TO.N,TXD*%
X147955000Y-109220000D03*
D10*
%TO.P,J3,1*%
%TO.N,RXD*%
X147955000Y-106680000D03*
%TD*%
D11*
%TO.P,J2,2*%
%TO.N,SDA*%
X144145000Y-109220000D03*
D10*
%TO.P,J2,1*%
%TO.N,SCL*%
X144145000Y-106680000D03*
%TD*%
%TO.P,U4,18*%
%TO.N,Net-(U4-Pad18)*%
%TA.AperFunction,SMDPad,CuDef*%
G36*
G01*
X129910000Y-99190000D02*
X129910000Y-98840000D01*
G75*
G02*
X130085000Y-98665000I175000J0D01*
G01*
X131535000Y-98665000D01*
G75*
G02*
X131710000Y-98840000I0J-175000D01*
G01*
X131710000Y-99190000D01*
G75*
G02*
X131535000Y-99365000I-175000J0D01*
G01*
X130085000Y-99365000D01*
G75*
G02*
X129910000Y-99190000I0J175000D01*
G01*
G37*
%TD.AperFunction*%
%TO.P,U4,17*%
%TO.N,Net-(U4-Pad17)*%
%TA.AperFunction,SMDPad,CuDef*%
G36*
G01*
X129910000Y-98115000D02*
X129910000Y-97715000D01*
G75*
G02*
X130110000Y-97515000I200000J0D01*
G01*
X131510000Y-97515000D01*
G75*
G02*
X131710000Y-97715000I0J-200000D01*
G01*
X131710000Y-98115000D01*
G75*
G02*
X131510000Y-98315000I-200000J0D01*
G01*
X130110000Y-98315000D01*
G75*
G02*
X129910000Y-98115000I0J200000D01*
G01*
G37*
%TD.AperFunction*%
%TO.P,U4,16*%
%TO.N,Net-(U4-Pad16)*%
%TA.AperFunction,SMDPad,CuDef*%
G36*
G01*
X129910000Y-97015000D02*
X129910000Y-96615000D01*
G75*
G02*
X130110000Y-96415000I200000J0D01*
G01*
X131510000Y-96415000D01*
G75*
G02*
X131710000Y-96615000I0J-200000D01*
G01*
X131710000Y-97015000D01*
G75*
G02*
X131510000Y-97215000I-200000J0D01*
G01*
X130110000Y-97215000D01*
G75*
G02*
X129910000Y-97015000I0J200000D01*
G01*
G37*
%TD.AperFunction*%
%TO.P,U4,15*%
%TO.N,Net-(U4-Pad15)*%
%TA.AperFunction,SMDPad,CuDef*%
G36*
G01*
X129910000Y-95915000D02*
X129910000Y-95515000D01*
G75*
G02*
X130110000Y-95315000I200000J0D01*
G01*
X131510000Y-95315000D01*
G75*
G02*
X131710000Y-95515000I0J-200000D01*
G01*
X131710000Y-95915000D01*
G75*
G02*
X131510000Y-96115000I-200000J0D01*
G01*
X130110000Y-96115000D01*
G75*
G02*
X129910000Y-95915000I0J200000D01*
G01*
G37*
%TD.AperFunction*%
%TO.P,U4,14*%
%TO.N,Net-(U4-Pad14)*%
%TA.AperFunction,SMDPad,CuDef*%
G36*
G01*
X129910000Y-94815000D02*
X129910000Y-94415000D01*
G75*
G02*
X130110000Y-94215000I200000J0D01*
G01*
X131510000Y-94215000D01*
G75*
G02*
X131710000Y-94415000I0J-200000D01*
G01*
X131710000Y-94815000D01*
G75*
G02*
X131510000Y-95015000I-200000J0D01*
G01*
X130110000Y-95015000D01*
G75*
G02*
X129910000Y-94815000I0J200000D01*
G01*
G37*
%TD.AperFunction*%
%TO.P,U4,13*%
%TO.N,Net-(U4-Pad13)*%
%TA.AperFunction,SMDPad,CuDef*%
G36*
G01*
X129910000Y-93715000D02*
X129910000Y-93315000D01*
G75*
G02*
X130110000Y-93115000I200000J0D01*
G01*
X131510000Y-93115000D01*
G75*
G02*
X131710000Y-93315000I0J-200000D01*
G01*
X131710000Y-93715000D01*
G75*
G02*
X131510000Y-93915000I-200000J0D01*
G01*
X130110000Y-93915000D01*
G75*
G02*
X129910000Y-93715000I0J200000D01*
G01*
G37*
%TD.AperFunction*%
%TO.P,U4,12*%
%TO.N,GND*%
%TA.AperFunction,SMDPad,CuDef*%
G36*
G01*
X129910000Y-92615000D02*
X129910000Y-92215000D01*
G75*
G02*
X130110000Y-92015000I200000J0D01*
G01*
X131510000Y-92015000D01*
G75*
G02*
X131710000Y-92215000I0J-200000D01*
G01*
X131710000Y-92615000D01*
G75*
G02*
X131510000Y-92815000I-200000J0D01*
G01*
X130110000Y-92815000D01*
G75*
G02*
X129910000Y-92615000I0J200000D01*
G01*
G37*
%TD.AperFunction*%
%TO.P,U4,11*%
%TO.N,Net-(J4-Pad2)*%
%TA.AperFunction,SMDPad,CuDef*%
G36*
G01*
X129910000Y-91515000D02*
X129910000Y-91115000D01*
G75*
G02*
X130110000Y-90915000I200000J0D01*
G01*
X131510000Y-90915000D01*
G75*
G02*
X131710000Y-91115000I0J-200000D01*
G01*
X131710000Y-91515000D01*
G75*
G02*
X131510000Y-91715000I-200000J0D01*
G01*
X130110000Y-91715000D01*
G75*
G02*
X129910000Y-91515000I0J200000D01*
G01*
G37*
%TD.AperFunction*%
%TO.P,U4,10*%
%TO.N,GND*%
%TA.AperFunction,SMDPad,CuDef*%
G36*
G01*
X129910000Y-90390000D02*
X129910000Y-90040000D01*
G75*
G02*
X130085000Y-89865000I175000J0D01*
G01*
X131535000Y-89865000D01*
G75*
G02*
X131710000Y-90040000I0J-175000D01*
G01*
X131710000Y-90390000D01*
G75*
G02*
X131535000Y-90565000I-175000J0D01*
G01*
X130085000Y-90565000D01*
G75*
G02*
X129910000Y-90390000I0J175000D01*
G01*
G37*
%TD.AperFunction*%
%TO.P,U4,9*%
%TO.N,Net-(C14-Pad1)*%
%TA.AperFunction,SMDPad,CuDef*%
G36*
G01*
X120410000Y-90390000D02*
X120410000Y-90040000D01*
G75*
G02*
X120585000Y-89865000I175000J0D01*
G01*
X122035000Y-89865000D01*
G75*
G02*
X122210000Y-90040000I0J-175000D01*
G01*
X122210000Y-90390000D01*
G75*
G02*
X122035000Y-90565000I-175000J0D01*
G01*
X120585000Y-90565000D01*
G75*
G02*
X120410000Y-90390000I0J175000D01*
G01*
G37*
%TD.AperFunction*%
%TO.P,U4,8*%
%TA.AperFunction,SMDPad,CuDef*%
G36*
G01*
X120410000Y-91515000D02*
X120410000Y-91115000D01*
G75*
G02*
X120610000Y-90915000I200000J0D01*
G01*
X122010000Y-90915000D01*
G75*
G02*
X122210000Y-91115000I0J-200000D01*
G01*
X122210000Y-91515000D01*
G75*
G02*
X122010000Y-91715000I-200000J0D01*
G01*
X120610000Y-91715000D01*
G75*
G02*
X120410000Y-91515000I0J200000D01*
G01*
G37*
%TD.AperFunction*%
%TO.P,U4,7*%
%TA.AperFunction,SMDPad,CuDef*%
G36*
G01*
X120410000Y-92615000D02*
X120410000Y-92215000D01*
G75*
G02*
X120610000Y-92015000I200000J0D01*
G01*
X122010000Y-92015000D01*
G75*
G02*
X122210000Y-92215000I0J-200000D01*
G01*
X122210000Y-92615000D01*
G75*
G02*
X122010000Y-92815000I-200000J0D01*
G01*
X120610000Y-92815000D01*
G75*
G02*
X120410000Y-92615000I0J200000D01*
G01*
G37*
%TD.AperFunction*%
%TO.P,U4,6*%
%TO.N,+3V3*%
%TA.AperFunction,SMDPad,CuDef*%
G36*
G01*
X120410000Y-93715000D02*
X120410000Y-93315000D01*
G75*
G02*
X120610000Y-93115000I200000J0D01*
G01*
X122010000Y-93115000D01*
G75*
G02*
X122210000Y-93315000I0J-200000D01*
G01*
X122210000Y-93715000D01*
G75*
G02*
X122010000Y-93915000I-200000J0D01*
G01*
X120610000Y-93915000D01*
G75*
G02*
X120410000Y-93715000I0J200000D01*
G01*
G37*
%TD.AperFunction*%
%TO.P,U4,5*%
%TO.N,Net-(U4-Pad5)*%
%TA.AperFunction,SMDPad,CuDef*%
G36*
G01*
X120410000Y-94815000D02*
X120410000Y-94415000D01*
G75*
G02*
X120610000Y-94215000I200000J0D01*
G01*
X122010000Y-94215000D01*
G75*
G02*
X122210000Y-94415000I0J-200000D01*
G01*
X122210000Y-94815000D01*
G75*
G02*
X122010000Y-95015000I-200000J0D01*
G01*
X120610000Y-95015000D01*
G75*
G02*
X120410000Y-94815000I0J200000D01*
G01*
G37*
%TD.AperFunction*%
%TO.P,U4,4*%
%TO.N,TIMEP*%
%TA.AperFunction,SMDPad,CuDef*%
G36*
G01*
X120410000Y-95915000D02*
X120410000Y-95515000D01*
G75*
G02*
X120610000Y-95315000I200000J0D01*
G01*
X122010000Y-95315000D01*
G75*
G02*
X122210000Y-95515000I0J-200000D01*
G01*
X122210000Y-95915000D01*
G75*
G02*
X122010000Y-96115000I-200000J0D01*
G01*
X120610000Y-96115000D01*
G75*
G02*
X120410000Y-95915000I0J200000D01*
G01*
G37*
%TD.AperFunction*%
%TO.P,U4,3*%
%TO.N,TXO*%
%TA.AperFunction,SMDPad,CuDef*%
G36*
G01*
X120410000Y-97015000D02*
X120410000Y-96615000D01*
G75*
G02*
X120610000Y-96415000I200000J0D01*
G01*
X122010000Y-96415000D01*
G75*
G02*
X122210000Y-96615000I0J-200000D01*
G01*
X122210000Y-97015000D01*
G75*
G02*
X122010000Y-97215000I-200000J0D01*
G01*
X120610000Y-97215000D01*
G75*
G02*
X120410000Y-97015000I0J200000D01*
G01*
G37*
%TD.AperFunction*%
%TO.P,U4,2*%
%TO.N,RXI*%
%TA.AperFunction,SMDPad,CuDef*%
G36*
G01*
X120410000Y-98115000D02*
X120410000Y-97715000D01*
G75*
G02*
X120610000Y-97515000I200000J0D01*
G01*
X122010000Y-97515000D01*
G75*
G02*
X122210000Y-97715000I0J-200000D01*
G01*
X122210000Y-98115000D01*
G75*
G02*
X122010000Y-98315000I-200000J0D01*
G01*
X120610000Y-98315000D01*
G75*
G02*
X120410000Y-98115000I0J200000D01*
G01*
G37*
%TD.AperFunction*%
%TO.P,U4,1*%
%TO.N,GND*%
%TA.AperFunction,SMDPad,CuDef*%
G36*
G01*
X120410000Y-99190000D02*
X120410000Y-98840000D01*
G75*
G02*
X120585000Y-98665000I175000J0D01*
G01*
X122035000Y-98665000D01*
G75*
G02*
X122210000Y-98840000I0J-175000D01*
G01*
X122210000Y-99190000D01*
G75*
G02*
X122035000Y-99365000I-175000J0D01*
G01*
X120585000Y-99365000D01*
G75*
G02*
X120410000Y-99190000I0J175000D01*
G01*
G37*
%TD.AperFunction*%
%TD*%
D11*
%TO.P,J1,6*%
%TO.N,MISO*%
X147955000Y-102870000D03*
%TO.P,J1,5*%
%TO.N,+3V3*%
X145415000Y-102870000D03*
%TO.P,J1,4*%
%TO.N,SCK*%
X147955000Y-100330000D03*
%TO.P,J1,3*%
%TO.N,MOSI*%
X145415000Y-100330000D03*
%TO.P,J1,2*%
%TO.N,DTR*%
X147955000Y-97790000D03*
D10*
%TO.P,J1,1*%
%TO.N,GND*%
X145415000Y-97790000D03*
%TD*%
D12*
%TO.N,GND*%
X134112000Y-92456000D03*
%TO.N,Net-(C7-Pad1)*%
X125984000Y-112522000D03*
X135890000Y-108458000D03*
%TO.N,Net-(C14-Pad1)*%
X126955000Y-90215000D03*
%TO.N,DTR*%
X131821347Y-105659347D03*
X127000000Y-107315000D03*
%TO.N,+3V3*%
X127000000Y-91694000D03*
X148590000Y-94488000D03*
X114808000Y-106934000D03*
X124219403Y-109206597D03*
X131380002Y-103595000D03*
X127508000Y-111506000D03*
X128524000Y-99060000D03*
%TO.N,MISO*%
X122936000Y-95504000D03*
%TO.N,SCK*%
X125730000Y-98806000D03*
%TO.N,MOSI*%
X124968000Y-95250000D03*
%TO.N,SDA*%
X125222000Y-108966000D03*
X124464653Y-102611347D03*
X119634000Y-99060000D03*
%TO.N,SCL*%
X130556000Y-107950000D03*
X119634000Y-100330000D03*
X125222000Y-104394000D03*
%TO.N,TXD*%
X128270000Y-107250002D03*
%TO.N,RXD*%
X126492000Y-104394000D03*
%TO.N,CLK0*%
X118110000Y-87122000D03*
X118296656Y-90953712D03*
%TO.N,TIMEP*%
X129789347Y-105659347D03*
X118618000Y-97028000D03*
%TO.N,TEMP*%
X117602000Y-107950000D03*
X123444000Y-104140000D03*
%TO.N,CLK2*%
X128524000Y-95975000D03*
X119380000Y-94234000D03*
%TO.N,RXI*%
X128016000Y-103632000D03*
X119888000Y-97536000D03*
%TO.N,TXO*%
X127254000Y-101600000D03*
X119888000Y-96266000D03*
%TO.N,Net-(C1-Pad1)*%
X131568654Y-107962651D03*
X120904000Y-110236000D03*
%TD*%
D13*
%TO.N,GND*%
X130810000Y-87630000D02*
X130175000Y-86995000D01*
X130810000Y-90215000D02*
X130810000Y-87630000D01*
X130810000Y-90215000D02*
X129495000Y-90215000D01*
X129495000Y-90215000D02*
X129032000Y-90678000D01*
X129910000Y-92415000D02*
X130810000Y-92415000D01*
X129032000Y-91537000D02*
X129910000Y-92415000D01*
X129032000Y-90678000D02*
X129032000Y-91537000D01*
X130851000Y-92456000D02*
X130810000Y-92415000D01*
X134112000Y-92456000D02*
X130851000Y-92456000D01*
X130267522Y-92415000D02*
X130810000Y-92415000D01*
X123667522Y-99015000D02*
X130267522Y-92415000D01*
X121310000Y-99015000D02*
X123667522Y-99015000D01*
%TO.N,Net-(C14-Pad1)*%
X121310000Y-92415000D02*
X121310000Y-91315000D01*
X121310000Y-91315000D02*
X121310000Y-90215000D01*
X121310000Y-90215000D02*
X126955000Y-90215000D01*
%TO.N,+3V3*%
X125179000Y-93515000D02*
X121310000Y-93515000D01*
X127000000Y-91694000D02*
X125179000Y-93515000D01*
X116840000Y-108966000D02*
X118283998Y-108966000D01*
X114808000Y-106934000D02*
X116840000Y-108966000D01*
X123978806Y-108966000D02*
X124219403Y-109206597D01*
X118283998Y-108966000D02*
X123978806Y-108966000D01*
X130692001Y-102906999D02*
X131380002Y-103595000D01*
X124496999Y-104045999D02*
X125635999Y-102906999D01*
X125947001Y-108428691D02*
X124496999Y-106978689D01*
X125947001Y-109314001D02*
X125947001Y-108428691D01*
X125570001Y-109691001D02*
X125947001Y-109314001D01*
X125635999Y-102906999D02*
X130692001Y-102906999D01*
X124703807Y-109691001D02*
X125570001Y-109691001D01*
X124496999Y-106978689D02*
X124496999Y-104045999D01*
X124219403Y-109206597D02*
X124703807Y-109691001D01*
X125693001Y-109691001D02*
X127508000Y-111506000D01*
X125570001Y-109691001D02*
X125693001Y-109691001D01*
X127544999Y-98080999D02*
X128524000Y-99060000D01*
X117892999Y-99662001D02*
X119285999Y-101055001D01*
X117892999Y-94647999D02*
X117892999Y-99662001D01*
X119285999Y-101055001D02*
X122263931Y-101055001D01*
X119031999Y-93508999D02*
X117892999Y-94647999D01*
X125237933Y-98080999D02*
X127544999Y-98080999D01*
X122263931Y-101055001D02*
X125237933Y-98080999D01*
X121303999Y-93508999D02*
X119031999Y-93508999D01*
X121310000Y-93515000D02*
X121303999Y-93508999D01*
%TO.N,SCK*%
X146779999Y-101505001D02*
X147955000Y-100330000D01*
X128429001Y-101505001D02*
X146779999Y-101505001D01*
X125730000Y-98806000D02*
X128429001Y-101505001D01*
%TO.N,TXD*%
X129271694Y-107250002D02*
X128270000Y-107250002D01*
X130349696Y-106426000D02*
X129271694Y-107250002D01*
X140716000Y-106426000D02*
X130349696Y-106426000D01*
X142358999Y-108044999D02*
X140716000Y-106426000D01*
X146779999Y-108044999D02*
X142358999Y-108044999D01*
X147955000Y-109220000D02*
X146779999Y-108044999D01*
%TO.N,RXD*%
X145669000Y-104394000D02*
X126492000Y-104394000D01*
X147955000Y-106680000D02*
X145669000Y-104394000D01*
%TO.N,Net-(J4-Pad2)*%
X132715000Y-90310000D02*
X132715000Y-86995000D01*
X131710000Y-91315000D02*
X132715000Y-90310000D01*
X130810000Y-91315000D02*
X131710000Y-91315000D01*
%TO.N,TIMEP*%
X121135999Y-95540999D02*
X121310000Y-95715000D01*
X118700226Y-95540999D02*
X121135999Y-95540999D01*
X118700226Y-96945774D02*
X118618000Y-97028000D01*
X118700226Y-95540999D02*
X118700226Y-96945774D01*
%TO.N,RXI*%
X120267000Y-97915000D02*
X121310000Y-97915000D01*
X119888000Y-97536000D02*
X120267000Y-97915000D01*
%TO.N,TXO*%
X120437000Y-96815000D02*
X121310000Y-96815000D01*
X119888000Y-96266000D02*
X120437000Y-96815000D01*
%TD*%
M02*
