G04 #@! TF.GenerationSoftware,KiCad,Pcbnew,(5.1.9)-1*
G04 #@! TF.CreationDate,2021-06-03T21:06:58+02:00*
G04 #@! TF.ProjectId,HABakuk_v1.0,48414261-6b75-46b5-9f76-312e302e6b69,1.0*
G04 #@! TF.SameCoordinates,Original*
G04 #@! TF.FileFunction,Legend,Bot*
G04 #@! TF.FilePolarity,Positive*
%FSLAX46Y46*%
G04 Gerber Fmt 4.6, Leading zero omitted, Abs format (unit mm)*
G04 Created by KiCad (PCBNEW (5.1.9)-1) date 2021-06-03 21:06:58*
%MOMM*%
%LPD*%
G01*
G04 APERTURE LIST*
%ADD10C,0.100000*%
%ADD11C,0.250000*%
%ADD12C,0.200000*%
%ADD13C,0.150000*%
%ADD14C,0.350000*%
%ADD15C,0.120000*%
%ADD16R,1.700000X1.700000*%
%ADD17O,1.700000X1.700000*%
%ADD18C,2.100000*%
G04 APERTURE END LIST*
D10*
G36*
X135890000Y-99822000D02*
G01*
X132842000Y-99822000D01*
X132842000Y-90424000D01*
X135890000Y-90424000D01*
X135890000Y-99822000D01*
G37*
X135890000Y-99822000D02*
X132842000Y-99822000D01*
X132842000Y-90424000D01*
X135890000Y-90424000D01*
X135890000Y-99822000D01*
D11*
X135100142Y-87447571D02*
X135171571Y-87590428D01*
X135171571Y-87876142D01*
X135100142Y-88019000D01*
X134957285Y-88090428D01*
X134885857Y-88090428D01*
X134743000Y-88019000D01*
X134671571Y-87876142D01*
X134671571Y-87661857D01*
X134600142Y-87519000D01*
X134457285Y-87447571D01*
X134385857Y-87447571D01*
X134243000Y-87519000D01*
X134171571Y-87661857D01*
X134171571Y-87876142D01*
X134243000Y-88019000D01*
X134171571Y-88661857D02*
X134171571Y-89733285D01*
X133528714Y-89090428D02*
X135457285Y-88661857D01*
X134814428Y-89590428D02*
X134814428Y-88519000D01*
X135457285Y-89161857D02*
X133528714Y-89590428D01*
D12*
X113960000Y-84870714D02*
X113960000Y-85585000D01*
X114388571Y-84727857D02*
X112888571Y-85227857D01*
X114388571Y-85727857D01*
X114388571Y-86227857D02*
X113388571Y-86227857D01*
X113531428Y-86227857D02*
X113460000Y-86299285D01*
X113388571Y-86442142D01*
X113388571Y-86656428D01*
X113460000Y-86799285D01*
X113602857Y-86870714D01*
X114388571Y-86870714D01*
X113602857Y-86870714D02*
X113460000Y-86942142D01*
X113388571Y-87085000D01*
X113388571Y-87299285D01*
X113460000Y-87442142D01*
X113602857Y-87513571D01*
X114388571Y-87513571D01*
X114388571Y-88870714D02*
X113602857Y-88870714D01*
X113460000Y-88799285D01*
X113388571Y-88656428D01*
X113388571Y-88370714D01*
X113460000Y-88227857D01*
X114317142Y-88870714D02*
X114388571Y-88727857D01*
X114388571Y-88370714D01*
X114317142Y-88227857D01*
X114174285Y-88156428D01*
X114031428Y-88156428D01*
X113888571Y-88227857D01*
X113817142Y-88370714D01*
X113817142Y-88727857D01*
X113745714Y-88870714D01*
X113388571Y-89370714D02*
X113388571Y-89942142D01*
X112888571Y-89585000D02*
X114174285Y-89585000D01*
X114317142Y-89656428D01*
X114388571Y-89799285D01*
X114388571Y-89942142D01*
X114317142Y-91013571D02*
X114388571Y-90870714D01*
X114388571Y-90585000D01*
X114317142Y-90442142D01*
X114174285Y-90370714D01*
X113602857Y-90370714D01*
X113460000Y-90442142D01*
X113388571Y-90585000D01*
X113388571Y-90870714D01*
X113460000Y-91013571D01*
X113602857Y-91085000D01*
X113745714Y-91085000D01*
X113888571Y-90370714D01*
X113388571Y-92370714D02*
X114388571Y-92370714D01*
X113388571Y-91727857D02*
X114174285Y-91727857D01*
X114317142Y-91799285D01*
X114388571Y-91942142D01*
X114388571Y-92156428D01*
X114317142Y-92299285D01*
X114245714Y-92370714D01*
X114388571Y-93085000D02*
X113388571Y-93085000D01*
X113674285Y-93085000D02*
X113531428Y-93156428D01*
X113460000Y-93227857D01*
X113388571Y-93370714D01*
X113388571Y-93513571D01*
X113388571Y-95156428D02*
X114888571Y-95156428D01*
X113460000Y-95156428D02*
X113388571Y-95299285D01*
X113388571Y-95585000D01*
X113460000Y-95727857D01*
X113531428Y-95799285D01*
X113674285Y-95870714D01*
X114102857Y-95870714D01*
X114245714Y-95799285D01*
X114317142Y-95727857D01*
X114388571Y-95585000D01*
X114388571Y-95299285D01*
X114317142Y-95156428D01*
X114388571Y-96513571D02*
X113388571Y-96513571D01*
X112888571Y-96513571D02*
X112960000Y-96442142D01*
X113031428Y-96513571D01*
X112960000Y-96585000D01*
X112888571Y-96513571D01*
X113031428Y-96513571D01*
X114317142Y-97870714D02*
X114388571Y-97727857D01*
X114388571Y-97442142D01*
X114317142Y-97299285D01*
X114245714Y-97227857D01*
X114102857Y-97156428D01*
X113674285Y-97156428D01*
X113531428Y-97227857D01*
X113460000Y-97299285D01*
X113388571Y-97442142D01*
X113388571Y-97727857D01*
X113460000Y-97870714D01*
X114388571Y-98727857D02*
X114317142Y-98585000D01*
X114245714Y-98513571D01*
X114102857Y-98442142D01*
X113674285Y-98442142D01*
X113531428Y-98513571D01*
X113460000Y-98585000D01*
X113388571Y-98727857D01*
X113388571Y-98942142D01*
X113460000Y-99085000D01*
X113531428Y-99156428D01*
X113674285Y-99227857D01*
X114102857Y-99227857D01*
X114245714Y-99156428D01*
X114317142Y-99085000D01*
X114388571Y-98942142D01*
X114388571Y-98727857D01*
X114388571Y-99870714D02*
X112888571Y-99870714D01*
X113460000Y-99870714D02*
X113388571Y-100013571D01*
X113388571Y-100299285D01*
X113460000Y-100442142D01*
X113531428Y-100513571D01*
X113674285Y-100585000D01*
X114102857Y-100585000D01*
X114245714Y-100513571D01*
X114317142Y-100442142D01*
X114388571Y-100299285D01*
X114388571Y-100013571D01*
X114317142Y-99870714D01*
X114388571Y-101870714D02*
X113602857Y-101870714D01*
X113460000Y-101799285D01*
X113388571Y-101656428D01*
X113388571Y-101370714D01*
X113460000Y-101227857D01*
X114317142Y-101870714D02*
X114388571Y-101727857D01*
X114388571Y-101370714D01*
X114317142Y-101227857D01*
X114174285Y-101156428D01*
X114031428Y-101156428D01*
X113888571Y-101227857D01*
X113817142Y-101370714D01*
X113817142Y-101727857D01*
X113745714Y-101870714D01*
X114388571Y-102799285D02*
X114317142Y-102656428D01*
X114174285Y-102585000D01*
X112888571Y-102585000D01*
X114388571Y-103585000D02*
X114317142Y-103442142D01*
X114174285Y-103370714D01*
X112888571Y-103370714D01*
X114388571Y-104370714D02*
X114317142Y-104227857D01*
X114245714Y-104156428D01*
X114102857Y-104085000D01*
X113674285Y-104085000D01*
X113531428Y-104156428D01*
X113460000Y-104227857D01*
X113388571Y-104370714D01*
X113388571Y-104585000D01*
X113460000Y-104727857D01*
X113531428Y-104799285D01*
X113674285Y-104870714D01*
X114102857Y-104870714D01*
X114245714Y-104799285D01*
X114317142Y-104727857D01*
X114388571Y-104585000D01*
X114388571Y-104370714D01*
X114388571Y-105727857D02*
X114317142Y-105585000D01*
X114245714Y-105513571D01*
X114102857Y-105442142D01*
X113674285Y-105442142D01*
X113531428Y-105513571D01*
X113460000Y-105585000D01*
X113388571Y-105727857D01*
X113388571Y-105942142D01*
X113460000Y-106085000D01*
X113531428Y-106156428D01*
X113674285Y-106227857D01*
X114102857Y-106227857D01*
X114245714Y-106156428D01*
X114317142Y-106085000D01*
X114388571Y-105942142D01*
X114388571Y-105727857D01*
X113388571Y-106870714D02*
X114388571Y-106870714D01*
X113531428Y-106870714D02*
X113460000Y-106942142D01*
X113388571Y-107085000D01*
X113388571Y-107299285D01*
X113460000Y-107442142D01*
X113602857Y-107513571D01*
X114388571Y-107513571D01*
X115838571Y-84727857D02*
X115838571Y-85299285D01*
X115338571Y-84942142D02*
X116624285Y-84942142D01*
X116767142Y-85013571D01*
X116838571Y-85156428D01*
X116838571Y-85299285D01*
X116838571Y-85799285D02*
X115838571Y-85799285D01*
X116124285Y-85799285D02*
X115981428Y-85870714D01*
X115910000Y-85942142D01*
X115838571Y-86085000D01*
X115838571Y-86227857D01*
X116838571Y-87370714D02*
X116052857Y-87370714D01*
X115910000Y-87299285D01*
X115838571Y-87156428D01*
X115838571Y-86870714D01*
X115910000Y-86727857D01*
X116767142Y-87370714D02*
X116838571Y-87227857D01*
X116838571Y-86870714D01*
X116767142Y-86727857D01*
X116624285Y-86656428D01*
X116481428Y-86656428D01*
X116338571Y-86727857D01*
X116267142Y-86870714D01*
X116267142Y-87227857D01*
X116195714Y-87370714D01*
X116767142Y-88727857D02*
X116838571Y-88585000D01*
X116838571Y-88299285D01*
X116767142Y-88156428D01*
X116695714Y-88085000D01*
X116552857Y-88013571D01*
X116124285Y-88013571D01*
X115981428Y-88085000D01*
X115910000Y-88156428D01*
X115838571Y-88299285D01*
X115838571Y-88585000D01*
X115910000Y-88727857D01*
X116838571Y-89370714D02*
X115338571Y-89370714D01*
X116267142Y-89513571D02*
X116838571Y-89942142D01*
X115838571Y-89942142D02*
X116410000Y-89370714D01*
X116767142Y-91156428D02*
X116838571Y-91013571D01*
X116838571Y-90727857D01*
X116767142Y-90585000D01*
X116624285Y-90513571D01*
X116052857Y-90513571D01*
X115910000Y-90585000D01*
X115838571Y-90727857D01*
X115838571Y-91013571D01*
X115910000Y-91156428D01*
X116052857Y-91227857D01*
X116195714Y-91227857D01*
X116338571Y-90513571D01*
X116838571Y-91870714D02*
X115838571Y-91870714D01*
X116124285Y-91870714D02*
X115981428Y-91942142D01*
X115910000Y-92013571D01*
X115838571Y-92156428D01*
X115838571Y-92299285D01*
D10*
G36*
X135255000Y-118110000D02*
G01*
X113665000Y-118110000D01*
X113665000Y-109220000D01*
X135255000Y-109220000D01*
X135255000Y-118110000D01*
G37*
X135255000Y-118110000D02*
X113665000Y-118110000D01*
X113665000Y-109220000D01*
X135255000Y-109220000D01*
X135255000Y-118110000D01*
D12*
X134111428Y-108628571D02*
X134825714Y-108628571D01*
X134825714Y-107128571D01*
X132968571Y-108628571D02*
X132968571Y-107842857D01*
X133040000Y-107700000D01*
X133182857Y-107628571D01*
X133468571Y-107628571D01*
X133611428Y-107700000D01*
X132968571Y-108557142D02*
X133111428Y-108628571D01*
X133468571Y-108628571D01*
X133611428Y-108557142D01*
X133682857Y-108414285D01*
X133682857Y-108271428D01*
X133611428Y-108128571D01*
X133468571Y-108057142D01*
X133111428Y-108057142D01*
X132968571Y-107985714D01*
X131611428Y-107628571D02*
X131611428Y-108628571D01*
X132254285Y-107628571D02*
X132254285Y-108414285D01*
X132182857Y-108557142D01*
X132040000Y-108628571D01*
X131825714Y-108628571D01*
X131682857Y-108557142D01*
X131611428Y-108485714D01*
X130897142Y-107628571D02*
X130897142Y-108628571D01*
X130897142Y-107771428D02*
X130825714Y-107700000D01*
X130682857Y-107628571D01*
X130468571Y-107628571D01*
X130325714Y-107700000D01*
X130254285Y-107842857D01*
X130254285Y-108628571D01*
X128897142Y-108557142D02*
X129040000Y-108628571D01*
X129325714Y-108628571D01*
X129468571Y-108557142D01*
X129540000Y-108485714D01*
X129611428Y-108342857D01*
X129611428Y-107914285D01*
X129540000Y-107771428D01*
X129468571Y-107700000D01*
X129325714Y-107628571D01*
X129040000Y-107628571D01*
X128897142Y-107700000D01*
X128254285Y-108628571D02*
X128254285Y-107128571D01*
X127611428Y-108628571D02*
X127611428Y-107842857D01*
X127682857Y-107700000D01*
X127825714Y-107628571D01*
X128040000Y-107628571D01*
X128182857Y-107700000D01*
X128254285Y-107771428D01*
X126325714Y-108557142D02*
X126468571Y-108628571D01*
X126754285Y-108628571D01*
X126897142Y-108557142D01*
X126968571Y-108414285D01*
X126968571Y-107842857D01*
X126897142Y-107700000D01*
X126754285Y-107628571D01*
X126468571Y-107628571D01*
X126325714Y-107700000D01*
X126254285Y-107842857D01*
X126254285Y-107985714D01*
X126968571Y-108128571D01*
X124968571Y-108628571D02*
X124968571Y-107128571D01*
X124968571Y-108557142D02*
X125111428Y-108628571D01*
X125397142Y-108628571D01*
X125540000Y-108557142D01*
X125611428Y-108485714D01*
X125682857Y-108342857D01*
X125682857Y-107914285D01*
X125611428Y-107771428D01*
X125540000Y-107700000D01*
X125397142Y-107628571D01*
X125111428Y-107628571D01*
X124968571Y-107700000D01*
X124254285Y-108485714D02*
X124182857Y-108557142D01*
X124254285Y-108628571D01*
X124325714Y-108557142D01*
X124254285Y-108485714D01*
X124254285Y-108628571D01*
X124254285Y-107700000D02*
X124182857Y-107771428D01*
X124254285Y-107842857D01*
X124325714Y-107771428D01*
X124254285Y-107700000D01*
X124254285Y-107842857D01*
D13*
X134896666Y-104402380D02*
X134896666Y-103402380D01*
X134563333Y-103735714D02*
X134182380Y-103735714D01*
X134420476Y-104402380D02*
X134420476Y-103545238D01*
X134372857Y-103450000D01*
X134277619Y-103402380D01*
X134182380Y-103402380D01*
X133230000Y-103735714D02*
X132849047Y-103735714D01*
X133087142Y-104402380D02*
X133087142Y-103545238D01*
X133039523Y-103450000D01*
X132944285Y-103402380D01*
X132849047Y-103402380D01*
X132372857Y-104402380D02*
X132468095Y-104354761D01*
X132515714Y-104307142D01*
X132563333Y-104211904D01*
X132563333Y-103926190D01*
X132515714Y-103830952D01*
X132468095Y-103783333D01*
X132372857Y-103735714D01*
X132230000Y-103735714D01*
X132134761Y-103783333D01*
X132087142Y-103830952D01*
X132039523Y-103926190D01*
X132039523Y-104211904D01*
X132087142Y-104307142D01*
X132134761Y-104354761D01*
X132230000Y-104402380D01*
X132372857Y-104402380D01*
X131182380Y-103735714D02*
X131182380Y-104402380D01*
X131610952Y-103735714D02*
X131610952Y-104259523D01*
X131563333Y-104354761D01*
X131468095Y-104402380D01*
X131325238Y-104402380D01*
X131230000Y-104354761D01*
X131182380Y-104307142D01*
X130706190Y-103735714D02*
X130706190Y-104402380D01*
X130706190Y-103830952D02*
X130658571Y-103783333D01*
X130563333Y-103735714D01*
X130420476Y-103735714D01*
X130325238Y-103783333D01*
X130277619Y-103878571D01*
X130277619Y-104402380D01*
X129372857Y-104402380D02*
X129372857Y-103402380D01*
X129372857Y-104354761D02*
X129468095Y-104402380D01*
X129658571Y-104402380D01*
X129753809Y-104354761D01*
X129801428Y-104307142D01*
X129849047Y-104211904D01*
X129849047Y-103926190D01*
X129801428Y-103830952D01*
X129753809Y-103783333D01*
X129658571Y-103735714D01*
X129468095Y-103735714D01*
X129372857Y-103783333D01*
X128849047Y-104354761D02*
X128849047Y-104402380D01*
X128896666Y-104497619D01*
X128944285Y-104545238D01*
X127658571Y-103735714D02*
X127658571Y-104735714D01*
X127658571Y-103783333D02*
X127563333Y-103735714D01*
X127372857Y-103735714D01*
X127277619Y-103783333D01*
X127230000Y-103830952D01*
X127182380Y-103926190D01*
X127182380Y-104211904D01*
X127230000Y-104307142D01*
X127277619Y-104354761D01*
X127372857Y-104402380D01*
X127563333Y-104402380D01*
X127658571Y-104354761D01*
X126610952Y-104402380D02*
X126706190Y-104354761D01*
X126753809Y-104259523D01*
X126753809Y-103402380D01*
X125849047Y-104354761D02*
X125944285Y-104402380D01*
X126134761Y-104402380D01*
X126230000Y-104354761D01*
X126277619Y-104259523D01*
X126277619Y-103878571D01*
X126230000Y-103783333D01*
X126134761Y-103735714D01*
X125944285Y-103735714D01*
X125849047Y-103783333D01*
X125801428Y-103878571D01*
X125801428Y-103973809D01*
X126277619Y-104069047D01*
X124944285Y-104402380D02*
X124944285Y-103878571D01*
X124991904Y-103783333D01*
X125087142Y-103735714D01*
X125277619Y-103735714D01*
X125372857Y-103783333D01*
X124944285Y-104354761D02*
X125039523Y-104402380D01*
X125277619Y-104402380D01*
X125372857Y-104354761D01*
X125420476Y-104259523D01*
X125420476Y-104164285D01*
X125372857Y-104069047D01*
X125277619Y-104021428D01*
X125039523Y-104021428D01*
X124944285Y-103973809D01*
X124515714Y-104354761D02*
X124420476Y-104402380D01*
X124230000Y-104402380D01*
X124134761Y-104354761D01*
X124087142Y-104259523D01*
X124087142Y-104211904D01*
X124134761Y-104116666D01*
X124230000Y-104069047D01*
X124372857Y-104069047D01*
X124468095Y-104021428D01*
X124515714Y-103926190D01*
X124515714Y-103878571D01*
X124468095Y-103783333D01*
X124372857Y-103735714D01*
X124230000Y-103735714D01*
X124134761Y-103783333D01*
X123277619Y-104354761D02*
X123372857Y-104402380D01*
X123563333Y-104402380D01*
X123658571Y-104354761D01*
X123706190Y-104259523D01*
X123706190Y-103878571D01*
X123658571Y-103783333D01*
X123563333Y-103735714D01*
X123372857Y-103735714D01*
X123277619Y-103783333D01*
X123230000Y-103878571D01*
X123230000Y-103973809D01*
X123706190Y-104069047D01*
X122039523Y-104402380D02*
X122039523Y-103735714D01*
X122039523Y-103830952D02*
X121991904Y-103783333D01*
X121896666Y-103735714D01*
X121753809Y-103735714D01*
X121658571Y-103783333D01*
X121610952Y-103878571D01*
X121610952Y-104402380D01*
X121610952Y-103878571D02*
X121563333Y-103783333D01*
X121468095Y-103735714D01*
X121325238Y-103735714D01*
X121230000Y-103783333D01*
X121182380Y-103878571D01*
X121182380Y-104402380D01*
X120277619Y-104402380D02*
X120277619Y-103878571D01*
X120325238Y-103783333D01*
X120420476Y-103735714D01*
X120610952Y-103735714D01*
X120706190Y-103783333D01*
X120277619Y-104354761D02*
X120372857Y-104402380D01*
X120610952Y-104402380D01*
X120706190Y-104354761D01*
X120753809Y-104259523D01*
X120753809Y-104164285D01*
X120706190Y-104069047D01*
X120610952Y-104021428D01*
X120372857Y-104021428D01*
X120277619Y-103973809D01*
X119801428Y-104402380D02*
X119801428Y-103735714D01*
X119801428Y-103402380D02*
X119849047Y-103450000D01*
X119801428Y-103497619D01*
X119753809Y-103450000D01*
X119801428Y-103402380D01*
X119801428Y-103497619D01*
X119182380Y-104402380D02*
X119277619Y-104354761D01*
X119325238Y-104259523D01*
X119325238Y-103402380D01*
X118182380Y-103735714D02*
X117801428Y-103735714D01*
X118039523Y-103402380D02*
X118039523Y-104259523D01*
X117991904Y-104354761D01*
X117896666Y-104402380D01*
X117801428Y-104402380D01*
X117325238Y-104402380D02*
X117420476Y-104354761D01*
X117468095Y-104307142D01*
X117515714Y-104211904D01*
X117515714Y-103926190D01*
X117468095Y-103830952D01*
X117420476Y-103783333D01*
X117325238Y-103735714D01*
X117182380Y-103735714D01*
X117087142Y-103783333D01*
X117039523Y-103830952D01*
X116991904Y-103926190D01*
X116991904Y-104211904D01*
X117039523Y-104307142D01*
X117087142Y-104354761D01*
X117182380Y-104402380D01*
X117325238Y-104402380D01*
X116563333Y-104307142D02*
X116515714Y-104354761D01*
X116563333Y-104402380D01*
X116610952Y-104354761D01*
X116563333Y-104307142D01*
X116563333Y-104402380D01*
X116563333Y-103783333D02*
X116515714Y-103830952D01*
X116563333Y-103878571D01*
X116610952Y-103830952D01*
X116563333Y-103783333D01*
X116563333Y-103878571D01*
X133134761Y-106004761D02*
X132991904Y-106052380D01*
X132753809Y-106052380D01*
X132658571Y-106004761D01*
X132610952Y-105957142D01*
X132563333Y-105861904D01*
X132563333Y-105766666D01*
X132610952Y-105671428D01*
X132658571Y-105623809D01*
X132753809Y-105576190D01*
X132944285Y-105528571D01*
X133039523Y-105480952D01*
X133087142Y-105433333D01*
X133134761Y-105338095D01*
X133134761Y-105242857D01*
X133087142Y-105147619D01*
X133039523Y-105100000D01*
X132944285Y-105052380D01*
X132706190Y-105052380D01*
X132563333Y-105100000D01*
X132134761Y-105528571D02*
X131801428Y-105528571D01*
X131658571Y-106052380D02*
X132134761Y-106052380D01*
X132134761Y-105052380D01*
X131658571Y-105052380D01*
X130658571Y-106052380D02*
X130991904Y-105576190D01*
X131230000Y-106052380D02*
X131230000Y-105052380D01*
X130849047Y-105052380D01*
X130753809Y-105100000D01*
X130706190Y-105147619D01*
X130658571Y-105242857D01*
X130658571Y-105385714D01*
X130706190Y-105480952D01*
X130753809Y-105528571D01*
X130849047Y-105576190D01*
X131230000Y-105576190D01*
X130039523Y-105576190D02*
X130039523Y-106052380D01*
X130372857Y-105052380D02*
X130039523Y-105576190D01*
X129706190Y-105052380D01*
X128801428Y-105957142D02*
X128849047Y-106004761D01*
X128991904Y-106052380D01*
X129087142Y-106052380D01*
X129230000Y-106004761D01*
X129325238Y-105909523D01*
X129372857Y-105814285D01*
X129420476Y-105623809D01*
X129420476Y-105480952D01*
X129372857Y-105290476D01*
X129325238Y-105195238D01*
X129230000Y-105100000D01*
X129087142Y-105052380D01*
X128991904Y-105052380D01*
X128849047Y-105100000D01*
X128801428Y-105147619D01*
X128372857Y-106052380D02*
X128372857Y-105052380D01*
X128372857Y-105528571D02*
X127801428Y-105528571D01*
X127801428Y-106052380D02*
X127801428Y-105052380D01*
X126706190Y-105576190D02*
X126753809Y-105528571D01*
X126849047Y-105480952D01*
X126944285Y-105480952D01*
X127039523Y-105528571D01*
X127087142Y-105576190D01*
X127134761Y-105671428D01*
X127134761Y-105766666D01*
X127087142Y-105861904D01*
X127039523Y-105909523D01*
X126944285Y-105957142D01*
X126849047Y-105957142D01*
X126753809Y-105909523D01*
X126706190Y-105861904D01*
X126706190Y-105480952D02*
X126706190Y-105861904D01*
X126658571Y-105909523D01*
X126610952Y-105909523D01*
X126515714Y-105861904D01*
X126468095Y-105766666D01*
X126468095Y-105528571D01*
X126563333Y-105385714D01*
X126706190Y-105290476D01*
X126896666Y-105242857D01*
X127087142Y-105290476D01*
X127230000Y-105385714D01*
X127325238Y-105528571D01*
X127372857Y-105719047D01*
X127325238Y-105909523D01*
X127230000Y-106052380D01*
X127087142Y-106147619D01*
X126896666Y-106195238D01*
X126706190Y-106147619D01*
X126563333Y-106052380D01*
X126039523Y-106052380D02*
X126039523Y-105052380D01*
X125658571Y-105052380D01*
X125563333Y-105100000D01*
X125515714Y-105147619D01*
X125468095Y-105242857D01*
X125468095Y-105385714D01*
X125515714Y-105480952D01*
X125563333Y-105528571D01*
X125658571Y-105576190D01*
X126039523Y-105576190D01*
X125087142Y-105766666D02*
X124610952Y-105766666D01*
X125182380Y-106052380D02*
X124849047Y-105052380D01*
X124515714Y-106052380D01*
X124182380Y-106052380D02*
X124182380Y-105052380D01*
X123610952Y-106052380D01*
X123610952Y-105052380D01*
X123182380Y-106004761D02*
X123039523Y-106052380D01*
X122801428Y-106052380D01*
X122706190Y-106004761D01*
X122658571Y-105957142D01*
X122610952Y-105861904D01*
X122610952Y-105766666D01*
X122658571Y-105671428D01*
X122706190Y-105623809D01*
X122801428Y-105576190D01*
X122991904Y-105528571D01*
X123087142Y-105480952D01*
X123134761Y-105433333D01*
X123182380Y-105338095D01*
X123182380Y-105242857D01*
X123134761Y-105147619D01*
X123087142Y-105100000D01*
X122991904Y-105052380D01*
X122753809Y-105052380D01*
X122610952Y-105100000D01*
X122182380Y-106052380D02*
X122182380Y-105052380D01*
X121610952Y-106052380D02*
X122039523Y-105480952D01*
X121610952Y-105052380D02*
X122182380Y-105623809D01*
X121230000Y-105766666D02*
X120753809Y-105766666D01*
X121325238Y-106052380D02*
X120991904Y-105052380D01*
X120658571Y-106052380D01*
X120325238Y-105957142D02*
X120277619Y-106004761D01*
X120325238Y-106052380D01*
X120372857Y-106004761D01*
X120325238Y-105957142D01*
X120325238Y-106052380D01*
X119277619Y-105957142D02*
X119325238Y-106004761D01*
X119468095Y-106052380D01*
X119563333Y-106052380D01*
X119706190Y-106004761D01*
X119801428Y-105909523D01*
X119849047Y-105814285D01*
X119896666Y-105623809D01*
X119896666Y-105480952D01*
X119849047Y-105290476D01*
X119801428Y-105195238D01*
X119706190Y-105100000D01*
X119563333Y-105052380D01*
X119468095Y-105052380D01*
X119325238Y-105100000D01*
X119277619Y-105147619D01*
X118944285Y-105052380D02*
X118277619Y-105052380D01*
X118944285Y-106052380D01*
X118277619Y-106052380D01*
D12*
X132416428Y-102278571D02*
X132416428Y-100778571D01*
X132416428Y-101492857D02*
X131559285Y-101492857D01*
X131559285Y-102278571D02*
X131559285Y-100778571D01*
X130916428Y-101850000D02*
X130202142Y-101850000D01*
X131059285Y-102278571D02*
X130559285Y-100778571D01*
X130059285Y-102278571D01*
X129059285Y-101492857D02*
X128845000Y-101564285D01*
X128773571Y-101635714D01*
X128702142Y-101778571D01*
X128702142Y-101992857D01*
X128773571Y-102135714D01*
X128845000Y-102207142D01*
X128987857Y-102278571D01*
X129559285Y-102278571D01*
X129559285Y-100778571D01*
X129059285Y-100778571D01*
X128916428Y-100850000D01*
X128845000Y-100921428D01*
X128773571Y-101064285D01*
X128773571Y-101207142D01*
X128845000Y-101350000D01*
X128916428Y-101421428D01*
X129059285Y-101492857D01*
X129559285Y-101492857D01*
X127416428Y-102278571D02*
X127416428Y-101492857D01*
X127487857Y-101350000D01*
X127630714Y-101278571D01*
X127916428Y-101278571D01*
X128059285Y-101350000D01*
X127416428Y-102207142D02*
X127559285Y-102278571D01*
X127916428Y-102278571D01*
X128059285Y-102207142D01*
X128130714Y-102064285D01*
X128130714Y-101921428D01*
X128059285Y-101778571D01*
X127916428Y-101707142D01*
X127559285Y-101707142D01*
X127416428Y-101635714D01*
X126702142Y-102278571D02*
X126702142Y-100778571D01*
X126559285Y-101707142D02*
X126130714Y-102278571D01*
X126130714Y-101278571D02*
X126702142Y-101850000D01*
X124845000Y-101278571D02*
X124845000Y-102278571D01*
X125487857Y-101278571D02*
X125487857Y-102064285D01*
X125416428Y-102207142D01*
X125273571Y-102278571D01*
X125059285Y-102278571D01*
X124916428Y-102207142D01*
X124845000Y-102135714D01*
X124130714Y-102278571D02*
X124130714Y-100778571D01*
X123987857Y-101707142D02*
X123559285Y-102278571D01*
X123559285Y-101278571D02*
X124130714Y-101850000D01*
X121916428Y-101278571D02*
X121559285Y-102278571D01*
X121202142Y-101278571D01*
X119845000Y-102278571D02*
X120702142Y-102278571D01*
X120273571Y-102278571D02*
X120273571Y-100778571D01*
X120416428Y-100992857D01*
X120559285Y-101135714D01*
X120702142Y-101207142D01*
X119202142Y-102135714D02*
X119130714Y-102207142D01*
X119202142Y-102278571D01*
X119273571Y-102207142D01*
X119202142Y-102135714D01*
X119202142Y-102278571D01*
X118202142Y-100778571D02*
X118059285Y-100778571D01*
X117916428Y-100850000D01*
X117845000Y-100921428D01*
X117773571Y-101064285D01*
X117702142Y-101350000D01*
X117702142Y-101707142D01*
X117773571Y-101992857D01*
X117845000Y-102135714D01*
X117916428Y-102207142D01*
X118059285Y-102278571D01*
X118202142Y-102278571D01*
X118345000Y-102207142D01*
X118416428Y-102135714D01*
X118487857Y-101992857D01*
X118559285Y-101707142D01*
X118559285Y-101350000D01*
X118487857Y-101064285D01*
X118416428Y-100921428D01*
X118345000Y-100850000D01*
X118202142Y-100778571D01*
D13*
X134365952Y-121356428D02*
X133604047Y-121356428D01*
X133985000Y-121737380D02*
X133985000Y-120975476D01*
X129285952Y-121356428D02*
X128524047Y-121356428D01*
X120395952Y-121356428D02*
X119634047Y-121356428D01*
X120015000Y-121737380D02*
X120015000Y-120975476D01*
X115315952Y-121356428D02*
X114554047Y-121356428D01*
X132064047Y-121642142D02*
X132111666Y-121689761D01*
X132254523Y-121737380D01*
X132349761Y-121737380D01*
X132492619Y-121689761D01*
X132587857Y-121594523D01*
X132635476Y-121499285D01*
X132683095Y-121308809D01*
X132683095Y-121165952D01*
X132635476Y-120975476D01*
X132587857Y-120880238D01*
X132492619Y-120785000D01*
X132349761Y-120737380D01*
X132254523Y-120737380D01*
X132111666Y-120785000D01*
X132064047Y-120832619D01*
X131683095Y-121451666D02*
X131206904Y-121451666D01*
X131778333Y-121737380D02*
X131445000Y-120737380D01*
X131111666Y-121737380D01*
X130778333Y-121737380D02*
X130778333Y-120737380D01*
X130397380Y-120737380D01*
X130302142Y-120785000D01*
X130254523Y-120832619D01*
X130206904Y-120927857D01*
X130206904Y-121070714D01*
X130254523Y-121165952D01*
X130302142Y-121213571D01*
X130397380Y-121261190D01*
X130778333Y-121261190D01*
X118689285Y-121689761D02*
X118546428Y-121737380D01*
X118308333Y-121737380D01*
X118213095Y-121689761D01*
X118165476Y-121642142D01*
X118117857Y-121546904D01*
X118117857Y-121451666D01*
X118165476Y-121356428D01*
X118213095Y-121308809D01*
X118308333Y-121261190D01*
X118498809Y-121213571D01*
X118594047Y-121165952D01*
X118641666Y-121118333D01*
X118689285Y-121023095D01*
X118689285Y-120927857D01*
X118641666Y-120832619D01*
X118594047Y-120785000D01*
X118498809Y-120737380D01*
X118260714Y-120737380D01*
X118117857Y-120785000D01*
X117498809Y-120737380D02*
X117308333Y-120737380D01*
X117213095Y-120785000D01*
X117117857Y-120880238D01*
X117070238Y-121070714D01*
X117070238Y-121404047D01*
X117117857Y-121594523D01*
X117213095Y-121689761D01*
X117308333Y-121737380D01*
X117498809Y-121737380D01*
X117594047Y-121689761D01*
X117689285Y-121594523D01*
X117736904Y-121404047D01*
X117736904Y-121070714D01*
X117689285Y-120880238D01*
X117594047Y-120785000D01*
X117498809Y-120737380D01*
X116165476Y-121737380D02*
X116641666Y-121737380D01*
X116641666Y-120737380D01*
X125602857Y-121451666D02*
X125126666Y-121451666D01*
X125698095Y-121737380D02*
X125364761Y-120737380D01*
X125031428Y-121737380D01*
X124698095Y-121737380D02*
X124698095Y-120737380D01*
X124126666Y-121737380D01*
X124126666Y-120737380D01*
X123793333Y-120737380D02*
X123221904Y-120737380D01*
X123507619Y-121737380D02*
X123507619Y-120737380D01*
X133730714Y-84590000D02*
X133825952Y-84542380D01*
X133968809Y-84542380D01*
X134111666Y-84590000D01*
X134206904Y-84685238D01*
X134254523Y-84780476D01*
X134302142Y-84970952D01*
X134302142Y-85113809D01*
X134254523Y-85304285D01*
X134206904Y-85399523D01*
X134111666Y-85494761D01*
X133968809Y-85542380D01*
X133873571Y-85542380D01*
X133730714Y-85494761D01*
X133683095Y-85447142D01*
X133683095Y-85113809D01*
X133873571Y-85113809D01*
X133254523Y-85542380D02*
X133254523Y-84542380D01*
X132873571Y-84542380D01*
X132778333Y-84590000D01*
X132730714Y-84637619D01*
X132683095Y-84732857D01*
X132683095Y-84875714D01*
X132730714Y-84970952D01*
X132778333Y-85018571D01*
X132873571Y-85066190D01*
X133254523Y-85066190D01*
X132302142Y-85494761D02*
X132159285Y-85542380D01*
X131921190Y-85542380D01*
X131825952Y-85494761D01*
X131778333Y-85447142D01*
X131730714Y-85351904D01*
X131730714Y-85256666D01*
X131778333Y-85161428D01*
X131825952Y-85113809D01*
X131921190Y-85066190D01*
X132111666Y-85018571D01*
X132206904Y-84970952D01*
X132254523Y-84923333D01*
X132302142Y-84828095D01*
X132302142Y-84732857D01*
X132254523Y-84637619D01*
X132206904Y-84590000D01*
X132111666Y-84542380D01*
X131873571Y-84542380D01*
X131730714Y-84590000D01*
X130111666Y-85542380D02*
X130111666Y-85018571D01*
X130159285Y-84923333D01*
X130254523Y-84875714D01*
X130445000Y-84875714D01*
X130540238Y-84923333D01*
X130111666Y-85494761D02*
X130206904Y-85542380D01*
X130445000Y-85542380D01*
X130540238Y-85494761D01*
X130587857Y-85399523D01*
X130587857Y-85304285D01*
X130540238Y-85209047D01*
X130445000Y-85161428D01*
X130206904Y-85161428D01*
X130111666Y-85113809D01*
X129635476Y-84875714D02*
X129635476Y-85542380D01*
X129635476Y-84970952D02*
X129587857Y-84923333D01*
X129492619Y-84875714D01*
X129349761Y-84875714D01*
X129254523Y-84923333D01*
X129206904Y-85018571D01*
X129206904Y-85542380D01*
X128873571Y-84875714D02*
X128492619Y-84875714D01*
X128730714Y-84542380D02*
X128730714Y-85399523D01*
X128683095Y-85494761D01*
X128587857Y-85542380D01*
X128492619Y-85542380D01*
X125602857Y-85256666D02*
X125126666Y-85256666D01*
X125698095Y-85542380D02*
X125364761Y-84542380D01*
X125031428Y-85542380D01*
X124698095Y-85542380D02*
X124698095Y-84542380D01*
X124126666Y-85542380D01*
X124126666Y-84542380D01*
X123793333Y-84542380D02*
X123221904Y-84542380D01*
X123507619Y-85542380D02*
X123507619Y-84542380D01*
D11*
X127793571Y-92980000D02*
X127984047Y-92884761D01*
X128269761Y-92884761D01*
X128555476Y-92980000D01*
X128745952Y-93170476D01*
X128841190Y-93360952D01*
X128936428Y-93741904D01*
X128936428Y-94027619D01*
X128841190Y-94408571D01*
X128745952Y-94599047D01*
X128555476Y-94789523D01*
X128269761Y-94884761D01*
X128079285Y-94884761D01*
X127793571Y-94789523D01*
X127698333Y-94694285D01*
X127698333Y-94027619D01*
X128079285Y-94027619D01*
X126841190Y-94884761D02*
X126841190Y-92884761D01*
X126079285Y-92884761D01*
X125888809Y-92980000D01*
X125793571Y-93075238D01*
X125698333Y-93265714D01*
X125698333Y-93551428D01*
X125793571Y-93741904D01*
X125888809Y-93837142D01*
X126079285Y-93932380D01*
X126841190Y-93932380D01*
X124936428Y-94789523D02*
X124650714Y-94884761D01*
X124174523Y-94884761D01*
X123984047Y-94789523D01*
X123888809Y-94694285D01*
X123793571Y-94503809D01*
X123793571Y-94313333D01*
X123888809Y-94122857D01*
X123984047Y-94027619D01*
X124174523Y-93932380D01*
X124555476Y-93837142D01*
X124745952Y-93741904D01*
X124841190Y-93646666D01*
X124936428Y-93456190D01*
X124936428Y-93265714D01*
X124841190Y-93075238D01*
X124745952Y-92980000D01*
X124555476Y-92884761D01*
X124079285Y-92884761D01*
X123793571Y-92980000D01*
D14*
X138430000Y-99060000D02*
X138430000Y-107315000D01*
D15*
X121100000Y-99775000D02*
X131020000Y-99775000D01*
X121100000Y-89455000D02*
X131020000Y-89455000D01*
X131020000Y-89605000D02*
X131020000Y-89455000D01*
X121100000Y-89605000D02*
X121100000Y-89455000D01*
X131020000Y-99775000D02*
X131020000Y-99625000D01*
X121100000Y-99775000D02*
X121100000Y-99625000D01*
X120410000Y-99625000D02*
X121100000Y-99625000D01*
%LPC*%
D16*
X129540000Y-119380000D03*
X133350000Y-119380000D03*
X115570000Y-119380000D03*
X119380000Y-119380000D03*
X124460000Y-119380000D03*
X124460000Y-86995000D03*
D17*
X132715000Y-86995000D03*
D16*
X130175000Y-86995000D03*
D17*
X147955000Y-111760000D03*
X147955000Y-109220000D03*
D16*
X147955000Y-106680000D03*
D17*
X144145000Y-109220000D03*
D16*
X144145000Y-106680000D03*
D18*
X124460000Y-123825000D03*
X124460000Y-82550000D03*
G36*
G01*
X129910000Y-99190000D02*
X129910000Y-98840000D01*
G75*
G02*
X130085000Y-98665000I175000J0D01*
G01*
X131535000Y-98665000D01*
G75*
G02*
X131710000Y-98840000I0J-175000D01*
G01*
X131710000Y-99190000D01*
G75*
G02*
X131535000Y-99365000I-175000J0D01*
G01*
X130085000Y-99365000D01*
G75*
G02*
X129910000Y-99190000I0J175000D01*
G01*
G37*
G36*
G01*
X129910000Y-98115000D02*
X129910000Y-97715000D01*
G75*
G02*
X130110000Y-97515000I200000J0D01*
G01*
X131510000Y-97515000D01*
G75*
G02*
X131710000Y-97715000I0J-200000D01*
G01*
X131710000Y-98115000D01*
G75*
G02*
X131510000Y-98315000I-200000J0D01*
G01*
X130110000Y-98315000D01*
G75*
G02*
X129910000Y-98115000I0J200000D01*
G01*
G37*
G36*
G01*
X129910000Y-97015000D02*
X129910000Y-96615000D01*
G75*
G02*
X130110000Y-96415000I200000J0D01*
G01*
X131510000Y-96415000D01*
G75*
G02*
X131710000Y-96615000I0J-200000D01*
G01*
X131710000Y-97015000D01*
G75*
G02*
X131510000Y-97215000I-200000J0D01*
G01*
X130110000Y-97215000D01*
G75*
G02*
X129910000Y-97015000I0J200000D01*
G01*
G37*
G36*
G01*
X129910000Y-95915000D02*
X129910000Y-95515000D01*
G75*
G02*
X130110000Y-95315000I200000J0D01*
G01*
X131510000Y-95315000D01*
G75*
G02*
X131710000Y-95515000I0J-200000D01*
G01*
X131710000Y-95915000D01*
G75*
G02*
X131510000Y-96115000I-200000J0D01*
G01*
X130110000Y-96115000D01*
G75*
G02*
X129910000Y-95915000I0J200000D01*
G01*
G37*
G36*
G01*
X129910000Y-94815000D02*
X129910000Y-94415000D01*
G75*
G02*
X130110000Y-94215000I200000J0D01*
G01*
X131510000Y-94215000D01*
G75*
G02*
X131710000Y-94415000I0J-200000D01*
G01*
X131710000Y-94815000D01*
G75*
G02*
X131510000Y-95015000I-200000J0D01*
G01*
X130110000Y-95015000D01*
G75*
G02*
X129910000Y-94815000I0J200000D01*
G01*
G37*
G36*
G01*
X129910000Y-93715000D02*
X129910000Y-93315000D01*
G75*
G02*
X130110000Y-93115000I200000J0D01*
G01*
X131510000Y-93115000D01*
G75*
G02*
X131710000Y-93315000I0J-200000D01*
G01*
X131710000Y-93715000D01*
G75*
G02*
X131510000Y-93915000I-200000J0D01*
G01*
X130110000Y-93915000D01*
G75*
G02*
X129910000Y-93715000I0J200000D01*
G01*
G37*
G36*
G01*
X129910000Y-92615000D02*
X129910000Y-92215000D01*
G75*
G02*
X130110000Y-92015000I200000J0D01*
G01*
X131510000Y-92015000D01*
G75*
G02*
X131710000Y-92215000I0J-200000D01*
G01*
X131710000Y-92615000D01*
G75*
G02*
X131510000Y-92815000I-200000J0D01*
G01*
X130110000Y-92815000D01*
G75*
G02*
X129910000Y-92615000I0J200000D01*
G01*
G37*
G36*
G01*
X129910000Y-91515000D02*
X129910000Y-91115000D01*
G75*
G02*
X130110000Y-90915000I200000J0D01*
G01*
X131510000Y-90915000D01*
G75*
G02*
X131710000Y-91115000I0J-200000D01*
G01*
X131710000Y-91515000D01*
G75*
G02*
X131510000Y-91715000I-200000J0D01*
G01*
X130110000Y-91715000D01*
G75*
G02*
X129910000Y-91515000I0J200000D01*
G01*
G37*
G36*
G01*
X129910000Y-90390000D02*
X129910000Y-90040000D01*
G75*
G02*
X130085000Y-89865000I175000J0D01*
G01*
X131535000Y-89865000D01*
G75*
G02*
X131710000Y-90040000I0J-175000D01*
G01*
X131710000Y-90390000D01*
G75*
G02*
X131535000Y-90565000I-175000J0D01*
G01*
X130085000Y-90565000D01*
G75*
G02*
X129910000Y-90390000I0J175000D01*
G01*
G37*
G36*
G01*
X120410000Y-90390000D02*
X120410000Y-90040000D01*
G75*
G02*
X120585000Y-89865000I175000J0D01*
G01*
X122035000Y-89865000D01*
G75*
G02*
X122210000Y-90040000I0J-175000D01*
G01*
X122210000Y-90390000D01*
G75*
G02*
X122035000Y-90565000I-175000J0D01*
G01*
X120585000Y-90565000D01*
G75*
G02*
X120410000Y-90390000I0J175000D01*
G01*
G37*
G36*
G01*
X120410000Y-91515000D02*
X120410000Y-91115000D01*
G75*
G02*
X120610000Y-90915000I200000J0D01*
G01*
X122010000Y-90915000D01*
G75*
G02*
X122210000Y-91115000I0J-200000D01*
G01*
X122210000Y-91515000D01*
G75*
G02*
X122010000Y-91715000I-200000J0D01*
G01*
X120610000Y-91715000D01*
G75*
G02*
X120410000Y-91515000I0J200000D01*
G01*
G37*
G36*
G01*
X120410000Y-92615000D02*
X120410000Y-92215000D01*
G75*
G02*
X120610000Y-92015000I200000J0D01*
G01*
X122010000Y-92015000D01*
G75*
G02*
X122210000Y-92215000I0J-200000D01*
G01*
X122210000Y-92615000D01*
G75*
G02*
X122010000Y-92815000I-200000J0D01*
G01*
X120610000Y-92815000D01*
G75*
G02*
X120410000Y-92615000I0J200000D01*
G01*
G37*
G36*
G01*
X120410000Y-93715000D02*
X120410000Y-93315000D01*
G75*
G02*
X120610000Y-93115000I200000J0D01*
G01*
X122010000Y-93115000D01*
G75*
G02*
X122210000Y-93315000I0J-200000D01*
G01*
X122210000Y-93715000D01*
G75*
G02*
X122010000Y-93915000I-200000J0D01*
G01*
X120610000Y-93915000D01*
G75*
G02*
X120410000Y-93715000I0J200000D01*
G01*
G37*
G36*
G01*
X120410000Y-94815000D02*
X120410000Y-94415000D01*
G75*
G02*
X120610000Y-94215000I200000J0D01*
G01*
X122010000Y-94215000D01*
G75*
G02*
X122210000Y-94415000I0J-200000D01*
G01*
X122210000Y-94815000D01*
G75*
G02*
X122010000Y-95015000I-200000J0D01*
G01*
X120610000Y-95015000D01*
G75*
G02*
X120410000Y-94815000I0J200000D01*
G01*
G37*
G36*
G01*
X120410000Y-95915000D02*
X120410000Y-95515000D01*
G75*
G02*
X120610000Y-95315000I200000J0D01*
G01*
X122010000Y-95315000D01*
G75*
G02*
X122210000Y-95515000I0J-200000D01*
G01*
X122210000Y-95915000D01*
G75*
G02*
X122010000Y-96115000I-200000J0D01*
G01*
X120610000Y-96115000D01*
G75*
G02*
X120410000Y-95915000I0J200000D01*
G01*
G37*
G36*
G01*
X120410000Y-97015000D02*
X120410000Y-96615000D01*
G75*
G02*
X120610000Y-96415000I200000J0D01*
G01*
X122010000Y-96415000D01*
G75*
G02*
X122210000Y-96615000I0J-200000D01*
G01*
X122210000Y-97015000D01*
G75*
G02*
X122010000Y-97215000I-200000J0D01*
G01*
X120610000Y-97215000D01*
G75*
G02*
X120410000Y-97015000I0J200000D01*
G01*
G37*
G36*
G01*
X120410000Y-98115000D02*
X120410000Y-97715000D01*
G75*
G02*
X120610000Y-97515000I200000J0D01*
G01*
X122010000Y-97515000D01*
G75*
G02*
X122210000Y-97715000I0J-200000D01*
G01*
X122210000Y-98115000D01*
G75*
G02*
X122010000Y-98315000I-200000J0D01*
G01*
X120610000Y-98315000D01*
G75*
G02*
X120410000Y-98115000I0J200000D01*
G01*
G37*
G36*
G01*
X120410000Y-99190000D02*
X120410000Y-98840000D01*
G75*
G02*
X120585000Y-98665000I175000J0D01*
G01*
X122035000Y-98665000D01*
G75*
G02*
X122210000Y-98840000I0J-175000D01*
G01*
X122210000Y-99190000D01*
G75*
G02*
X122035000Y-99365000I-175000J0D01*
G01*
X120585000Y-99365000D01*
G75*
G02*
X120410000Y-99190000I0J175000D01*
G01*
G37*
D17*
X147955000Y-102870000D03*
X145415000Y-102870000D03*
X147955000Y-100330000D03*
X145415000Y-100330000D03*
X147955000Y-97790000D03*
D16*
X145415000Y-97790000D03*
M02*
