G04 #@! TF.GenerationSoftware,KiCad,Pcbnew,(5.1.9)-1*
G04 #@! TF.CreationDate,2021-06-03T21:06:58+02:00*
G04 #@! TF.ProjectId,HABakuk_v1.0,48414261-6b75-46b5-9f76-312e302e6b69,1.0*
G04 #@! TF.SameCoordinates,Original*
G04 #@! TF.FileFunction,Paste,Top*
G04 #@! TF.FilePolarity,Positive*
%FSLAX46Y46*%
G04 Gerber Fmt 4.6, Leading zero omitted, Abs format (unit mm)*
G04 Created by KiCad (PCBNEW (5.1.9)-1) date 2021-06-03 21:06:58*
%MOMM*%
%LPD*%
G01*
G04 APERTURE LIST*
%ADD10R,1.300000X1.600000*%
%ADD11R,2.000000X1.950000*%
%ADD12R,0.850000X0.650000*%
%ADD13R,0.650000X0.950000*%
%ADD14R,0.650000X1.060000*%
%ADD15R,0.825000X0.500000*%
%ADD16R,0.430000X0.700000*%
%ADD17R,0.300000X1.400000*%
%ADD18R,0.550000X1.600000*%
%ADD19R,1.600000X0.550000*%
%ADD20R,0.800000X0.900000*%
%ADD21R,0.800000X2.700000*%
G04 APERTURE END LIST*
D10*
X132731000Y-100202000D03*
X132731000Y-96902000D03*
X134731000Y-96902000D03*
X134731000Y-100202000D03*
D11*
X127923000Y-116205000D03*
D12*
X125843000Y-116205000D03*
D13*
X129248000Y-116205000D03*
D14*
X116266000Y-110320000D03*
X114366000Y-110320000D03*
X114366000Y-108120000D03*
X115316000Y-108120000D03*
X116266000Y-108120000D03*
D15*
X116102500Y-103385000D03*
D16*
X115905000Y-102235000D03*
D15*
X116102500Y-101085000D03*
X117577500Y-101085000D03*
D16*
X117775000Y-102235000D03*
D15*
X117577500Y-103385000D03*
D17*
X116475000Y-94320000D03*
X116975000Y-94320000D03*
X117475000Y-94320000D03*
X117975000Y-94320000D03*
X118475000Y-94320000D03*
X118475000Y-98720000D03*
X117975000Y-98720000D03*
X117475000Y-98720000D03*
X116975000Y-98720000D03*
X116475000Y-98720000D03*
D18*
X128530000Y-105850000D03*
X127730000Y-105850000D03*
X126930000Y-105850000D03*
X126130000Y-105850000D03*
X125330000Y-105850000D03*
X124530000Y-105850000D03*
X123730000Y-105850000D03*
X122930000Y-105850000D03*
D19*
X121480000Y-104400000D03*
X121480000Y-103600000D03*
X121480000Y-102800000D03*
X121480000Y-102000000D03*
X121480000Y-101200000D03*
X121480000Y-100400000D03*
X121480000Y-99600000D03*
X121480000Y-98800000D03*
D18*
X122930000Y-97350000D03*
X123730000Y-97350000D03*
X124530000Y-97350000D03*
X125330000Y-97350000D03*
X126130000Y-97350000D03*
X126930000Y-97350000D03*
X127730000Y-97350000D03*
X128530000Y-97350000D03*
D19*
X129980000Y-98800000D03*
X129980000Y-99600000D03*
X129980000Y-100400000D03*
X129980000Y-101200000D03*
X129980000Y-102000000D03*
X129980000Y-102800000D03*
X129980000Y-103600000D03*
X129980000Y-104400000D03*
G36*
G01*
X129125000Y-110250000D02*
X129125000Y-110050000D01*
G75*
G02*
X129225000Y-109950000I100000J0D01*
G01*
X130500000Y-109950000D01*
G75*
G02*
X130600000Y-110050000I0J-100000D01*
G01*
X130600000Y-110250000D01*
G75*
G02*
X130500000Y-110350000I-100000J0D01*
G01*
X129225000Y-110350000D01*
G75*
G02*
X129125000Y-110250000I0J100000D01*
G01*
G37*
G36*
G01*
X129125000Y-110900000D02*
X129125000Y-110700000D01*
G75*
G02*
X129225000Y-110600000I100000J0D01*
G01*
X130500000Y-110600000D01*
G75*
G02*
X130600000Y-110700000I0J-100000D01*
G01*
X130600000Y-110900000D01*
G75*
G02*
X130500000Y-111000000I-100000J0D01*
G01*
X129225000Y-111000000D01*
G75*
G02*
X129125000Y-110900000I0J100000D01*
G01*
G37*
G36*
G01*
X129125000Y-111550000D02*
X129125000Y-111350000D01*
G75*
G02*
X129225000Y-111250000I100000J0D01*
G01*
X130500000Y-111250000D01*
G75*
G02*
X130600000Y-111350000I0J-100000D01*
G01*
X130600000Y-111550000D01*
G75*
G02*
X130500000Y-111650000I-100000J0D01*
G01*
X129225000Y-111650000D01*
G75*
G02*
X129125000Y-111550000I0J100000D01*
G01*
G37*
G36*
G01*
X129125000Y-112200000D02*
X129125000Y-112000000D01*
G75*
G02*
X129225000Y-111900000I100000J0D01*
G01*
X130500000Y-111900000D01*
G75*
G02*
X130600000Y-112000000I0J-100000D01*
G01*
X130600000Y-112200000D01*
G75*
G02*
X130500000Y-112300000I-100000J0D01*
G01*
X129225000Y-112300000D01*
G75*
G02*
X129125000Y-112200000I0J100000D01*
G01*
G37*
G36*
G01*
X123400000Y-112200000D02*
X123400000Y-112000000D01*
G75*
G02*
X123500000Y-111900000I100000J0D01*
G01*
X124775000Y-111900000D01*
G75*
G02*
X124875000Y-112000000I0J-100000D01*
G01*
X124875000Y-112200000D01*
G75*
G02*
X124775000Y-112300000I-100000J0D01*
G01*
X123500000Y-112300000D01*
G75*
G02*
X123400000Y-112200000I0J100000D01*
G01*
G37*
G36*
G01*
X123400000Y-111550000D02*
X123400000Y-111350000D01*
G75*
G02*
X123500000Y-111250000I100000J0D01*
G01*
X124775000Y-111250000D01*
G75*
G02*
X124875000Y-111350000I0J-100000D01*
G01*
X124875000Y-111550000D01*
G75*
G02*
X124775000Y-111650000I-100000J0D01*
G01*
X123500000Y-111650000D01*
G75*
G02*
X123400000Y-111550000I0J100000D01*
G01*
G37*
G36*
G01*
X123400000Y-110900000D02*
X123400000Y-110700000D01*
G75*
G02*
X123500000Y-110600000I100000J0D01*
G01*
X124775000Y-110600000D01*
G75*
G02*
X124875000Y-110700000I0J-100000D01*
G01*
X124875000Y-110900000D01*
G75*
G02*
X124775000Y-111000000I-100000J0D01*
G01*
X123500000Y-111000000D01*
G75*
G02*
X123400000Y-110900000I0J100000D01*
G01*
G37*
G36*
G01*
X123400000Y-110250000D02*
X123400000Y-110050000D01*
G75*
G02*
X123500000Y-109950000I100000J0D01*
G01*
X124775000Y-109950000D01*
G75*
G02*
X124875000Y-110050000I0J-100000D01*
G01*
X124875000Y-110250000D01*
G75*
G02*
X124775000Y-110350000I-100000J0D01*
G01*
X123500000Y-110350000D01*
G75*
G02*
X123400000Y-110250000I0J100000D01*
G01*
G37*
G36*
G01*
X127845000Y-93705000D02*
X127845000Y-94255000D01*
G75*
G02*
X127645000Y-94455000I-200000J0D01*
G01*
X127245000Y-94455000D01*
G75*
G02*
X127045000Y-94255000I0J200000D01*
G01*
X127045000Y-93705000D01*
G75*
G02*
X127245000Y-93505000I200000J0D01*
G01*
X127645000Y-93505000D01*
G75*
G02*
X127845000Y-93705000I0J-200000D01*
G01*
G37*
G36*
G01*
X129495000Y-93705000D02*
X129495000Y-94255000D01*
G75*
G02*
X129295000Y-94455000I-200000J0D01*
G01*
X128895000Y-94455000D01*
G75*
G02*
X128695000Y-94255000I0J200000D01*
G01*
X128695000Y-93705000D01*
G75*
G02*
X128895000Y-93505000I200000J0D01*
G01*
X129295000Y-93505000D01*
G75*
G02*
X129495000Y-93705000I0J-200000D01*
G01*
G37*
G36*
G01*
X124885000Y-108225000D02*
X124885000Y-107675000D01*
G75*
G02*
X125085000Y-107475000I200000J0D01*
G01*
X125485000Y-107475000D01*
G75*
G02*
X125685000Y-107675000I0J-200000D01*
G01*
X125685000Y-108225000D01*
G75*
G02*
X125485000Y-108425000I-200000J0D01*
G01*
X125085000Y-108425000D01*
G75*
G02*
X124885000Y-108225000I0J200000D01*
G01*
G37*
G36*
G01*
X123235000Y-108225000D02*
X123235000Y-107675000D01*
G75*
G02*
X123435000Y-107475000I200000J0D01*
G01*
X123835000Y-107475000D01*
G75*
G02*
X124035000Y-107675000I0J-200000D01*
G01*
X124035000Y-108225000D01*
G75*
G02*
X123835000Y-108425000I-200000J0D01*
G01*
X123435000Y-108425000D01*
G75*
G02*
X123235000Y-108225000I0J200000D01*
G01*
G37*
G36*
G01*
X127845000Y-108183000D02*
X127845000Y-108733000D01*
G75*
G02*
X127645000Y-108933000I-200000J0D01*
G01*
X127245000Y-108933000D01*
G75*
G02*
X127045000Y-108733000I0J200000D01*
G01*
X127045000Y-108183000D01*
G75*
G02*
X127245000Y-107983000I200000J0D01*
G01*
X127645000Y-107983000D01*
G75*
G02*
X127845000Y-108183000I0J-200000D01*
G01*
G37*
G36*
G01*
X129495000Y-108183000D02*
X129495000Y-108733000D01*
G75*
G02*
X129295000Y-108933000I-200000J0D01*
G01*
X128895000Y-108933000D01*
G75*
G02*
X128695000Y-108733000I0J200000D01*
G01*
X128695000Y-108183000D01*
G75*
G02*
X128895000Y-107983000I200000J0D01*
G01*
X129295000Y-107983000D01*
G75*
G02*
X129495000Y-108183000I0J-200000D01*
G01*
G37*
G36*
G01*
X133687000Y-105135000D02*
X133687000Y-105685000D01*
G75*
G02*
X133487000Y-105885000I-200000J0D01*
G01*
X133087000Y-105885000D01*
G75*
G02*
X132887000Y-105685000I0J200000D01*
G01*
X132887000Y-105135000D01*
G75*
G02*
X133087000Y-104935000I200000J0D01*
G01*
X133487000Y-104935000D01*
G75*
G02*
X133687000Y-105135000I0J-200000D01*
G01*
G37*
G36*
G01*
X135337000Y-105135000D02*
X135337000Y-105685000D01*
G75*
G02*
X135137000Y-105885000I-200000J0D01*
G01*
X134737000Y-105885000D01*
G75*
G02*
X134537000Y-105685000I0J200000D01*
G01*
X134537000Y-105135000D01*
G75*
G02*
X134737000Y-104935000I200000J0D01*
G01*
X135137000Y-104935000D01*
G75*
G02*
X135337000Y-105135000I0J-200000D01*
G01*
G37*
G36*
G01*
X124885000Y-94255000D02*
X124885000Y-93705000D01*
G75*
G02*
X125085000Y-93505000I200000J0D01*
G01*
X125485000Y-93505000D01*
G75*
G02*
X125685000Y-93705000I0J-200000D01*
G01*
X125685000Y-94255000D01*
G75*
G02*
X125485000Y-94455000I-200000J0D01*
G01*
X125085000Y-94455000D01*
G75*
G02*
X124885000Y-94255000I0J200000D01*
G01*
G37*
G36*
G01*
X123235000Y-94255000D02*
X123235000Y-93705000D01*
G75*
G02*
X123435000Y-93505000I200000J0D01*
G01*
X123835000Y-93505000D01*
G75*
G02*
X124035000Y-93705000I0J-200000D01*
G01*
X124035000Y-94255000D01*
G75*
G02*
X123835000Y-94455000I-200000J0D01*
G01*
X123435000Y-94455000D01*
G75*
G02*
X123235000Y-94255000I0J200000D01*
G01*
G37*
G36*
G01*
X131805000Y-115995000D02*
X132355000Y-115995000D01*
G75*
G02*
X132555000Y-116195000I0J-200000D01*
G01*
X132555000Y-116595000D01*
G75*
G02*
X132355000Y-116795000I-200000J0D01*
G01*
X131805000Y-116795000D01*
G75*
G02*
X131605000Y-116595000I0J200000D01*
G01*
X131605000Y-116195000D01*
G75*
G02*
X131805000Y-115995000I200000J0D01*
G01*
G37*
G36*
G01*
X131805000Y-114345000D02*
X132355000Y-114345000D01*
G75*
G02*
X132555000Y-114545000I0J-200000D01*
G01*
X132555000Y-114945000D01*
G75*
G02*
X132355000Y-115145000I-200000J0D01*
G01*
X131805000Y-115145000D01*
G75*
G02*
X131605000Y-114945000I0J200000D01*
G01*
X131605000Y-114545000D01*
G75*
G02*
X131805000Y-114345000I200000J0D01*
G01*
G37*
G36*
G01*
X130219000Y-114575000D02*
X130219000Y-114025000D01*
G75*
G02*
X130419000Y-113825000I200000J0D01*
G01*
X130819000Y-113825000D01*
G75*
G02*
X131019000Y-114025000I0J-200000D01*
G01*
X131019000Y-114575000D01*
G75*
G02*
X130819000Y-114775000I-200000J0D01*
G01*
X130419000Y-114775000D01*
G75*
G02*
X130219000Y-114575000I0J200000D01*
G01*
G37*
G36*
G01*
X128569000Y-114575000D02*
X128569000Y-114025000D01*
G75*
G02*
X128769000Y-113825000I200000J0D01*
G01*
X129169000Y-113825000D01*
G75*
G02*
X129369000Y-114025000I0J-200000D01*
G01*
X129369000Y-114575000D01*
G75*
G02*
X129169000Y-114775000I-200000J0D01*
G01*
X128769000Y-114775000D01*
G75*
G02*
X128569000Y-114575000I0J200000D01*
G01*
G37*
G36*
G01*
X125940000Y-114025000D02*
X125940000Y-114575000D01*
G75*
G02*
X125740000Y-114775000I-200000J0D01*
G01*
X125340000Y-114775000D01*
G75*
G02*
X125140000Y-114575000I0J200000D01*
G01*
X125140000Y-114025000D01*
G75*
G02*
X125340000Y-113825000I200000J0D01*
G01*
X125740000Y-113825000D01*
G75*
G02*
X125940000Y-114025000I0J-200000D01*
G01*
G37*
G36*
G01*
X127590000Y-114025000D02*
X127590000Y-114575000D01*
G75*
G02*
X127390000Y-114775000I-200000J0D01*
G01*
X126990000Y-114775000D01*
G75*
G02*
X126790000Y-114575000I0J200000D01*
G01*
X126790000Y-114025000D01*
G75*
G02*
X126990000Y-113825000I200000J0D01*
G01*
X127390000Y-113825000D01*
G75*
G02*
X127590000Y-114025000I0J-200000D01*
G01*
G37*
G36*
G01*
X134345000Y-112820000D02*
X134895000Y-112820000D01*
G75*
G02*
X135095000Y-113020000I0J-200000D01*
G01*
X135095000Y-113420000D01*
G75*
G02*
X134895000Y-113620000I-200000J0D01*
G01*
X134345000Y-113620000D01*
G75*
G02*
X134145000Y-113420000I0J200000D01*
G01*
X134145000Y-113020000D01*
G75*
G02*
X134345000Y-112820000I200000J0D01*
G01*
G37*
G36*
G01*
X134345000Y-111170000D02*
X134895000Y-111170000D01*
G75*
G02*
X135095000Y-111370000I0J-200000D01*
G01*
X135095000Y-111770000D01*
G75*
G02*
X134895000Y-111970000I-200000J0D01*
G01*
X134345000Y-111970000D01*
G75*
G02*
X134145000Y-111770000I0J200000D01*
G01*
X134145000Y-111370000D01*
G75*
G02*
X134345000Y-111170000I200000J0D01*
G01*
G37*
G36*
G01*
X134345000Y-109645000D02*
X134895000Y-109645000D01*
G75*
G02*
X135095000Y-109845000I0J-200000D01*
G01*
X135095000Y-110245000D01*
G75*
G02*
X134895000Y-110445000I-200000J0D01*
G01*
X134345000Y-110445000D01*
G75*
G02*
X134145000Y-110245000I0J200000D01*
G01*
X134145000Y-109845000D01*
G75*
G02*
X134345000Y-109645000I200000J0D01*
G01*
G37*
G36*
G01*
X134345000Y-107995000D02*
X134895000Y-107995000D01*
G75*
G02*
X135095000Y-108195000I0J-200000D01*
G01*
X135095000Y-108595000D01*
G75*
G02*
X134895000Y-108795000I-200000J0D01*
G01*
X134345000Y-108795000D01*
G75*
G02*
X134145000Y-108595000I0J200000D01*
G01*
X134145000Y-108195000D01*
G75*
G02*
X134345000Y-107995000I200000J0D01*
G01*
G37*
G36*
G01*
X132440000Y-108375000D02*
X132990000Y-108375000D01*
G75*
G02*
X133190000Y-108575000I0J-200000D01*
G01*
X133190000Y-108975000D01*
G75*
G02*
X132990000Y-109175000I-200000J0D01*
G01*
X132440000Y-109175000D01*
G75*
G02*
X132240000Y-108975000I0J200000D01*
G01*
X132240000Y-108575000D01*
G75*
G02*
X132440000Y-108375000I200000J0D01*
G01*
G37*
G36*
G01*
X132440000Y-106725000D02*
X132990000Y-106725000D01*
G75*
G02*
X133190000Y-106925000I0J-200000D01*
G01*
X133190000Y-107325000D01*
G75*
G02*
X132990000Y-107525000I-200000J0D01*
G01*
X132440000Y-107525000D01*
G75*
G02*
X132240000Y-107325000I0J200000D01*
G01*
X132240000Y-106925000D01*
G75*
G02*
X132440000Y-106725000I200000J0D01*
G01*
G37*
D20*
X129540000Y-89805000D03*
X130490000Y-91805000D03*
X128590000Y-91805000D03*
X124460000Y-89805000D03*
X125410000Y-91805000D03*
X123510000Y-91805000D03*
G36*
G01*
X121000000Y-88521250D02*
X121000000Y-88008750D01*
G75*
G02*
X121218750Y-87790000I218750J0D01*
G01*
X121656250Y-87790000D01*
G75*
G02*
X121875000Y-88008750I0J-218750D01*
G01*
X121875000Y-88521250D01*
G75*
G02*
X121656250Y-88740000I-218750J0D01*
G01*
X121218750Y-88740000D01*
G75*
G02*
X121000000Y-88521250I0J218750D01*
G01*
G37*
G36*
G01*
X119425000Y-88521250D02*
X119425000Y-88008750D01*
G75*
G02*
X119643750Y-87790000I218750J0D01*
G01*
X120081250Y-87790000D01*
G75*
G02*
X120300000Y-88008750I0J-218750D01*
G01*
X120300000Y-88521250D01*
G75*
G02*
X120081250Y-88740000I-218750J0D01*
G01*
X119643750Y-88740000D01*
G75*
G02*
X119425000Y-88521250I0J218750D01*
G01*
G37*
G36*
G01*
X114043750Y-94965000D02*
X114556250Y-94965000D01*
G75*
G02*
X114775000Y-95183750I0J-218750D01*
G01*
X114775000Y-95621250D01*
G75*
G02*
X114556250Y-95840000I-218750J0D01*
G01*
X114043750Y-95840000D01*
G75*
G02*
X113825000Y-95621250I0J218750D01*
G01*
X113825000Y-95183750D01*
G75*
G02*
X114043750Y-94965000I218750J0D01*
G01*
G37*
G36*
G01*
X114043750Y-93390000D02*
X114556250Y-93390000D01*
G75*
G02*
X114775000Y-93608750I0J-218750D01*
G01*
X114775000Y-94046250D01*
G75*
G02*
X114556250Y-94265000I-218750J0D01*
G01*
X114043750Y-94265000D01*
G75*
G02*
X113825000Y-94046250I0J218750D01*
G01*
X113825000Y-93608750D01*
G75*
G02*
X114043750Y-93390000I218750J0D01*
G01*
G37*
G36*
G01*
X117760000Y-91437750D02*
X117760000Y-91950250D01*
G75*
G02*
X117541250Y-92169000I-218750J0D01*
G01*
X117103750Y-92169000D01*
G75*
G02*
X116885000Y-91950250I0J218750D01*
G01*
X116885000Y-91437750D01*
G75*
G02*
X117103750Y-91219000I218750J0D01*
G01*
X117541250Y-91219000D01*
G75*
G02*
X117760000Y-91437750I0J-218750D01*
G01*
G37*
G36*
G01*
X119335000Y-91437750D02*
X119335000Y-91950250D01*
G75*
G02*
X119116250Y-92169000I-218750J0D01*
G01*
X118678750Y-92169000D01*
G75*
G02*
X118460000Y-91950250I0J218750D01*
G01*
X118460000Y-91437750D01*
G75*
G02*
X118678750Y-91219000I218750J0D01*
G01*
X119116250Y-91219000D01*
G75*
G02*
X119335000Y-91437750I0J-218750D01*
G01*
G37*
D21*
X121750000Y-112395000D03*
X119550000Y-112395000D03*
G36*
G01*
X146375000Y-94865000D02*
X146375000Y-94365000D01*
G75*
G02*
X146600000Y-94140000I225000J0D01*
G01*
X147050000Y-94140000D01*
G75*
G02*
X147275000Y-94365000I0J-225000D01*
G01*
X147275000Y-94865000D01*
G75*
G02*
X147050000Y-95090000I-225000J0D01*
G01*
X146600000Y-95090000D01*
G75*
G02*
X146375000Y-94865000I0J225000D01*
G01*
G37*
G36*
G01*
X144825000Y-94865000D02*
X144825000Y-94365000D01*
G75*
G02*
X145050000Y-94140000I225000J0D01*
G01*
X145500000Y-94140000D01*
G75*
G02*
X145725000Y-94365000I0J-225000D01*
G01*
X145725000Y-94865000D01*
G75*
G02*
X145500000Y-95090000I-225000J0D01*
G01*
X145050000Y-95090000D01*
G75*
G02*
X144825000Y-94865000I0J225000D01*
G01*
G37*
G36*
G01*
X116515000Y-88015000D02*
X116515000Y-88515000D01*
G75*
G02*
X116290000Y-88740000I-225000J0D01*
G01*
X115840000Y-88740000D01*
G75*
G02*
X115615000Y-88515000I0J225000D01*
G01*
X115615000Y-88015000D01*
G75*
G02*
X115840000Y-87790000I225000J0D01*
G01*
X116290000Y-87790000D01*
G75*
G02*
X116515000Y-88015000I0J-225000D01*
G01*
G37*
G36*
G01*
X118065000Y-88015000D02*
X118065000Y-88515000D01*
G75*
G02*
X117840000Y-88740000I-225000J0D01*
G01*
X117390000Y-88740000D01*
G75*
G02*
X117165000Y-88515000I0J225000D01*
G01*
X117165000Y-88015000D01*
G75*
G02*
X117390000Y-87790000I225000J0D01*
G01*
X117840000Y-87790000D01*
G75*
G02*
X118065000Y-88015000I0J-225000D01*
G01*
G37*
G36*
G01*
X117785000Y-89666000D02*
X117785000Y-90166000D01*
G75*
G02*
X117560000Y-90391000I-225000J0D01*
G01*
X117110000Y-90391000D01*
G75*
G02*
X116885000Y-90166000I0J225000D01*
G01*
X116885000Y-89666000D01*
G75*
G02*
X117110000Y-89441000I225000J0D01*
G01*
X117560000Y-89441000D01*
G75*
G02*
X117785000Y-89666000I0J-225000D01*
G01*
G37*
G36*
G01*
X119335000Y-89666000D02*
X119335000Y-90166000D01*
G75*
G02*
X119110000Y-90391000I-225000J0D01*
G01*
X118660000Y-90391000D01*
G75*
G02*
X118435000Y-90166000I0J225000D01*
G01*
X118435000Y-89666000D01*
G75*
G02*
X118660000Y-89441000I225000J0D01*
G01*
X119110000Y-89441000D01*
G75*
G02*
X119335000Y-89666000I0J-225000D01*
G01*
G37*
G36*
G01*
X114550000Y-87813000D02*
X114050000Y-87813000D01*
G75*
G02*
X113825000Y-87588000I0J225000D01*
G01*
X113825000Y-87138000D01*
G75*
G02*
X114050000Y-86913000I225000J0D01*
G01*
X114550000Y-86913000D01*
G75*
G02*
X114775000Y-87138000I0J-225000D01*
G01*
X114775000Y-87588000D01*
G75*
G02*
X114550000Y-87813000I-225000J0D01*
G01*
G37*
G36*
G01*
X114550000Y-89363000D02*
X114050000Y-89363000D01*
G75*
G02*
X113825000Y-89138000I0J225000D01*
G01*
X113825000Y-88688000D01*
G75*
G02*
X114050000Y-88463000I225000J0D01*
G01*
X114550000Y-88463000D01*
G75*
G02*
X114775000Y-88688000I0J-225000D01*
G01*
X114775000Y-89138000D01*
G75*
G02*
X114550000Y-89363000I-225000J0D01*
G01*
G37*
G36*
G01*
X115320000Y-91765000D02*
X115820000Y-91765000D01*
G75*
G02*
X116045000Y-91990000I0J-225000D01*
G01*
X116045000Y-92440000D01*
G75*
G02*
X115820000Y-92665000I-225000J0D01*
G01*
X115320000Y-92665000D01*
G75*
G02*
X115095000Y-92440000I0J225000D01*
G01*
X115095000Y-91990000D01*
G75*
G02*
X115320000Y-91765000I225000J0D01*
G01*
G37*
G36*
G01*
X115320000Y-90215000D02*
X115820000Y-90215000D01*
G75*
G02*
X116045000Y-90440000I0J-225000D01*
G01*
X116045000Y-90890000D01*
G75*
G02*
X115820000Y-91115000I-225000J0D01*
G01*
X115320000Y-91115000D01*
G75*
G02*
X115095000Y-90890000I0J225000D01*
G01*
X115095000Y-90440000D01*
G75*
G02*
X115320000Y-90215000I225000J0D01*
G01*
G37*
G36*
G01*
X114050000Y-98750000D02*
X114550000Y-98750000D01*
G75*
G02*
X114775000Y-98975000I0J-225000D01*
G01*
X114775000Y-99425000D01*
G75*
G02*
X114550000Y-99650000I-225000J0D01*
G01*
X114050000Y-99650000D01*
G75*
G02*
X113825000Y-99425000I0J225000D01*
G01*
X113825000Y-98975000D01*
G75*
G02*
X114050000Y-98750000I225000J0D01*
G01*
G37*
G36*
G01*
X114050000Y-97200000D02*
X114550000Y-97200000D01*
G75*
G02*
X114775000Y-97425000I0J-225000D01*
G01*
X114775000Y-97875000D01*
G75*
G02*
X114550000Y-98100000I-225000J0D01*
G01*
X114050000Y-98100000D01*
G75*
G02*
X113825000Y-97875000I0J225000D01*
G01*
X113825000Y-97425000D01*
G75*
G02*
X114050000Y-97200000I225000J0D01*
G01*
G37*
G36*
G01*
X144470000Y-112645000D02*
X144470000Y-112145000D01*
G75*
G02*
X144695000Y-111920000I225000J0D01*
G01*
X145145000Y-111920000D01*
G75*
G02*
X145370000Y-112145000I0J-225000D01*
G01*
X145370000Y-112645000D01*
G75*
G02*
X145145000Y-112870000I-225000J0D01*
G01*
X144695000Y-112870000D01*
G75*
G02*
X144470000Y-112645000I0J225000D01*
G01*
G37*
G36*
G01*
X142920000Y-112645000D02*
X142920000Y-112145000D01*
G75*
G02*
X143145000Y-111920000I225000J0D01*
G01*
X143595000Y-111920000D01*
G75*
G02*
X143820000Y-112145000I0J-225000D01*
G01*
X143820000Y-112645000D01*
G75*
G02*
X143595000Y-112870000I-225000J0D01*
G01*
X143145000Y-112870000D01*
G75*
G02*
X142920000Y-112645000I0J225000D01*
G01*
G37*
G36*
G01*
X133675000Y-90420000D02*
X133675000Y-89920000D01*
G75*
G02*
X133900000Y-89695000I225000J0D01*
G01*
X134350000Y-89695000D01*
G75*
G02*
X134575000Y-89920000I0J-225000D01*
G01*
X134575000Y-90420000D01*
G75*
G02*
X134350000Y-90645000I-225000J0D01*
G01*
X133900000Y-90645000D01*
G75*
G02*
X133675000Y-90420000I0J225000D01*
G01*
G37*
G36*
G01*
X132125000Y-90420000D02*
X132125000Y-89920000D01*
G75*
G02*
X132350000Y-89695000I225000J0D01*
G01*
X132800000Y-89695000D01*
G75*
G02*
X133025000Y-89920000I0J-225000D01*
G01*
X133025000Y-90420000D01*
G75*
G02*
X132800000Y-90645000I-225000J0D01*
G01*
X132350000Y-90645000D01*
G75*
G02*
X132125000Y-90420000I0J225000D01*
G01*
G37*
G36*
G01*
X134056000Y-94992000D02*
X134056000Y-94492000D01*
G75*
G02*
X134281000Y-94267000I225000J0D01*
G01*
X134731000Y-94267000D01*
G75*
G02*
X134956000Y-94492000I0J-225000D01*
G01*
X134956000Y-94992000D01*
G75*
G02*
X134731000Y-95217000I-225000J0D01*
G01*
X134281000Y-95217000D01*
G75*
G02*
X134056000Y-94992000I0J225000D01*
G01*
G37*
G36*
G01*
X132506000Y-94992000D02*
X132506000Y-94492000D01*
G75*
G02*
X132731000Y-94267000I225000J0D01*
G01*
X133181000Y-94267000D01*
G75*
G02*
X133406000Y-94492000I0J-225000D01*
G01*
X133406000Y-94992000D01*
G75*
G02*
X133181000Y-95217000I-225000J0D01*
G01*
X132731000Y-95217000D01*
G75*
G02*
X132506000Y-94992000I0J225000D01*
G01*
G37*
G36*
G01*
X133025000Y-102620000D02*
X133025000Y-103120000D01*
G75*
G02*
X132800000Y-103345000I-225000J0D01*
G01*
X132350000Y-103345000D01*
G75*
G02*
X132125000Y-103120000I0J225000D01*
G01*
X132125000Y-102620000D01*
G75*
G02*
X132350000Y-102395000I225000J0D01*
G01*
X132800000Y-102395000D01*
G75*
G02*
X133025000Y-102620000I0J-225000D01*
G01*
G37*
G36*
G01*
X134575000Y-102620000D02*
X134575000Y-103120000D01*
G75*
G02*
X134350000Y-103345000I-225000J0D01*
G01*
X133900000Y-103345000D01*
G75*
G02*
X133675000Y-103120000I0J225000D01*
G01*
X133675000Y-102620000D01*
G75*
G02*
X133900000Y-102395000I225000J0D01*
G01*
X134350000Y-102395000D01*
G75*
G02*
X134575000Y-102620000I0J-225000D01*
G01*
G37*
G36*
G01*
X118876000Y-102941000D02*
X119376000Y-102941000D01*
G75*
G02*
X119601000Y-103166000I0J-225000D01*
G01*
X119601000Y-103616000D01*
G75*
G02*
X119376000Y-103841000I-225000J0D01*
G01*
X118876000Y-103841000D01*
G75*
G02*
X118651000Y-103616000I0J225000D01*
G01*
X118651000Y-103166000D01*
G75*
G02*
X118876000Y-102941000I225000J0D01*
G01*
G37*
G36*
G01*
X118876000Y-101391000D02*
X119376000Y-101391000D01*
G75*
G02*
X119601000Y-101616000I0J-225000D01*
G01*
X119601000Y-102066000D01*
G75*
G02*
X119376000Y-102291000I-225000J0D01*
G01*
X118876000Y-102291000D01*
G75*
G02*
X118651000Y-102066000I0J225000D01*
G01*
X118651000Y-101616000D01*
G75*
G02*
X118876000Y-101391000I225000J0D01*
G01*
G37*
G36*
G01*
X120400000Y-94305000D02*
X120900000Y-94305000D01*
G75*
G02*
X121125000Y-94530000I0J-225000D01*
G01*
X121125000Y-94980000D01*
G75*
G02*
X120900000Y-95205000I-225000J0D01*
G01*
X120400000Y-95205000D01*
G75*
G02*
X120175000Y-94980000I0J225000D01*
G01*
X120175000Y-94530000D01*
G75*
G02*
X120400000Y-94305000I225000J0D01*
G01*
G37*
G36*
G01*
X120400000Y-92755000D02*
X120900000Y-92755000D01*
G75*
G02*
X121125000Y-92980000I0J-225000D01*
G01*
X121125000Y-93430000D01*
G75*
G02*
X120900000Y-93655000I-225000J0D01*
G01*
X120400000Y-93655000D01*
G75*
G02*
X120175000Y-93430000I0J225000D01*
G01*
X120175000Y-92980000D01*
G75*
G02*
X120400000Y-92755000I225000J0D01*
G01*
G37*
G36*
G01*
X117165000Y-105660000D02*
X117165000Y-105160000D01*
G75*
G02*
X117390000Y-104935000I225000J0D01*
G01*
X117840000Y-104935000D01*
G75*
G02*
X118065000Y-105160000I0J-225000D01*
G01*
X118065000Y-105660000D01*
G75*
G02*
X117840000Y-105885000I-225000J0D01*
G01*
X117390000Y-105885000D01*
G75*
G02*
X117165000Y-105660000I0J225000D01*
G01*
G37*
G36*
G01*
X115615000Y-105660000D02*
X115615000Y-105160000D01*
G75*
G02*
X115840000Y-104935000I225000J0D01*
G01*
X116290000Y-104935000D01*
G75*
G02*
X116515000Y-105160000I0J-225000D01*
G01*
X116515000Y-105660000D01*
G75*
G02*
X116290000Y-105885000I-225000J0D01*
G01*
X115840000Y-105885000D01*
G75*
G02*
X115615000Y-105660000I0J225000D01*
G01*
G37*
G36*
G01*
X123350000Y-115766000D02*
X124300000Y-115766000D01*
G75*
G02*
X124550000Y-116016000I0J-250000D01*
G01*
X124550000Y-116516000D01*
G75*
G02*
X124300000Y-116766000I-250000J0D01*
G01*
X123350000Y-116766000D01*
G75*
G02*
X123100000Y-116516000I0J250000D01*
G01*
X123100000Y-116016000D01*
G75*
G02*
X123350000Y-115766000I250000J0D01*
G01*
G37*
G36*
G01*
X123350000Y-113866000D02*
X124300000Y-113866000D01*
G75*
G02*
X124550000Y-114116000I0J-250000D01*
G01*
X124550000Y-114616000D01*
G75*
G02*
X124300000Y-114866000I-250000J0D01*
G01*
X123350000Y-114866000D01*
G75*
G02*
X123100000Y-114616000I0J250000D01*
G01*
X123100000Y-114116000D01*
G75*
G02*
X123350000Y-113866000I250000J0D01*
G01*
G37*
G36*
G01*
X133735000Y-115895000D02*
X134235000Y-115895000D01*
G75*
G02*
X134460000Y-116120000I0J-225000D01*
G01*
X134460000Y-116570000D01*
G75*
G02*
X134235000Y-116795000I-225000J0D01*
G01*
X133735000Y-116795000D01*
G75*
G02*
X133510000Y-116570000I0J225000D01*
G01*
X133510000Y-116120000D01*
G75*
G02*
X133735000Y-115895000I225000J0D01*
G01*
G37*
G36*
G01*
X133735000Y-114345000D02*
X134235000Y-114345000D01*
G75*
G02*
X134460000Y-114570000I0J-225000D01*
G01*
X134460000Y-115020000D01*
G75*
G02*
X134235000Y-115245000I-225000J0D01*
G01*
X133735000Y-115245000D01*
G75*
G02*
X133510000Y-115020000I0J225000D01*
G01*
X133510000Y-114570000D01*
G75*
G02*
X133735000Y-114345000I225000J0D01*
G01*
G37*
G36*
G01*
X132465000Y-112085000D02*
X132965000Y-112085000D01*
G75*
G02*
X133190000Y-112310000I0J-225000D01*
G01*
X133190000Y-112760000D01*
G75*
G02*
X132965000Y-112985000I-225000J0D01*
G01*
X132465000Y-112985000D01*
G75*
G02*
X132240000Y-112760000I0J225000D01*
G01*
X132240000Y-112310000D01*
G75*
G02*
X132465000Y-112085000I225000J0D01*
G01*
G37*
G36*
G01*
X132465000Y-110535000D02*
X132965000Y-110535000D01*
G75*
G02*
X133190000Y-110760000I0J-225000D01*
G01*
X133190000Y-111210000D01*
G75*
G02*
X132965000Y-111435000I-225000J0D01*
G01*
X132465000Y-111435000D01*
G75*
G02*
X132240000Y-111210000I0J225000D01*
G01*
X132240000Y-110760000D01*
G75*
G02*
X132465000Y-110535000I225000J0D01*
G01*
G37*
G36*
G01*
X121670000Y-108910000D02*
X122170000Y-108910000D01*
G75*
G02*
X122395000Y-109135000I0J-225000D01*
G01*
X122395000Y-109585000D01*
G75*
G02*
X122170000Y-109810000I-225000J0D01*
G01*
X121670000Y-109810000D01*
G75*
G02*
X121445000Y-109585000I0J225000D01*
G01*
X121445000Y-109135000D01*
G75*
G02*
X121670000Y-108910000I225000J0D01*
G01*
G37*
G36*
G01*
X121670000Y-107360000D02*
X122170000Y-107360000D01*
G75*
G02*
X122395000Y-107585000I0J-225000D01*
G01*
X122395000Y-108035000D01*
G75*
G02*
X122170000Y-108260000I-225000J0D01*
G01*
X121670000Y-108260000D01*
G75*
G02*
X121445000Y-108035000I0J225000D01*
G01*
X121445000Y-107585000D01*
G75*
G02*
X121670000Y-107360000I225000J0D01*
G01*
G37*
G36*
G01*
X115880000Y-116590000D02*
X115880000Y-117090000D01*
G75*
G02*
X115655000Y-117315000I-225000J0D01*
G01*
X115205000Y-117315000D01*
G75*
G02*
X114980000Y-117090000I0J225000D01*
G01*
X114980000Y-116590000D01*
G75*
G02*
X115205000Y-116365000I225000J0D01*
G01*
X115655000Y-116365000D01*
G75*
G02*
X115880000Y-116590000I0J-225000D01*
G01*
G37*
G36*
G01*
X117430000Y-116590000D02*
X117430000Y-117090000D01*
G75*
G02*
X117205000Y-117315000I-225000J0D01*
G01*
X116755000Y-117315000D01*
G75*
G02*
X116530000Y-117090000I0J225000D01*
G01*
X116530000Y-116590000D01*
G75*
G02*
X116755000Y-116365000I225000J0D01*
G01*
X117205000Y-116365000D01*
G75*
G02*
X117430000Y-116590000I0J-225000D01*
G01*
G37*
G36*
G01*
X115880000Y-112780000D02*
X115880000Y-113280000D01*
G75*
G02*
X115655000Y-113505000I-225000J0D01*
G01*
X115205000Y-113505000D01*
G75*
G02*
X114980000Y-113280000I0J225000D01*
G01*
X114980000Y-112780000D01*
G75*
G02*
X115205000Y-112555000I225000J0D01*
G01*
X115655000Y-112555000D01*
G75*
G02*
X115880000Y-112780000I0J-225000D01*
G01*
G37*
G36*
G01*
X117430000Y-112780000D02*
X117430000Y-113280000D01*
G75*
G02*
X117205000Y-113505000I-225000J0D01*
G01*
X116755000Y-113505000D01*
G75*
G02*
X116530000Y-113280000I0J225000D01*
G01*
X116530000Y-112780000D01*
G75*
G02*
X116755000Y-112555000I225000J0D01*
G01*
X117205000Y-112555000D01*
G75*
G02*
X117430000Y-112780000I0J-225000D01*
G01*
G37*
G36*
G01*
X115880000Y-114685000D02*
X115880000Y-115185000D01*
G75*
G02*
X115655000Y-115410000I-225000J0D01*
G01*
X115205000Y-115410000D01*
G75*
G02*
X114980000Y-115185000I0J225000D01*
G01*
X114980000Y-114685000D01*
G75*
G02*
X115205000Y-114460000I225000J0D01*
G01*
X115655000Y-114460000D01*
G75*
G02*
X115880000Y-114685000I0J-225000D01*
G01*
G37*
G36*
G01*
X117430000Y-114685000D02*
X117430000Y-115185000D01*
G75*
G02*
X117205000Y-115410000I-225000J0D01*
G01*
X116755000Y-115410000D01*
G75*
G02*
X116530000Y-115185000I0J225000D01*
G01*
X116530000Y-114685000D01*
G75*
G02*
X116755000Y-114460000I225000J0D01*
G01*
X117205000Y-114460000D01*
G75*
G02*
X117430000Y-114685000I0J-225000D01*
G01*
G37*
M02*
