%TF.GenerationSoftware,KiCad,Pcbnew,(5.1.9)-1*%
%TF.CreationDate,2021-06-03T20:59:13+02:00*%
%TF.ProjectId,HABakuk_v1.0,48414261-6b75-46b5-9f76-312e302e6b69,1.0*%
%TF.SameCoordinates,Original*%
%TF.FileFunction,Copper,L2,Inr*%
%TF.FilePolarity,Positive*%
%FSLAX46Y46*%
G04 Gerber Fmt 4.6, Leading zero omitted, Abs format (unit mm)*
G04 Created by KiCad (PCBNEW (5.1.9)-1) date 2021-06-03 20:59:13*
%MOMM*%
%LPD*%
G01*
G04 APERTURE LIST*
%TA.AperFunction,ComponentPad*%
%ADD10R,1.700000X1.700000*%
%TD*%
%TA.AperFunction,ComponentPad*%
%ADD11O,1.700000X1.700000*%
%TD*%
%TA.AperFunction,ViaPad*%
%ADD12C,0.800000*%
%TD*%
%TA.AperFunction,Conductor*%
%ADD13C,0.250000*%
%TD*%
G04 APERTURE END LIST*
D10*
%TO.N,GND*%
%TO.C,J10*%
X129540000Y-119380000D03*
%TD*%
%TO.N,+3V3*%
%TO.C,J9*%
X133350000Y-119380000D03*
%TD*%
%TO.N,GND*%
%TO.C,J8*%
X115570000Y-119380000D03*
%TD*%
%TO.N,Net-(C1-Pad1)*%
%TO.C,J7*%
X119380000Y-119380000D03*
%TD*%
%TO.N,GND*%
%TO.C,J6*%
X124460000Y-119380000D03*
%TD*%
%TO.N,Net-(J5-Pad1)*%
%TO.C,J5*%
X124460000Y-86995000D03*
%TD*%
D11*
%TO.N,Net-(J4-Pad2)*%
%TO.C,J4*%
X132715000Y-86995000D03*
D10*
%TO.N,GND*%
X130175000Y-86995000D03*
%TD*%
D11*
%TO.N,Net-(C15-Pad2)*%
%TO.C,J3*%
X147955000Y-111760000D03*
%TO.N,TXD*%
X147955000Y-109220000D03*
D10*
%TO.N,RXD*%
X147955000Y-106680000D03*
%TD*%
D11*
%TO.N,SDA*%
%TO.C,J2*%
X144145000Y-109220000D03*
D10*
%TO.N,SCL*%
X144145000Y-106680000D03*
%TD*%
D11*
%TO.N,MISO*%
%TO.C,J1*%
X147955000Y-102870000D03*
%TO.N,+3V3*%
X145415000Y-102870000D03*
%TO.N,SCK*%
X147955000Y-100330000D03*
%TO.N,MOSI*%
X145415000Y-100330000D03*
%TO.N,DTR*%
X147955000Y-97790000D03*
D10*
%TO.N,GND*%
X145415000Y-97790000D03*
%TD*%
D12*
%TO.N,GND*%
X134112000Y-92456000D03*
%TO.N,Net-(C7-Pad1)*%
X125984000Y-112522000D03*
X135890000Y-108458000D03*
%TO.N,Net-(C14-Pad1)*%
X126955000Y-90215000D03*
%TO.N,DTR*%
X131821347Y-105659347D03*
X127000000Y-107315000D03*
%TO.N,+3V3*%
X127000000Y-91694000D03*
X148590000Y-94488000D03*
X114808000Y-106934000D03*
X124219403Y-109206597D03*
X131380002Y-103595000D03*
X127508000Y-111506000D03*
X128524000Y-99060000D03*
%TO.N,MISO*%
X122936000Y-95504000D03*
%TO.N,SCK*%
X125730000Y-98806000D03*
%TO.N,MOSI*%
X124968000Y-95250000D03*
%TO.N,SDA*%
X125222000Y-108966000D03*
X124464653Y-102611347D03*
X119634000Y-99060000D03*
%TO.N,SCL*%
X130556000Y-107950000D03*
X119634000Y-100330000D03*
X125222000Y-104394000D03*
%TO.N,TXD*%
X128270000Y-107250002D03*
%TO.N,RXD*%
X126492000Y-104394000D03*
%TO.N,CLK0*%
X118110000Y-87122000D03*
X118296656Y-90953712D03*
%TO.N,TIMEP*%
X129789347Y-105659347D03*
X118618000Y-97028000D03*
%TO.N,TEMP*%
X117602000Y-107950000D03*
X123444000Y-104140000D03*
%TO.N,CLK2*%
X128524000Y-95975000D03*
X119380000Y-94234000D03*
%TO.N,RXI*%
X128016000Y-103632000D03*
X119888000Y-97536000D03*
%TO.N,TXO*%
X127254000Y-101600000D03*
X119888000Y-96266000D03*
%TO.N,Net-(C1-Pad1)*%
X131568654Y-107962651D03*
X120904000Y-110236000D03*
%TD*%
D13*
%TO.N,Net-(C7-Pad1)*%
X125984000Y-112522000D02*
X131826000Y-112522000D01*
X131826000Y-112522000D02*
X135890000Y-108458000D01*
%TO.N,DTR*%
X128057652Y-106384348D02*
X127000000Y-107315000D01*
X131096346Y-106384348D02*
X128057652Y-106384348D01*
X131821347Y-105659347D02*
X131096346Y-106384348D01*
%TO.N,+3V3*%
X146590001Y-104045001D02*
X149446999Y-104045001D01*
X145415000Y-102870000D02*
X146590001Y-104045001D01*
X149446999Y-104045001D02*
X149860000Y-103632000D01*
X149860000Y-95758000D02*
X148590000Y-94488000D01*
X149860000Y-103632000D02*
X149860000Y-95758000D01*
%TO.N,MISO*%
X146779999Y-101694999D02*
X147955000Y-102870000D01*
X123501685Y-95504000D02*
X130359685Y-102362000D01*
X122936000Y-95504000D02*
X123501685Y-95504000D01*
X130359685Y-102362000D02*
X143764000Y-102362000D01*
X143764000Y-102362000D02*
X144526000Y-101600000D01*
X146685000Y-101600000D02*
X146779999Y-101694999D01*
X144526000Y-101600000D02*
X146685000Y-101600000D01*
%TO.N,MOSI*%
X135382000Y-100330000D02*
X145415000Y-100330000D01*
X135382000Y-97028000D02*
X135382000Y-100330000D01*
X133604000Y-95250000D02*
X135382000Y-97028000D01*
X124968000Y-95250000D02*
X133604000Y-95250000D01*
%TO.N,SDA*%
X125222000Y-108966000D02*
X125730000Y-109474000D01*
X125730000Y-109474000D02*
X132842000Y-109474000D01*
X132842000Y-109474000D02*
X136398000Y-105918000D01*
X142330000Y-108180012D02*
X142330000Y-109220000D01*
X140067988Y-105918000D02*
X142330000Y-108180012D01*
X136398000Y-105918000D02*
X140067988Y-105918000D01*
X142330000Y-109220000D02*
X144145000Y-109220000D01*
X120913306Y-99060000D02*
X119634000Y-99060000D01*
X124464653Y-102611347D02*
X120913306Y-99060000D01*
%TO.N,SCL*%
X130556000Y-107950000D02*
X133350000Y-105156000D01*
X142621000Y-105156000D02*
X144145000Y-106680000D01*
X133350000Y-105156000D02*
X142621000Y-105156000D01*
X119634000Y-100330000D02*
X121158000Y-100330000D01*
X121158000Y-100330000D02*
X125222000Y-104394000D01*
%TO.N,CLK0*%
X118110000Y-90767056D02*
X118296656Y-90953712D01*
X118110000Y-87122000D02*
X118110000Y-90767056D01*
%TO.N,TIMEP*%
X121571999Y-98261001D02*
X119539999Y-98261001D01*
X128970345Y-105659347D02*
X121571999Y-98261001D01*
X129789347Y-105659347D02*
X128970345Y-105659347D01*
X118618000Y-97339002D02*
X119539999Y-98261001D01*
X118618000Y-97028000D02*
X118618000Y-97339002D01*
%TO.N,TEMP*%
X117602000Y-107950000D02*
X121412000Y-104140000D01*
X121412000Y-104140000D02*
X123444000Y-104140000D01*
%TO.N,CLK2*%
X124619998Y-95975000D02*
X123952000Y-95307002D01*
X128524000Y-95975000D02*
X124619998Y-95975000D01*
X123952000Y-95307002D02*
X123952000Y-94234000D01*
X123952000Y-94234000D02*
X119380000Y-94234000D01*
%TO.N,RXI*%
X121920000Y-97536000D02*
X119888000Y-97536000D01*
X128016000Y-103632000D02*
X121920000Y-97536000D01*
%TO.N,TXO*%
X121920000Y-96266000D02*
X119888000Y-96266000D01*
X127254000Y-101600000D02*
X121920000Y-96266000D01*
%TO.N,Net-(C1-Pad1)*%
X129724324Y-108240999D02*
X122899001Y-108240999D01*
X130507315Y-109023990D02*
X129724324Y-108240999D01*
X122899001Y-108240999D02*
X120904000Y-110236000D01*
X131073000Y-109023990D02*
X130507315Y-109023990D01*
X131568654Y-108528336D02*
X131073000Y-109023990D01*
X131568654Y-107962651D02*
X131568654Y-108528336D01*
%TD*%
M02*
