M48
; DRILL file {KiCad (5.1.9)-1} date 06/03/21 21:08:04
; FORMAT={-:-/ absolute / metric / decimal}
; #@! TF.CreationDate,2021-06-03T21:08:04+02:00
; #@! TF.GenerationSoftware,Kicad,Pcbnew,(5.1.9)-1
; #@! TF.FileFunction,Plated,1,4,PTH
FMAT,2
METRIC
T1C0.400
T2C1.000
%
G90
G05
T1
X114.808Y-106.934
X117.602Y-107.95
X118.11Y-87.122
X118.297Y-90.954
X118.618Y-97.028
X119.38Y-94.234
X119.634Y-99.06
X119.634Y-100.33
X119.888Y-96.266
X119.888Y-97.536
X120.904Y-110.236
X122.936Y-95.504
X123.444Y-104.14
X124.219Y-109.207
X124.465Y-102.611
X124.968Y-95.25
X125.222Y-104.394
X125.222Y-108.966
X125.73Y-98.806
X125.984Y-112.522
X126.492Y-104.394
X126.955Y-90.215
X127.0Y-91.694
X127.0Y-107.315
X127.254Y-101.6
X127.508Y-111.506
X128.016Y-103.632
X128.27Y-107.25
X128.524Y-95.975
X128.524Y-99.06
X129.789Y-105.659
X130.556Y-107.95
X131.38Y-103.595
X131.569Y-107.963
X131.821Y-105.659
X134.112Y-92.456
X135.89Y-108.458
X148.59Y-94.488
T2
X115.57Y-119.38
X119.38Y-119.38
X124.46Y-86.995
X124.46Y-119.38
X129.54Y-119.38
X130.175Y-86.995
X132.715Y-86.995
X133.35Y-119.38
X144.145Y-106.68
X144.145Y-109.22
X145.415Y-97.79
X145.415Y-100.33
X145.415Y-102.87
X147.955Y-97.79
X147.955Y-100.33
X147.955Y-102.87
X147.955Y-106.68
X147.955Y-109.22
X147.955Y-111.76
T0
M30
