%FSLAX45Y45*%
G04 Gerber Fmt 4.5, Leading zero omitted, Abs format (unit mm)*
G04 Created by KiCad (PCBNEW (5.1.9)-1) date 2021-06-03 21:08:32*
%MOMM*%
%LPD*%
G01*
G04 APERTURE LIST*
%TA.AperFunction,Profile*%
%ADD10C,0.050000*%
%TD*%
%ADD11C,0.200000*%
%ADD12C,0.300000*%
G04 APERTURE END LIST*
D10*
X11239500Y-12255500D02*
X11239500Y-8382000D01*
X13652500Y-12255500D02*
X13652500Y-10731500D01*
X13652500Y-9906000D02*
X13652500Y-8382000D01*
X12128500Y-8382000D02*
G75*
G02*
X12763500Y-8382000I317500J127000D01*
G01*
X12763500Y-12255500D02*
G75*
G02*
X12128500Y-12255500I-317500J-127000D01*
G01*
X12128500Y-12255500D02*
X11239500Y-12255500D01*
X13652500Y-12255500D02*
X12763500Y-12255500D01*
X14097000Y-10731500D02*
X13652500Y-10731500D01*
X14097000Y-11620500D02*
X14097000Y-10731500D01*
X15113000Y-11620500D02*
X14097000Y-11620500D01*
X15113000Y-9271000D02*
X15113000Y-11620500D01*
X14097000Y-9271000D02*
X15113000Y-9271000D01*
X14097000Y-9906000D02*
X14097000Y-9271000D01*
X13652500Y-9906000D02*
X14097000Y-9906000D01*
X12763500Y-8382000D02*
X13652500Y-8382000D01*
X11239500Y-8382000D02*
X12128500Y-8382000D01*
D11*
X11460800Y-10673400D02*
X11500800Y-10713400D01*
X11500800Y-10673400D02*
X11460800Y-10713400D01*
X11740200Y-10775000D02*
X11780200Y-10815000D01*
X11780200Y-10775000D02*
X11740200Y-10815000D01*
X11791000Y-8692200D02*
X11831000Y-8732200D01*
X11831000Y-8692200D02*
X11791000Y-8732200D01*
X11809666Y-9075371D02*
X11849666Y-9115371D01*
X11849666Y-9075371D02*
X11809666Y-9115371D01*
X11841800Y-9682800D02*
X11881800Y-9722800D01*
X11881800Y-9682800D02*
X11841800Y-9722800D01*
X11918000Y-9403400D02*
X11958000Y-9443400D01*
X11958000Y-9403400D02*
X11918000Y-9443400D01*
X11943400Y-9886000D02*
X11983400Y-9926000D01*
X11983400Y-9886000D02*
X11943400Y-9926000D01*
X11943400Y-10013000D02*
X11983400Y-10053000D01*
X11983400Y-10013000D02*
X11943400Y-10053000D01*
X11968800Y-9606600D02*
X12008800Y-9646600D01*
X12008800Y-9606600D02*
X11968800Y-9646600D01*
X11968800Y-9733600D02*
X12008800Y-9773600D01*
X12008800Y-9733600D02*
X11968800Y-9773600D01*
X12070400Y-11003600D02*
X12110400Y-11043600D01*
X12110400Y-11003600D02*
X12070400Y-11043600D01*
X12273600Y-9530400D02*
X12313600Y-9570400D01*
X12313600Y-9530400D02*
X12273600Y-9570400D01*
X12324400Y-10394000D02*
X12364400Y-10434000D01*
X12364400Y-10394000D02*
X12324400Y-10434000D01*
X12401940Y-10900660D02*
X12441940Y-10940660D01*
X12441940Y-10900660D02*
X12401940Y-10940660D01*
X12426465Y-10241135D02*
X12466465Y-10281135D01*
X12466465Y-10241135D02*
X12426465Y-10281135D01*
X12476800Y-9505000D02*
X12516800Y-9545000D01*
X12516800Y-9505000D02*
X12476800Y-9545000D01*
X12502200Y-10419400D02*
X12542200Y-10459400D01*
X12542200Y-10419400D02*
X12502200Y-10459400D01*
X12502200Y-10876600D02*
X12542200Y-10916600D01*
X12542200Y-10876600D02*
X12502200Y-10916600D01*
X12553000Y-9860600D02*
X12593000Y-9900600D01*
X12593000Y-9860600D02*
X12553000Y-9900600D01*
X12578400Y-11232200D02*
X12618400Y-11272200D01*
X12618400Y-11232200D02*
X12578400Y-11272200D01*
X12629200Y-10419400D02*
X12669200Y-10459400D01*
X12669200Y-10419400D02*
X12629200Y-10459400D01*
X12675500Y-9001500D02*
X12715500Y-9041500D01*
X12715500Y-9001500D02*
X12675500Y-9041500D01*
X12680000Y-9149400D02*
X12720000Y-9189400D01*
X12720000Y-9149400D02*
X12680000Y-9189400D01*
X12680000Y-10711500D02*
X12720000Y-10751500D01*
X12720000Y-10711500D02*
X12680000Y-10751500D01*
X12705400Y-10140000D02*
X12745400Y-10180000D01*
X12745400Y-10140000D02*
X12705400Y-10180000D01*
X12730800Y-11130600D02*
X12770800Y-11170600D01*
X12770800Y-11130600D02*
X12730800Y-11170600D01*
X12781600Y-10343200D02*
X12821600Y-10383200D01*
X12821600Y-10343200D02*
X12781600Y-10383200D01*
X12807000Y-10705000D02*
X12847000Y-10745000D01*
X12847000Y-10705000D02*
X12807000Y-10745000D01*
X12832400Y-9577500D02*
X12872400Y-9617500D01*
X12872400Y-9577500D02*
X12832400Y-9617500D01*
X12832400Y-9886000D02*
X12872400Y-9926000D01*
X12872400Y-9886000D02*
X12832400Y-9926000D01*
X12958935Y-10545935D02*
X12998935Y-10585935D01*
X12998935Y-10545935D02*
X12958935Y-10585935D01*
X13035600Y-10775000D02*
X13075600Y-10815000D01*
X13075600Y-10775000D02*
X13035600Y-10815000D01*
X13118000Y-10339500D02*
X13158000Y-10379500D01*
X13158000Y-10339500D02*
X13118000Y-10379500D01*
X13136865Y-10776265D02*
X13176865Y-10816265D01*
X13176865Y-10776265D02*
X13136865Y-10816265D01*
X13162135Y-10545935D02*
X13202135Y-10585935D01*
X13202135Y-10545935D02*
X13162135Y-10585935D01*
X13391200Y-9225600D02*
X13431200Y-9265600D01*
X13431200Y-9225600D02*
X13391200Y-9265600D01*
X13569000Y-10825800D02*
X13609000Y-10865800D01*
X13609000Y-10825800D02*
X13569000Y-10865800D01*
X14839000Y-9428800D02*
X14879000Y-9468800D01*
X14879000Y-9428800D02*
X14839000Y-9468800D01*
X11607000Y-11938000D02*
G75*
G03*
X11607000Y-11938000I-50000J0D01*
G01*
X11988000Y-11938000D02*
G75*
G03*
X11988000Y-11938000I-50000J0D01*
G01*
X12496000Y-8699500D02*
G75*
G03*
X12496000Y-8699500I-50000J0D01*
G01*
X12496000Y-11938000D02*
G75*
G03*
X12496000Y-11938000I-50000J0D01*
G01*
X13004000Y-11938000D02*
G75*
G03*
X13004000Y-11938000I-50000J0D01*
G01*
X13067500Y-8699500D02*
G75*
G03*
X13067500Y-8699500I-50000J0D01*
G01*
X13321500Y-8699500D02*
G75*
G03*
X13321500Y-8699500I-50000J0D01*
G01*
X13385000Y-11938000D02*
G75*
G03*
X13385000Y-11938000I-50000J0D01*
G01*
X14464500Y-10668000D02*
G75*
G03*
X14464500Y-10668000I-50000J0D01*
G01*
X14464500Y-10922000D02*
G75*
G03*
X14464500Y-10922000I-50000J0D01*
G01*
X14591500Y-9779000D02*
G75*
G03*
X14591500Y-9779000I-50000J0D01*
G01*
X14591500Y-10033000D02*
G75*
G03*
X14591500Y-10033000I-50000J0D01*
G01*
X14591500Y-10287000D02*
G75*
G03*
X14591500Y-10287000I-50000J0D01*
G01*
X14845500Y-9779000D02*
G75*
G03*
X14845500Y-9779000I-50000J0D01*
G01*
X14845500Y-10033000D02*
G75*
G03*
X14845500Y-10033000I-50000J0D01*
G01*
X14845500Y-10287000D02*
G75*
G03*
X14845500Y-10287000I-50000J0D01*
G01*
X14845500Y-10668000D02*
G75*
G03*
X14845500Y-10668000I-50000J0D01*
G01*
X14845500Y-10922000D02*
G75*
G03*
X14845500Y-10922000I-50000J0D01*
G01*
X14845500Y-11176000D02*
G75*
G03*
X14845500Y-11176000I-50000J0D01*
G01*
D12*
X11523428Y-13192672D02*
X11523428Y-12892672D01*
X11594857Y-12892672D01*
X11637714Y-12906958D01*
X11666286Y-12935529D01*
X11680571Y-12964101D01*
X11694857Y-13021244D01*
X11694857Y-13064101D01*
X11680571Y-13121244D01*
X11666286Y-13149815D01*
X11637714Y-13178386D01*
X11594857Y-13192672D01*
X11523428Y-13192672D01*
X11823428Y-13192672D02*
X11823428Y-12992672D01*
X11823428Y-13049815D02*
X11837714Y-13021244D01*
X11852000Y-13006958D01*
X11880571Y-12992672D01*
X11909143Y-12992672D01*
X12009143Y-13192672D02*
X12009143Y-12992672D01*
X12009143Y-12892672D02*
X11994857Y-12906958D01*
X12009143Y-12921244D01*
X12023428Y-12906958D01*
X12009143Y-12892672D01*
X12009143Y-12921244D01*
X12194857Y-13192672D02*
X12166286Y-13178386D01*
X12152000Y-13149815D01*
X12152000Y-12892672D01*
X12352000Y-13192672D02*
X12323428Y-13178386D01*
X12309143Y-13149815D01*
X12309143Y-12892672D01*
X12694857Y-13192672D02*
X12694857Y-12892672D01*
X12794857Y-13106958D01*
X12894857Y-12892672D01*
X12894857Y-13192672D01*
X13166286Y-13192672D02*
X13166286Y-13035529D01*
X13152000Y-13006958D01*
X13123428Y-12992672D01*
X13066286Y-12992672D01*
X13037714Y-13006958D01*
X13166286Y-13178386D02*
X13137714Y-13192672D01*
X13066286Y-13192672D01*
X13037714Y-13178386D01*
X13023428Y-13149815D01*
X13023428Y-13121244D01*
X13037714Y-13092672D01*
X13066286Y-13078386D01*
X13137714Y-13078386D01*
X13166286Y-13064101D01*
X13309143Y-12992672D02*
X13309143Y-13292672D01*
X13309143Y-13006958D02*
X13337714Y-12992672D01*
X13394857Y-12992672D01*
X13423428Y-13006958D01*
X13437714Y-13021244D01*
X13452000Y-13049815D01*
X13452000Y-13135529D01*
X13437714Y-13164101D01*
X13423428Y-13178386D01*
X13394857Y-13192672D01*
X13337714Y-13192672D01*
X13309143Y-13178386D01*
X13580571Y-13164101D02*
X13594857Y-13178386D01*
X13580571Y-13192672D01*
X13566286Y-13178386D01*
X13580571Y-13164101D01*
X13580571Y-13192672D01*
X13580571Y-13006958D02*
X13594857Y-13021244D01*
X13580571Y-13035529D01*
X13566286Y-13021244D01*
X13580571Y-13006958D01*
X13580571Y-13035529D01*
X11197000Y-13666958D02*
X11237000Y-13706958D01*
X11237000Y-13666958D02*
X11197000Y-13706958D01*
X11580571Y-13522672D02*
X11609143Y-13522672D01*
X11637714Y-13536958D01*
X11652000Y-13551244D01*
X11666286Y-13579815D01*
X11680571Y-13636958D01*
X11680571Y-13708386D01*
X11666286Y-13765529D01*
X11652000Y-13794101D01*
X11637714Y-13808386D01*
X11609143Y-13822672D01*
X11580571Y-13822672D01*
X11552000Y-13808386D01*
X11537714Y-13794101D01*
X11523428Y-13765529D01*
X11509143Y-13708386D01*
X11509143Y-13636958D01*
X11523428Y-13579815D01*
X11537714Y-13551244D01*
X11552000Y-13536958D01*
X11580571Y-13522672D01*
X11809143Y-13794101D02*
X11823428Y-13808386D01*
X11809143Y-13822672D01*
X11794857Y-13808386D01*
X11809143Y-13794101D01*
X11809143Y-13822672D01*
X12080571Y-13622672D02*
X12080571Y-13822672D01*
X12009143Y-13508386D02*
X11937714Y-13722672D01*
X12123428Y-13722672D01*
X12294857Y-13522672D02*
X12323428Y-13522672D01*
X12352000Y-13536958D01*
X12366286Y-13551244D01*
X12380571Y-13579815D01*
X12394857Y-13636958D01*
X12394857Y-13708386D01*
X12380571Y-13765529D01*
X12366286Y-13794101D01*
X12352000Y-13808386D01*
X12323428Y-13822672D01*
X12294857Y-13822672D01*
X12266286Y-13808386D01*
X12252000Y-13794101D01*
X12237714Y-13765529D01*
X12223428Y-13708386D01*
X12223428Y-13636958D01*
X12237714Y-13579815D01*
X12252000Y-13551244D01*
X12266286Y-13536958D01*
X12294857Y-13522672D01*
X12523428Y-13822672D02*
X12523428Y-13622672D01*
X12523428Y-13651244D02*
X12537714Y-13636958D01*
X12566286Y-13622672D01*
X12609143Y-13622672D01*
X12637714Y-13636958D01*
X12652000Y-13665529D01*
X12652000Y-13822672D01*
X12652000Y-13665529D02*
X12666286Y-13636958D01*
X12694857Y-13622672D01*
X12737714Y-13622672D01*
X12766286Y-13636958D01*
X12780571Y-13665529D01*
X12780571Y-13822672D01*
X12923428Y-13822672D02*
X12923428Y-13622672D01*
X12923428Y-13651244D02*
X12937714Y-13636958D01*
X12966286Y-13622672D01*
X13009143Y-13622672D01*
X13037714Y-13636958D01*
X13052000Y-13665529D01*
X13052000Y-13822672D01*
X13052000Y-13665529D02*
X13066286Y-13636958D01*
X13094857Y-13622672D01*
X13137714Y-13622672D01*
X13166286Y-13636958D01*
X13180571Y-13665529D01*
X13180571Y-13822672D01*
X13766286Y-13508386D02*
X13509143Y-13894101D01*
X14152000Y-13522672D02*
X14180571Y-13522672D01*
X14209143Y-13536958D01*
X14223428Y-13551244D01*
X14237714Y-13579815D01*
X14252000Y-13636958D01*
X14252000Y-13708386D01*
X14237714Y-13765529D01*
X14223428Y-13794101D01*
X14209143Y-13808386D01*
X14180571Y-13822672D01*
X14152000Y-13822672D01*
X14123428Y-13808386D01*
X14109143Y-13794101D01*
X14094857Y-13765529D01*
X14080571Y-13708386D01*
X14080571Y-13636958D01*
X14094857Y-13579815D01*
X14109143Y-13551244D01*
X14123428Y-13536958D01*
X14152000Y-13522672D01*
X14380571Y-13794101D02*
X14394857Y-13808386D01*
X14380571Y-13822672D01*
X14366286Y-13808386D01*
X14380571Y-13794101D01*
X14380571Y-13822672D01*
X14580571Y-13522672D02*
X14609143Y-13522672D01*
X14637714Y-13536958D01*
X14652000Y-13551244D01*
X14666286Y-13579815D01*
X14680571Y-13636958D01*
X14680571Y-13708386D01*
X14666286Y-13765529D01*
X14652000Y-13794101D01*
X14637714Y-13808386D01*
X14609143Y-13822672D01*
X14580571Y-13822672D01*
X14552000Y-13808386D01*
X14537714Y-13794101D01*
X14523428Y-13765529D01*
X14509143Y-13708386D01*
X14509143Y-13636958D01*
X14523428Y-13579815D01*
X14537714Y-13551244D01*
X14552000Y-13536958D01*
X14580571Y-13522672D01*
X14966286Y-13822672D02*
X14794857Y-13822672D01*
X14880571Y-13822672D02*
X14880571Y-13522672D01*
X14852000Y-13565529D01*
X14823428Y-13594101D01*
X14794857Y-13608386D01*
X15223428Y-13522672D02*
X15166286Y-13522672D01*
X15137714Y-13536958D01*
X15123428Y-13551244D01*
X15094857Y-13594101D01*
X15080571Y-13651244D01*
X15080571Y-13765529D01*
X15094857Y-13794101D01*
X15109143Y-13808386D01*
X15137714Y-13822672D01*
X15194857Y-13822672D01*
X15223428Y-13808386D01*
X15237714Y-13794101D01*
X15252000Y-13765529D01*
X15252000Y-13694101D01*
X15237714Y-13665529D01*
X15223428Y-13651244D01*
X15194857Y-13636958D01*
X15137714Y-13636958D01*
X15109143Y-13651244D01*
X15094857Y-13665529D01*
X15080571Y-13694101D01*
X15366286Y-13522672D02*
X15366286Y-13579815D01*
X15480571Y-13522672D02*
X15480571Y-13579815D01*
X15923428Y-13936958D02*
X15909143Y-13922672D01*
X15880571Y-13879815D01*
X15866286Y-13851244D01*
X15852000Y-13808386D01*
X15837714Y-13736958D01*
X15837714Y-13679815D01*
X15852000Y-13608386D01*
X15866286Y-13565529D01*
X15880571Y-13536958D01*
X15909143Y-13494101D01*
X15923428Y-13479815D01*
X16009143Y-13522672D02*
X16194857Y-13522672D01*
X16094857Y-13636958D01*
X16137714Y-13636958D01*
X16166286Y-13651244D01*
X16180571Y-13665529D01*
X16194857Y-13694101D01*
X16194857Y-13765529D01*
X16180571Y-13794101D01*
X16166286Y-13808386D01*
X16137714Y-13822672D01*
X16052000Y-13822672D01*
X16023428Y-13808386D01*
X16009143Y-13794101D01*
X16366286Y-13651244D02*
X16337714Y-13636958D01*
X16323428Y-13622672D01*
X16309143Y-13594101D01*
X16309143Y-13579815D01*
X16323428Y-13551244D01*
X16337714Y-13536958D01*
X16366286Y-13522672D01*
X16423428Y-13522672D01*
X16452000Y-13536958D01*
X16466286Y-13551244D01*
X16480571Y-13579815D01*
X16480571Y-13594101D01*
X16466286Y-13622672D01*
X16452000Y-13636958D01*
X16423428Y-13651244D01*
X16366286Y-13651244D01*
X16337714Y-13665529D01*
X16323428Y-13679815D01*
X16309143Y-13708386D01*
X16309143Y-13765529D01*
X16323428Y-13794101D01*
X16337714Y-13808386D01*
X16366286Y-13822672D01*
X16423428Y-13822672D01*
X16452000Y-13808386D01*
X16466286Y-13794101D01*
X16480571Y-13765529D01*
X16480571Y-13708386D01*
X16466286Y-13679815D01*
X16452000Y-13665529D01*
X16423428Y-13651244D01*
X16837714Y-13822672D02*
X16837714Y-13522672D01*
X16966286Y-13822672D02*
X16966286Y-13665529D01*
X16952000Y-13636958D01*
X16923428Y-13622672D01*
X16880571Y-13622672D01*
X16852000Y-13636958D01*
X16837714Y-13651244D01*
X17152000Y-13822672D02*
X17123428Y-13808386D01*
X17109143Y-13794101D01*
X17094857Y-13765529D01*
X17094857Y-13679815D01*
X17109143Y-13651244D01*
X17123428Y-13636958D01*
X17152000Y-13622672D01*
X17194857Y-13622672D01*
X17223428Y-13636958D01*
X17237714Y-13651244D01*
X17252000Y-13679815D01*
X17252000Y-13765529D01*
X17237714Y-13794101D01*
X17223428Y-13808386D01*
X17194857Y-13822672D01*
X17152000Y-13822672D01*
X17423428Y-13822672D02*
X17394857Y-13808386D01*
X17380571Y-13779815D01*
X17380571Y-13522672D01*
X17652000Y-13808386D02*
X17623428Y-13822672D01*
X17566286Y-13822672D01*
X17537714Y-13808386D01*
X17523428Y-13779815D01*
X17523428Y-13665529D01*
X17537714Y-13636958D01*
X17566286Y-13622672D01*
X17623428Y-13622672D01*
X17652000Y-13636958D01*
X17666286Y-13665529D01*
X17666286Y-13694101D01*
X17523428Y-13722672D01*
X17780571Y-13808386D02*
X17809143Y-13822672D01*
X17866286Y-13822672D01*
X17894857Y-13808386D01*
X17909143Y-13779815D01*
X17909143Y-13765529D01*
X17894857Y-13736958D01*
X17866286Y-13722672D01*
X17823428Y-13722672D01*
X17794857Y-13708386D01*
X17780571Y-13679815D01*
X17780571Y-13665529D01*
X17794857Y-13636958D01*
X17823428Y-13622672D01*
X17866286Y-13622672D01*
X17894857Y-13636958D01*
X18009143Y-13936958D02*
X18023428Y-13922672D01*
X18052000Y-13879815D01*
X18066286Y-13851244D01*
X18080571Y-13808386D01*
X18094857Y-13736958D01*
X18094857Y-13679815D01*
X18080571Y-13608386D01*
X18066286Y-13565529D01*
X18052000Y-13536958D01*
X18023428Y-13494101D01*
X18009143Y-13479815D01*
X11237000Y-14082958D02*
G75*
G03*
X11237000Y-14082958I-50000J0D01*
G01*
X11680571Y-14218672D02*
X11509143Y-14218672D01*
X11594857Y-14218672D02*
X11594857Y-13918672D01*
X11566286Y-13961529D01*
X11537714Y-13990101D01*
X11509143Y-14004386D01*
X11809143Y-14190101D02*
X11823428Y-14204386D01*
X11809143Y-14218672D01*
X11794857Y-14204386D01*
X11809143Y-14190101D01*
X11809143Y-14218672D01*
X12009143Y-13918672D02*
X12037714Y-13918672D01*
X12066286Y-13932958D01*
X12080571Y-13947244D01*
X12094857Y-13975815D01*
X12109143Y-14032958D01*
X12109143Y-14104386D01*
X12094857Y-14161529D01*
X12080571Y-14190101D01*
X12066286Y-14204386D01*
X12037714Y-14218672D01*
X12009143Y-14218672D01*
X11980571Y-14204386D01*
X11966286Y-14190101D01*
X11952000Y-14161529D01*
X11937714Y-14104386D01*
X11937714Y-14032958D01*
X11952000Y-13975815D01*
X11966286Y-13947244D01*
X11980571Y-13932958D01*
X12009143Y-13918672D01*
X12294857Y-13918672D02*
X12323428Y-13918672D01*
X12352000Y-13932958D01*
X12366286Y-13947244D01*
X12380571Y-13975815D01*
X12394857Y-14032958D01*
X12394857Y-14104386D01*
X12380571Y-14161529D01*
X12366286Y-14190101D01*
X12352000Y-14204386D01*
X12323428Y-14218672D01*
X12294857Y-14218672D01*
X12266286Y-14204386D01*
X12252000Y-14190101D01*
X12237714Y-14161529D01*
X12223428Y-14104386D01*
X12223428Y-14032958D01*
X12237714Y-13975815D01*
X12252000Y-13947244D01*
X12266286Y-13932958D01*
X12294857Y-13918672D01*
X12523428Y-14218672D02*
X12523428Y-14018672D01*
X12523428Y-14047244D02*
X12537714Y-14032958D01*
X12566286Y-14018672D01*
X12609143Y-14018672D01*
X12637714Y-14032958D01*
X12652000Y-14061529D01*
X12652000Y-14218672D01*
X12652000Y-14061529D02*
X12666286Y-14032958D01*
X12694857Y-14018672D01*
X12737714Y-14018672D01*
X12766286Y-14032958D01*
X12780571Y-14061529D01*
X12780571Y-14218672D01*
X12923428Y-14218672D02*
X12923428Y-14018672D01*
X12923428Y-14047244D02*
X12937714Y-14032958D01*
X12966286Y-14018672D01*
X13009143Y-14018672D01*
X13037714Y-14032958D01*
X13052000Y-14061529D01*
X13052000Y-14218672D01*
X13052000Y-14061529D02*
X13066286Y-14032958D01*
X13094857Y-14018672D01*
X13137714Y-14018672D01*
X13166286Y-14032958D01*
X13180571Y-14061529D01*
X13180571Y-14218672D01*
X13766286Y-13904386D02*
X13509143Y-14290101D01*
X14152000Y-13918672D02*
X14180571Y-13918672D01*
X14209143Y-13932958D01*
X14223428Y-13947244D01*
X14237714Y-13975815D01*
X14252000Y-14032958D01*
X14252000Y-14104386D01*
X14237714Y-14161529D01*
X14223428Y-14190101D01*
X14209143Y-14204386D01*
X14180571Y-14218672D01*
X14152000Y-14218672D01*
X14123428Y-14204386D01*
X14109143Y-14190101D01*
X14094857Y-14161529D01*
X14080571Y-14104386D01*
X14080571Y-14032958D01*
X14094857Y-13975815D01*
X14109143Y-13947244D01*
X14123428Y-13932958D01*
X14152000Y-13918672D01*
X14380571Y-14190101D02*
X14394857Y-14204386D01*
X14380571Y-14218672D01*
X14366286Y-14204386D01*
X14380571Y-14190101D01*
X14380571Y-14218672D01*
X14580571Y-13918672D02*
X14609143Y-13918672D01*
X14637714Y-13932958D01*
X14652000Y-13947244D01*
X14666286Y-13975815D01*
X14680571Y-14032958D01*
X14680571Y-14104386D01*
X14666286Y-14161529D01*
X14652000Y-14190101D01*
X14637714Y-14204386D01*
X14609143Y-14218672D01*
X14580571Y-14218672D01*
X14552000Y-14204386D01*
X14537714Y-14190101D01*
X14523428Y-14161529D01*
X14509143Y-14104386D01*
X14509143Y-14032958D01*
X14523428Y-13975815D01*
X14537714Y-13947244D01*
X14552000Y-13932958D01*
X14580571Y-13918672D01*
X14780571Y-13918672D02*
X14966286Y-13918672D01*
X14866286Y-14032958D01*
X14909143Y-14032958D01*
X14937714Y-14047244D01*
X14952000Y-14061529D01*
X14966286Y-14090101D01*
X14966286Y-14161529D01*
X14952000Y-14190101D01*
X14937714Y-14204386D01*
X14909143Y-14218672D01*
X14823428Y-14218672D01*
X14794857Y-14204386D01*
X14780571Y-14190101D01*
X15109143Y-14218672D02*
X15166286Y-14218672D01*
X15194857Y-14204386D01*
X15209143Y-14190101D01*
X15237714Y-14147244D01*
X15252000Y-14090101D01*
X15252000Y-13975815D01*
X15237714Y-13947244D01*
X15223428Y-13932958D01*
X15194857Y-13918672D01*
X15137714Y-13918672D01*
X15109143Y-13932958D01*
X15094857Y-13947244D01*
X15080571Y-13975815D01*
X15080571Y-14047244D01*
X15094857Y-14075815D01*
X15109143Y-14090101D01*
X15137714Y-14104386D01*
X15194857Y-14104386D01*
X15223428Y-14090101D01*
X15237714Y-14075815D01*
X15252000Y-14047244D01*
X15366286Y-13918672D02*
X15366286Y-13975815D01*
X15480571Y-13918672D02*
X15480571Y-13975815D01*
X15923428Y-14332958D02*
X15909143Y-14318672D01*
X15880571Y-14275815D01*
X15866286Y-14247244D01*
X15852000Y-14204386D01*
X15837714Y-14132958D01*
X15837714Y-14075815D01*
X15852000Y-14004386D01*
X15866286Y-13961529D01*
X15880571Y-13932958D01*
X15909143Y-13890101D01*
X15923428Y-13875815D01*
X16194857Y-14218672D02*
X16023428Y-14218672D01*
X16109143Y-14218672D02*
X16109143Y-13918672D01*
X16080571Y-13961529D01*
X16052000Y-13990101D01*
X16023428Y-14004386D01*
X16337714Y-14218672D02*
X16394857Y-14218672D01*
X16423428Y-14204386D01*
X16437714Y-14190101D01*
X16466286Y-14147244D01*
X16480571Y-14090101D01*
X16480571Y-13975815D01*
X16466286Y-13947244D01*
X16452000Y-13932958D01*
X16423428Y-13918672D01*
X16366286Y-13918672D01*
X16337714Y-13932958D01*
X16323428Y-13947244D01*
X16309143Y-13975815D01*
X16309143Y-14047244D01*
X16323428Y-14075815D01*
X16337714Y-14090101D01*
X16366286Y-14104386D01*
X16423428Y-14104386D01*
X16452000Y-14090101D01*
X16466286Y-14075815D01*
X16480571Y-14047244D01*
X16837714Y-14218672D02*
X16837714Y-13918672D01*
X16966286Y-14218672D02*
X16966286Y-14061529D01*
X16952000Y-14032958D01*
X16923428Y-14018672D01*
X16880571Y-14018672D01*
X16852000Y-14032958D01*
X16837714Y-14047244D01*
X17152000Y-14218672D02*
X17123428Y-14204386D01*
X17109143Y-14190101D01*
X17094857Y-14161529D01*
X17094857Y-14075815D01*
X17109143Y-14047244D01*
X17123428Y-14032958D01*
X17152000Y-14018672D01*
X17194857Y-14018672D01*
X17223428Y-14032958D01*
X17237714Y-14047244D01*
X17252000Y-14075815D01*
X17252000Y-14161529D01*
X17237714Y-14190101D01*
X17223428Y-14204386D01*
X17194857Y-14218672D01*
X17152000Y-14218672D01*
X17423428Y-14218672D02*
X17394857Y-14204386D01*
X17380571Y-14175815D01*
X17380571Y-13918672D01*
X17652000Y-14204386D02*
X17623428Y-14218672D01*
X17566286Y-14218672D01*
X17537714Y-14204386D01*
X17523428Y-14175815D01*
X17523428Y-14061529D01*
X17537714Y-14032958D01*
X17566286Y-14018672D01*
X17623428Y-14018672D01*
X17652000Y-14032958D01*
X17666286Y-14061529D01*
X17666286Y-14090101D01*
X17523428Y-14118672D01*
X17780571Y-14204386D02*
X17809143Y-14218672D01*
X17866286Y-14218672D01*
X17894857Y-14204386D01*
X17909143Y-14175815D01*
X17909143Y-14161529D01*
X17894857Y-14132958D01*
X17866286Y-14118672D01*
X17823428Y-14118672D01*
X17794857Y-14104386D01*
X17780571Y-14075815D01*
X17780571Y-14061529D01*
X17794857Y-14032958D01*
X17823428Y-14018672D01*
X17866286Y-14018672D01*
X17894857Y-14032958D01*
X18009143Y-14332958D02*
X18023428Y-14318672D01*
X18052000Y-14275815D01*
X18066286Y-14247244D01*
X18080571Y-14204386D01*
X18094857Y-14132958D01*
X18094857Y-14075815D01*
X18080571Y-14004386D01*
X18066286Y-13961529D01*
X18052000Y-13932958D01*
X18023428Y-13890101D01*
X18009143Y-13875815D01*
M02*
